<svg width="292" height="49" viewBox="0 0 292 49" fill="none" xmlns="http://www.w3.org/2000/svg">
<path d="M46.63 5.422V48H38.09V20.306L26.683 48H20.217L8.749 20.306V48H0.209V5.422H9.908L23.45 37.081L36.992 5.422H46.63ZM85.2683 30.371C85.2683 31.591 85.1869 32.689 85.0243 33.665H60.3193C60.5226 36.105 61.3766 38.0163 62.8813 39.399C64.3859 40.7817 66.2363 41.473 68.4323 41.473C71.6043 41.473 73.8613 40.1107 75.2033 37.386H84.4143C83.4383 40.6393 81.5676 43.3233 78.8023 45.438C76.0369 47.512 72.6413 48.549 68.6153 48.549C65.3619 48.549 62.4339 47.8373 59.8313 46.414C57.2693 44.95 55.2563 42.8963 53.7923 40.253C52.3689 37.6097 51.6573 34.5597 51.6573 31.103C51.6573 27.6057 52.3689 24.5353 53.7923 21.892C55.2156 19.2487 57.2083 17.2153 59.7703 15.792C62.3323 14.3687 65.2806 13.657 68.6153 13.657C71.8279 13.657 74.6949 14.3483 77.2163 15.731C79.7783 17.1137 81.7506 19.086 83.1333 21.648C84.5566 24.1693 85.2683 27.077 85.2683 30.371ZM76.4233 27.931C76.3826 25.735 75.5896 23.9863 74.0443 22.685C72.4989 21.343 70.6079 20.672 68.3713 20.672C66.2566 20.672 64.4673 21.3227 63.0033 22.624C61.5799 23.8847 60.7056 25.6537 60.3803 27.931H76.4233ZM100.225 21.221V37.569C100.225 38.7077 100.489 39.5413 101.018 40.07C101.587 40.558 102.522 40.802 103.824 40.802H107.789V48H102.421C95.2227 48 91.6237 44.5027 91.6237 37.508V21.221H87.5977V14.206H91.6237V5.849H100.225V14.206H107.789V21.221H100.225ZM110.515 30.981C110.515 27.565 111.186 24.5353 112.528 21.892C113.911 19.2487 115.761 17.2153 118.079 15.792C120.438 14.3687 123.061 13.657 125.948 13.657C128.469 13.657 130.665 14.1653 132.536 15.182C134.447 16.1987 135.972 17.4797 137.111 19.025V14.206H145.712V48H137.111V43.059C136.013 44.645 134.488 45.9667 132.536 47.024C130.625 48.0407 128.408 48.549 125.887 48.549C123.04 48.549 120.438 47.817 118.079 46.353C115.761 44.889 113.911 42.8353 112.528 40.192C111.186 37.508 110.515 34.4377 110.515 30.981ZM137.111 31.103C137.111 29.029 136.704 27.26 135.891 25.796C135.078 24.2913 133.98 23.1527 132.597 22.38C131.214 21.5667 129.73 21.16 128.144 21.16C126.558 21.16 125.094 21.5463 123.752 22.319C122.41 23.0917 121.312 24.2303 120.458 25.735C119.645 27.199 119.238 28.9477 119.238 30.981C119.238 33.0143 119.645 34.8037 120.458 36.349C121.312 37.8537 122.41 39.0127 123.752 39.826C125.135 40.6393 126.599 41.046 128.144 41.046C129.73 41.046 131.214 40.6597 132.597 39.887C133.98 39.0737 135.078 37.935 135.891 36.471C136.704 34.9663 137.111 33.177 137.111 31.103ZM188.152 5.422V48H179.612V29.883H161.373V48H152.833V5.422H161.373V22.929H179.612V5.422H188.152ZM226.753 30.371C226.753 31.591 226.671 32.689 226.509 33.665H201.804C202.007 36.105 202.861 38.0163 204.366 39.399C205.87 40.7817 207.721 41.473 209.917 41.473C213.089 41.473 215.346 40.1107 216.688 37.386H225.899C224.923 40.6393 223.052 43.3233 220.287 45.438C217.521 47.512 214.126 48.549 210.1 48.549C206.846 48.549 203.918 47.8373 201.316 46.414C198.754 44.95 196.741 42.8963 195.277 40.253C193.853 37.6097 193.142 34.5597 193.142 31.103C193.142 27.6057 193.853 24.5353 195.277 21.892C196.7 19.2487 198.693 17.2153 201.255 15.792C203.817 14.3687 206.765 13.657 210.1 13.657C213.312 13.657 216.179 14.3483 218.701 15.731C221.263 17.1137 223.235 19.086 224.618 21.648C226.041 24.1693 226.753 27.077 226.753 30.371ZM217.908 27.931C217.867 25.735 217.074 23.9863 215.529 22.685C213.983 21.343 212.092 20.672 209.856 20.672C207.741 20.672 205.952 21.3227 204.488 22.624C203.064 23.8847 202.19 25.6537 201.865 27.931H217.908ZM240.306 2.86V48H231.766V2.86H240.306ZM251.854 10.18C250.35 10.18 249.089 9.71233 248.072 8.777C247.096 7.801 246.608 6.60133 246.608 5.178C246.608 3.75466 247.096 2.57533 248.072 1.64C249.089 0.663997 250.35 0.175998 251.854 0.175998C253.359 0.175998 254.599 0.663997 255.575 1.64C256.592 2.57533 257.1 3.75466 257.1 5.178C257.1 6.60133 256.592 7.801 255.575 8.777C254.599 9.71233 253.359 10.18 251.854 10.18ZM256.063 14.206V48H247.523V14.206H256.063ZM281.947 48L274.993 37.508L268.832 48H259.682L270.723 31.042L259.56 14.206H269.198L276.091 24.637L282.313 14.206H291.463L280.361 31.042L291.585 48H281.947Z" fill="white"/>
</svg>
