<svg width="95" height="96" viewBox="0 0 95 96" fill="none" xmlns="http://www.w3.org/2000/svg">
<path d="M72.2236 55.3643L75.6402 44.8685L77.9772 45.629L74.5607 56.1248L72.2236 55.3643Z" fill="white"/>
<path d="M71.128 58.7049L68.1041 67.9841C66.2788 67.3102 64.2383 67.5752 62.6453 68.694C61.0532 69.8129 60.1118 71.6435 60.1271 73.5897V76.5271C60.1306 78.1106 60.7607 79.6282 61.8805 80.7471C63.0002 81.8668 64.5178 82.497 66.1005 82.5004H66.1743C67.7578 82.497 69.2754 81.8668 70.395 80.7471C71.5147 79.6282 72.1449 78.1107 72.1483 76.5271V73.5897C72.144 71.953 71.4632 70.3918 70.2672 69.2755L73.4627 59.4423L71.128 58.7049ZM69.7022 76.527C69.6988 77.4581 69.3275 78.3506 68.6691 79.0091C68.0106 79.6677 67.1181 80.0388 66.1869 80.0423H66.1132C65.1804 80.0423 64.2861 79.6719 63.6277 79.0126C62.9684 78.3533 62.598 77.459 62.598 76.5271V73.5897C62.598 72.32 63.2745 71.1479 64.3736 70.5134C65.4728 69.8781 66.8266 69.8781 67.9258 70.5134C69.0249 71.1479 69.7023 72.3199 69.7023 73.5897L69.7022 76.527Z" fill="white"/>
<path d="M15.4492 49.2121L17.0456 44.2899L19.3836 45.0487L17.7872 49.9709L15.4492 49.2121Z" fill="white"/>
<path d="M66.1506 85.4625L60.4106 80.632L58.9231 81.6523H17.0605L15.573 80.632L9.83297 85.4625L4.09298 80.632L0 83.4349V95.8975H19.6664V84.1104H56.3184V95.8975H75.9848V83.4349L71.8797 80.632L66.1506 85.4625ZM17.2074 93.4395H2.45815V84.7373L3.94568 83.717L9.83317 88.6331L15.7207 83.717L17.2082 84.7373L17.2074 93.4395ZM73.5253 84.7491L73.5245 93.4395H58.7752V84.7373L60.2628 83.717L66.1503 88.6331L72.0378 83.717L73.5253 84.7491Z" fill="white"/>
<path d="M28.2321 14.9218H28.3058C29.8893 14.9184 31.4069 14.2882 32.5265 13.1685C33.6454 12.0488 34.2764 10.5311 34.2798 8.94844V6.01018C34.2798 3.86334 33.1335 1.87857 31.274 0.805064C29.4143 -0.268355 27.1235 -0.268355 25.2638 0.805064C23.4041 1.87848 22.2588 3.86338 22.2588 6.01018V8.94844C22.2622 10.5311 22.8924 12.0487 24.0121 13.1685C25.1318 14.2882 26.6495 14.9184 28.2322 14.9218H28.2321ZM24.7168 6.01024C24.7168 4.74135 25.3941 3.56846 26.4932 2.93392C27.5924 2.29948 28.9462 2.29948 30.0454 2.93392C31.1446 3.56837 31.821 4.74126 31.821 6.01024V8.9485C31.8184 9.87961 31.4463 10.7713 30.7879 11.4307C30.1294 12.0891 29.2369 12.4604 28.3057 12.4638H28.232C27.3009 12.4604 26.4084 12.0891 25.7498 11.4307C25.0914 10.7714 24.7201 9.87969 24.7167 8.9485L24.7168 6.01024Z" fill="white"/>
<path d="M84.5501 14.9218H84.6238C86.2065 14.9184 87.7241 14.2882 88.8439 13.1685C89.9636 12.0488 90.5938 10.5311 90.5972 8.94844V6.01018C90.5972 3.86334 89.4518 1.87857 87.5922 0.805064C85.7326 -0.268355 83.4417 -0.268355 81.582 0.805064C79.7224 1.87848 78.5762 3.86338 78.5762 6.01018V8.94844C78.5796 10.5311 79.2106 12.0487 80.3295 13.1685C81.4492 14.2882 82.9668 14.9184 84.5502 14.9218H84.5501ZM81.0348 6.01024C81.0348 4.74135 81.7113 3.56846 82.8104 2.93392C83.9095 2.29939 85.2634 2.29948 86.3626 2.93392C87.4617 3.56837 88.139 4.74126 88.139 6.01024V8.9485C88.1356 9.87961 87.7644 10.7713 87.1059 11.4307C86.4475 12.0891 85.5549 12.4604 84.6237 12.4638H84.55C83.6189 12.4604 82.7264 12.0891 82.0678 11.4307C81.4094 10.7714 81.0373 9.87969 81.0347 8.9485L81.0348 6.01024Z" fill="white"/>
<path d="M84.5873 17.8849L78.8473 13.0426L77.3598 14.0628L35.4972 14.062L34.0097 13.0417L28.2697 17.884L22.5416 13.0417L18.4365 15.8564V28.2951H22.2466L18.854 38.7431L21.1895 39.4925L24.8771 28.2952H38.1516V16.5208H74.7553V28.2952H81.0116L76.808 41.2508L79.1435 42.013L83.6052 28.2951H94.4217V15.8564L90.3287 13.0417L84.5873 17.8849ZM35.6441 25.8369H20.8949V17.1474L22.3824 16.1272L28.2699 21.0432L34.1574 16.1272L35.6449 17.1474L35.6441 25.8369ZM91.9621 17.1347L91.9612 25.8369H77.212V17.1474L78.6995 16.1272L84.587 21.0432L90.4745 16.1272L91.9621 17.1347Z" fill="white"/>
<path d="M9.79574 82.4994H9.86947C11.453 82.496 12.9706 81.8658 14.0902 80.7461C15.2091 79.6272 15.8401 78.1096 15.8435 76.526V73.5886C15.8401 72.3703 15.462 71.182 14.7607 70.1866C14.0593 69.1903 13.0682 68.4341 11.9218 68.02L16.3219 54.4992L14.0241 53.713L9.46379 67.6274C7.94453 67.7114 6.51434 68.3733 5.46586 69.4767C4.41731 70.5793 3.82915 72.0421 3.82228 73.5638V76.5011C3.81885 78.089 4.44645 79.6126 5.56702 80.7374C6.68675 81.8623 8.20853 82.4959 9.79564 82.4993L9.79574 82.4994ZM6.28045 73.5887C6.28045 72.3189 6.95776 71.1469 8.05692 70.5124C9.15607 69.8771 10.5099 69.8771 11.6091 70.5124C12.7082 71.1468 13.3847 72.3189 13.3847 73.5887V76.5261C13.3847 77.458 13.0143 78.3523 12.355 79.0115C11.6965 79.6708 10.8023 80.0412 9.86953 80.0412H9.79579C8.86469 80.0378 7.97217 79.6666 7.31363 79.0081C6.65508 78.3497 6.28393 77.4571 6.28051 76.5259L6.28045 73.5887Z" fill="white"/>
<path d="M30.2471 64.9229H64.1708V30.9992H30.2471V64.9229ZM61.7126 62.4649L48.5862 62.4641C49.5791 59.7317 51.3522 57.3507 53.6858 55.6163C56.0187 53.8819 58.8103 52.8692 61.7124 52.7055L61.7126 62.4649ZM32.7053 33.4576H61.7126V50.2097C58.2952 50.3443 55.0003 51.524 52.2729 53.5902C47.2094 44.347 36.5163 43.8797 32.7062 44.0399L32.7053 33.4576ZM32.7053 46.4861C35.9873 46.2898 45.9311 46.4861 50.3928 55.2741H50.392C48.4243 57.3284 46.9197 59.7795 45.9792 62.464H32.7053L32.7053 46.4861Z" fill="white"/>
<path d="M54.3507 46.9295C55.7199 46.9295 57.0335 46.385 58.0014 45.4171C58.9694 44.4491 59.5129 43.1364 59.5129 41.7673C59.5129 40.398 58.9694 39.0845 58.0014 38.1165C57.0334 37.1486 55.7199 36.605 54.3507 36.605C52.9815 36.605 51.6688 37.1486 50.7009 38.1165C49.732 39.0845 49.1885 40.3981 49.1885 41.7673C49.1919 43.1348 49.7363 44.4465 50.7043 45.4136C51.6714 46.3807 52.9823 46.926 54.3506 46.9294L54.3507 46.9295ZM54.3507 39.0631C55.4447 39.0631 56.4307 39.7216 56.8491 40.7324C57.2675 41.7424 57.036 42.9058 56.2627 43.6792C55.4893 44.4526 54.3267 44.684 53.3159 44.2648C52.3059 43.8464 51.6465 42.8605 51.6465 41.7673C51.6534 40.2763 52.8606 39.07 54.3506 39.0632L54.3507 39.0631Z" fill="white"/>
</svg>
