<svg width="93" height="102" viewBox="0 0 93 102" fill="none" xmlns="http://www.w3.org/2000/svg">
<path d="M9.3418 26.7949H13.0294V29.2529H9.3418V26.7949Z" fill="#188abb"/>
<path d="M13.6436 29.8676H16.1016V33.5552H13.6436V29.8676Z" fill="#188abb"/>
<path d="M16.7158 26.7949H20.4034V29.2529H16.7158V26.7949Z" fill="#188abb"/>
<path d="M13.6436 22.4929H16.1016V26.1805H13.6436V22.4929Z" fill="#188abb"/>
<path d="M41.4209 4.30148H45.1085V6.75951H41.4209V4.30148Z" fill="#188abb"/>
<path d="M45.7236 7.3743H48.1817V11.0619H45.7236V7.3743Z" fill="#188abb"/>
<path d="M48.7959 4.30148H52.4835V6.75951H48.7959V4.30148Z" fill="#188abb"/>
<path d="M45.7236 0H48.1817V3.68759H45.7236V0Z" fill="#188abb"/>
<path d="M75.5908 19.9118H79.2784V22.3698H75.5908V19.9118Z" fill="#188abb"/>
<path d="M79.8926 22.9846H82.3506V26.6722H79.8926V22.9846Z" fill="#188abb"/>
<path d="M82.9658 19.9118H86.6534V22.3698H82.9658V19.9118Z" fill="#188abb"/>
<path d="M79.8926 15.6099H82.3506V19.2974H79.8926V15.6099Z" fill="#188abb"/>
<path d="M81.2451 55.4334H84.9327V57.8914H81.2451V55.4334Z" fill="#188abb"/>
<path d="M85.5469 58.5062H88.0049V62.1938H85.5469V58.5062Z" fill="#188abb"/>
<path d="M88.6201 55.4334H92.3077V57.8914H88.6201V55.4334Z" fill="#188abb"/>
<path d="M85.5469 51.1315H88.0049V54.8191H85.5469V51.1315Z" fill="#188abb"/>
<path d="M11.7998 59.7353H15.4874V62.1933H11.7998V59.7353Z" fill="#188abb"/>
<path d="M16.1016 62.8081H18.5596V66.4957H16.1016V62.8081Z" fill="#188abb"/>
<path d="M19.1748 59.7353H22.8624V62.1933H19.1748V59.7353Z" fill="#188abb"/>
<path d="M16.1016 55.4334H18.5596V59.121H16.1016V55.4334Z" fill="#188abb"/>
<path d="M36.751 75.9597H40.9298V78.4178H36.751V75.9597Z" fill="#188abb"/>
<path d="M53.2203 38.4715C55.9244 38.4715 58.2599 36.2595 58.2599 33.4319C58.2599 30.6051 56.0479 28.515 53.2203 28.515C50.3935 28.515 48.1807 30.727 48.1807 33.5546C48.1815 36.3814 50.5162 38.4715 53.2203 38.4715ZM53.2203 30.9739C54.5724 30.9739 55.8019 32.0799 55.8019 33.5555C55.8019 34.9076 54.6959 36.1371 53.2203 36.1371C51.7456 36.1371 50.6387 35.0311 50.6387 33.5555C50.7622 32.0799 51.8682 30.9739 53.2203 30.9739Z" fill="#188abb"/>
<path d="M3.68745 101.771H80.9992C82.2287 101.771 83.3348 101.157 84.072 100.173L87.8821 94.5188C88.2508 93.904 88.4968 93.1667 88.4968 92.4294V88.2506C88.4968 86.1612 86.8987 84.563 84.8092 84.563H81.3677L81.4903 84.4404L81.4912 71.658H68.7087L62.1944 78.1723V84.4406H54.6967V82.3512H59.6128V70.6748H54.6967V70.0601C57.6469 68.3393 69.3235 61.2104 72.5188 51.992C72.7649 51.5007 72.8875 51.0085 73.0101 50.5173L78.7869 38.9633C79.893 36.7513 79.2782 34.1697 77.3123 32.8177C76.0828 31.9569 74.4855 31.7117 73.1335 32.203V32.0804C73.1335 30.8509 72.6422 29.7448 71.7814 28.8849C71.5353 28.6388 71.1666 28.3936 70.798 28.1475C70.6754 28.1475 70.6754 28.0249 70.5519 28.0249C70.4293 27.9023 70.1832 27.9023 70.0606 27.7788C69.938 27.7788 69.8146 27.6562 69.5694 27.6562C69.4468 27.6562 69.3233 27.5336 69.2007 27.5336H69.0781H68.3407H67.9721H67.726C67.6034 27.5336 67.3573 27.5336 67.2347 27.6562H67.1121C66.1287 27.9023 65.1453 28.517 64.5305 29.2544H64.4079H64.1619C63.6706 29.2544 63.1785 29.377 62.6872 29.623V22.8626L30.1133 22.8618V55.4335H41.2985L37.4884 61.3331C36.2589 62.3165 35.5216 63.9147 35.5216 65.5119V70.5515H30.3593V82.2279H35.5216V84.3173L7.49765 84.3182C6.26817 84.3182 5.16209 84.9329 4.42484 85.9163L0 92.7992V98.084C0 100.173 1.59812 101.772 3.68758 101.772L3.68745 101.771ZM3.68745 99.3133C2.95011 99.3133 2.45798 98.822 2.45798 98.0838V94.3962H81.1218V99.3123H80.9992L3.68745 99.3133ZM85.7928 93.1677L83.5799 96.4856V93.5355L86.038 89.8479V92.4304C86.038 92.6756 85.9154 92.9217 85.7928 93.1678L85.7928 93.1677ZM64.5283 80.0156H73.132V88.6193H64.5283V80.0156ZM75.5909 79.2783L79.0324 75.8367V83.4571L75.5909 86.8986V79.2783ZM69.6913 74.116H77.3116L73.8701 77.5575H66.2498L69.6913 74.116ZM75.7136 35.0299C76.697 35.6446 76.943 36.9967 76.3283 38.1027L72.8868 45.1091V35.2759C73.7467 34.5386 74.8535 34.416 75.7135 35.0299L75.7136 35.0299ZM52.1144 53.2216H47.812C48.9181 50.3948 52.2369 44.6179 60.226 44.0031V48.674C58.014 49.9035 55.3099 51.5008 52.6056 52.9764L53.2204 54.0824L52.6056 52.9764L52.1144 53.2216ZM60.2268 25.5663V41.4215C56.4168 41.6676 53.4665 42.8962 51.2545 44.617C46.3384 35.8898 36.2592 35.3986 32.5716 35.5213V25.5656L60.2268 25.5663ZM32.5716 37.9802C35.7671 37.8576 45.1089 37.9802 49.4104 46.3378C46.9523 48.9194 45.7228 51.7462 45.2316 53.2207L32.5716 53.2215V37.9802ZM47.8123 55.6798L42.1579 58.8753L44.2473 55.6798H47.8123ZM37.98 65.7582C37.98 64.8974 38.3486 64.0374 39.086 63.4226L53.7127 55.065C57.0316 53.2217 60.4731 51.255 62.9312 49.9027L63.5459 49.534V48.7967L62.6851 34.2926C62.6851 33.6779 62.8077 33.0631 63.2998 32.6945C63.6685 32.3258 64.0372 32.0798 64.5293 31.9571C64.898 32.0798 65.2666 32.3258 65.3901 32.4484C65.7588 32.8171 66.0048 33.4318 66.1274 34.1692L67.1109 50.0244L69.5689 49.9018L68.5855 34.0466C68.4629 32.8171 68.0942 31.711 67.2334 30.8511C67.1108 30.7284 67.1108 30.7284 66.9873 30.605C67.1099 30.605 67.1099 30.4824 67.2334 30.4824C67.356 30.3598 67.6021 30.3598 67.8481 30.3598H67.9707H68.462H68.5846H68.7072C68.8298 30.3598 68.8298 30.3598 68.9533 30.4824C69.0759 30.4824 69.1993 30.605 69.1993 30.605C69.9367 30.9737 70.3054 31.8345 70.3054 32.6944V50.2713C70.3054 50.5173 70.1827 50.886 70.0593 51.1321L69.9367 51.2547C66.7412 60.7191 52.7294 68.3395 52.6058 68.3395L51.9911 68.7081V70.7975H37.98L37.98 65.7582ZM32.8176 73.2558H57.0313V80.0162H32.8176V73.2558ZM37.98 90.0954V82.4751H52.1144V90.0954H54.5724V87.0226H62.0701V91.0787H74.8525L78.9086 87.0226H84.8091H84.9317L81.6128 91.9387H10.8154L13.7655 87.0226H35.3978V90.0954H37.98ZM6.39152 87.6374C6.63758 87.2687 7.00625 87.1461 7.37492 87.1461H10.9389L7.98883 92.0622H3.56399L6.39152 87.6374Z" fill="#188abb"/>
<path d="M69.3223 95.6257H76.9426V98.0837H69.3223V95.6257Z" fill="#188abb"/>
<path d="M62.9316 95.6257H66.1271V98.0837H62.9316V95.6257Z" fill="#188abb"/>
</svg>
