<svg width="106" height="106" viewBox="0 0 106 106" fill="none" xmlns="http://www.w3.org/2000/svg">
<path fill-rule="evenodd" clip-rule="evenodd" d="M49.7869 0.327853C42.6864 1.8488 37.4606 8.2882 37.4606 15.5164C37.4606 22.7857 42.7527 29.2367 49.9321 30.7193C55.029 31.772 60.2592 30.1695 63.9573 26.4222C66.81 23.5317 68.1907 20.439 68.4585 16.3407C69.0333 7.54574 61.7366 -0.0921481 52.849 0.000840297C51.9612 0.00995275 50.5833 0.157202 49.7869 0.327853ZM54.9014 6.42781C56.6958 6.80515 58.181 7.62341 59.5294 8.97785C64.8714 14.3434 61.9593 23.3834 54.4756 24.6666C51.5366 25.1705 48.6361 24.2232 46.4618 22.0492C42.7829 18.3711 42.7804 12.6437 46.456 8.98261C48.7564 6.69124 51.7901 5.77337 54.9014 6.42781ZM25.6973 21.4706C16.8902 27.7845 10.3657 37.4538 7.76263 48.0496C6.90738 51.5309 6.27541 56.5047 6.67311 56.6246C6.80257 56.6635 8.18539 56.7517 9.74614 56.8207L12.5841 56.9462L12.6814 56.2684C12.7351 55.8956 12.9306 54.4873 13.116 53.1391C13.7569 48.4776 15.5587 43.3303 18.0412 39.068C21.0734 33.8625 24.6885 29.9332 30.2778 25.768L30.8338 25.3538L29.178 22.8168C28.2672 21.4215 27.4853 20.2798 27.4403 20.2798C27.3952 20.2798 26.611 20.8158 25.6973 21.4706ZM76.9639 22.6037C76.131 23.8885 75.3851 25.0458 75.3062 25.1756C75.2185 25.3198 75.8294 25.8959 76.8762 26.6564C85.8176 33.1519 91.952 43.8123 93.1453 54.9293C93.253 55.9322 93.3887 56.8008 93.4471 56.8592C93.5055 56.9174 94.8906 56.8888 96.5251 56.7956L99.4971 56.626L99.43 55.487C99.3931 54.8605 99.2266 53.416 99.06 52.2769C97.2971 40.2228 90.4333 28.855 80.5727 21.6584C78.3595 20.0433 78.6779 19.9598 76.9639 22.6037ZM12.3975 65.7364C10.3253 66.2051 8.7519 66.8574 7.13895 67.9172C-3.85093 75.1363 -1.75432 91.4988 10.6942 95.6613C17.2516 97.8541 24.4443 95.4043 28.3552 89.646C34.37 80.7904 29.8468 68.8875 19.3364 65.9127C17.7643 65.4678 14.0075 65.3723 12.3975 65.7364ZM88.519 65.5575C86.3803 65.9785 85.7101 66.1632 84.4785 66.6711C77.7257 69.4551 73.8073 76.8464 75.279 84.0239C77.1497 93.1467 86.5336 98.5916 95.3211 95.6532C105.062 92.3961 109.028 81.0963 103.455 72.4813C101.212 69.0154 97.6482 66.5951 93.5507 65.7551C92.0921 65.4562 89.5424 65.356 88.519 65.5575ZM17.4103 71.872C21.1142 72.6519 24.0054 75.6878 24.656 79.4807C25.318 83.341 23.3677 87.2805 19.8895 89.108C16.143 91.0765 11.9391 90.4519 8.97892 87.487C5.25673 83.7588 5.2559 78.1498 8.97685 74.4359C11.3141 72.1031 14.2577 71.2082 17.4103 71.872ZM92.3926 71.872C94.1385 72.2396 95.6674 73.0871 97.0144 74.4338C100.705 78.1244 100.705 83.7965 97.0144 87.487C91.8913 92.6092 83.3371 90.2352 81.4555 83.1689C80.6363 80.0931 81.5751 76.8219 83.9612 74.4359C86.2764 72.1213 89.263 71.213 92.3926 71.872ZM33.3933 98.2059C31.8028 101.38 31.6555 100.986 34.9541 102.375C46.63 107.289 60.006 107.203 71.5879 102.139C72.7568 101.628 73.7616 101.132 73.8208 101.036C73.8803 100.94 73.3218 99.6507 72.5803 98.1709L71.2318 95.4805L69.6676 96.2033C59.4996 100.9 47.2201 100.967 36.7804 96.3818L34.7538 95.4917L33.3933 98.2059Z" fill="white"/>
<path fill-rule="evenodd" clip-rule="evenodd" d="M49.7869 0.327853C42.6864 1.8488 37.4606 8.2882 37.4606 15.5164C37.4606 22.7857 42.7527 29.2367 49.9321 30.7193C55.029 31.772 60.2592 30.1695 63.9573 26.4222C66.81 23.5317 68.1907 20.439 68.4585 16.3407C69.0333 7.54574 61.7366 -0.0921481 52.849 0.000840297C51.9612 0.00995275 50.5833 0.157202 49.7869 0.327853ZM54.9014 6.42781C56.6958 6.80515 58.181 7.62341 59.5294 8.97785C64.8714 14.3434 61.9593 23.3834 54.4756 24.6666C51.5366 25.1705 48.6361 24.2232 46.4618 22.0492C42.7829 18.3711 42.7804 12.6437 46.456 8.98261C48.7564 6.69124 51.7901 5.77337 54.9014 6.42781ZM25.6973 21.4706C16.8902 27.7845 10.3657 37.4538 7.76263 48.0496C6.90738 51.5309 6.27541 56.5047 6.67311 56.6246C6.80257 56.6635 8.18539 56.7517 9.74614 56.8207L12.5841 56.9462L12.6814 56.2684C12.7351 55.8956 12.9306 54.4873 13.116 53.1391C13.7569 48.4776 15.5587 43.3303 18.0412 39.068C21.0734 33.8625 24.6885 29.9332 30.2778 25.768L30.8338 25.3538L29.178 22.8168C28.2672 21.4215 27.4853 20.2798 27.4403 20.2798C27.3952 20.2798 26.611 20.8158 25.6973 21.4706ZM76.9639 22.6037C76.131 23.8885 75.3851 25.0458 75.3062 25.1756C75.2185 25.3198 75.8294 25.8959 76.8762 26.6564C85.8176 33.1519 91.952 43.8123 93.1453 54.9293C93.253 55.9322 93.3887 56.8008 93.4471 56.8592C93.5055 56.9174 94.8906 56.8888 96.5251 56.7956L99.4971 56.626L99.43 55.487C99.3931 54.8605 99.2266 53.416 99.06 52.2769C97.2971 40.2228 90.4333 28.855 80.5727 21.6584C78.3595 20.0433 78.6779 19.9598 76.9639 22.6037ZM12.3975 65.7364C10.3253 66.2051 8.7519 66.8574 7.13895 67.9172C-3.85093 75.1363 -1.75432 91.4988 10.6942 95.6613C17.2516 97.8541 24.4443 95.4043 28.3552 89.646C34.37 80.7904 29.8468 68.8875 19.3364 65.9127C17.7643 65.4678 14.0075 65.3723 12.3975 65.7364ZM88.519 65.5575C86.3803 65.9785 85.7101 66.1632 84.4785 66.6711C77.7257 69.4551 73.8073 76.8464 75.279 84.0239C77.1497 93.1467 86.5336 98.5916 95.3211 95.6532C105.062 92.3961 109.028 81.0963 103.455 72.4813C101.212 69.0154 97.6482 66.5951 93.5507 65.7551C92.0921 65.4562 89.5424 65.356 88.519 65.5575ZM17.4103 71.872C21.1142 72.6519 24.0054 75.6878 24.656 79.4807C25.318 83.341 23.3677 87.2805 19.8895 89.108C16.143 91.0765 11.9391 90.4519 8.97892 87.487C5.25673 83.7588 5.2559 78.1498 8.97685 74.4359C11.3141 72.1031 14.2577 71.2082 17.4103 71.872ZM92.3926 71.872C94.1385 72.2396 95.6674 73.0871 97.0144 74.4338C100.705 78.1244 100.705 83.7965 97.0144 87.487C91.8913 92.6092 83.3371 90.2352 81.4555 83.1689C80.6363 80.0931 81.5751 76.8219 83.9612 74.4359C86.2764 72.1213 89.263 71.213 92.3926 71.872ZM33.3933 98.2059C31.8028 101.38 31.6555 100.986 34.9541 102.375C46.63 107.289 60.006 107.203 71.5879 102.139C72.7568 101.628 73.7616 101.132 73.8208 101.036C73.8803 100.94 73.3218 99.6507 72.5803 98.1709L71.2318 95.4805L69.6676 96.2033C59.4996 100.9 47.2201 100.967 36.7804 96.3818L34.7538 95.4917L33.3933 98.2059Z" fill="url(#paint0_linear_251_389)"/>
<defs>
<linearGradient id="paint0_linear_251_389" x1="101.289" y1="-24.2286" x2="34.5409" y2="78.6109" gradientUnits="userSpaceOnUse">
<stop stop-color="#111631"/>
<stop offset="0.34375" stop-color="#317296"/>
<stop offset="0.750436" stop-color="#085788"/>
<stop offset="1" stop-color="#085788"/>
</linearGradient>
</defs>
</svg>
