<svg width="95" height="102" viewBox="0 0 95 102" fill="none" xmlns="http://www.w3.org/2000/svg">
<rect x="25.7683" y="21.4736" width="10.7368" height="40.8" rx="2" fill="white"/>
<rect x="25.7683" y="21.4736" width="10.7368" height="40.8" rx="2" fill="#B8B8B8"/>
<rect x="25.7683" y="21.4736" width="10.7368" height="40.8" rx="2" fill="url(#paint0_linear_251_463)"/>
<rect x="41.8738" y="10.7368" width="10.7368" height="45.0947" rx="2" fill="white"/>
<rect x="41.8738" y="10.7368" width="10.7368" height="45.0947" rx="2" fill="#B8B8B8"/>
<rect x="41.8738" y="10.7368" width="10.7368" height="45.0947" rx="2" fill="url(#paint1_linear_251_463)"/>
<rect x="57.979" width="10.7368" height="50.4632" rx="2" fill="white"/>
<rect x="57.979" width="10.7368" height="50.4632" rx="2" fill="#B8B8B8"/>
<rect x="57.979" width="10.7368" height="50.4632" rx="2" fill="url(#paint2_linear_251_463)"/>
<path fill-rule="evenodd" clip-rule="evenodd" d="M31.8338 39.9188C23.4688 40.6295 15.5039 44.9979 10.1561 51.8082C5.64358 57.5545 0.650913 73.7856 0.0280443 84.7344C-0.365108 91.6436 3.36951 96.4571 11.6048 99.6554C15.2796 101.082 19.8566 102.02 23.055 102L24.248 101.992L26.515 99.285C27.7618 97.796 28.9063 96.4151 29.058 96.2164C29.3078 95.8895 29.174 95.8005 27.6547 95.284C23.7789 93.9662 19.9316 91.7179 17.3364 89.2537C16.4288 88.3919 15.7271 87.6478 15.777 87.6002C15.8269 87.5523 16.733 87.8978 17.7909 88.3681C21.8064 90.153 28.2553 92.3222 33.1256 93.5263C43.813 96.1683 53.3959 96.2656 62.6798 93.8261C67.1869 92.6416 72.0921 90.6197 76.4595 88.1464C77.4732 87.5724 78.3786 87.1027 78.4717 87.1027C78.8161 87.1027 76.0102 89.6754 74.4106 90.8263C72.4816 92.2141 68.8305 94.0428 66.295 94.8909C65.3157 95.2184 64.514 95.5544 64.5138 95.6374C64.5134 95.7204 65.5091 96.9653 66.7261 98.404C67.9432 99.8429 69.0578 101.163 69.2029 101.338C69.4219 101.602 69.8433 101.636 71.6858 101.536C78.6042 101.16 86.7009 98.1388 90.3716 94.5634C93.747 91.2755 94.9586 87.4617 94.3208 82.1315C92.927 70.4814 88.6267 57.4319 84.3601 51.9053C79.4299 45.5185 72.4913 41.4778 64.2973 40.2214C61.238 39.7524 60.6052 39.7921 59.9011 40.4966L59.3102 41.0878L60.3465 41.3556C64.0052 42.3012 70.8563 45.1349 74.2865 47.1216C76.0707 48.1549 79.1945 50.2556 78.9467 50.2556C78.875 50.2556 78.0513 49.9197 77.1163 49.509C70.2537 46.495 62.8646 44.4746 55.1216 43.4952C51.559 43.0444 41.752 42.9817 38.3894 43.3878C30.66 44.3216 23.3149 46.1867 17.3859 48.7213C14.2741 50.0513 14.4769 49.9847 14.8389 49.5582C15.388 48.9116 19.6224 46.3182 21.9625 45.1954C23.2195 44.5924 25.3653 43.6735 26.7309 43.1537C29.1522 42.2321 34.201 40.7334 34.8845 40.7334C35.152 40.7334 35.1164 40.6212 34.7191 40.2159C34.4402 39.9312 34.1075 39.7114 33.9799 39.7271C33.8521 39.7431 32.8864 39.8292 31.8338 39.9188ZM33.9721 67.3444C37.3486 68.1873 39.6857 70.6401 40.3228 74.0096C41.331 79.3416 36.119 84.4503 30.7593 83.3834C25.5482 82.3461 22.6143 77.0286 24.56 72.1471C25.6315 69.4592 29.0269 67.1391 32.029 67.0438C32.39 67.0324 33.2644 67.1676 33.9721 67.3444ZM65.0847 67.835C66.9867 68.6885 68.2528 69.8895 69.2122 71.7511C69.9765 73.2335 70.0182 73.4186 70.0102 75.2926C69.9996 77.7761 69.4752 79.168 67.946 80.7723C66.6452 82.1368 65.4115 82.8566 63.6174 83.2973C58.1625 84.6371 52.6828 79.5133 53.6925 74.0168C54.144 71.5599 55.5588 69.5165 57.634 68.3246C60.1255 66.8938 62.621 66.7296 65.0847 67.835Z" fill="white"/>
<path fill-rule="evenodd" clip-rule="evenodd" d="M31.8338 39.9188C23.4688 40.6295 15.5039 44.9979 10.1561 51.8082C5.64358 57.5545 0.650913 73.7856 0.0280443 84.7344C-0.365108 91.6436 3.36951 96.4571 11.6048 99.6554C15.2796 101.082 19.8566 102.02 23.055 102L24.248 101.992L26.515 99.285C27.7618 97.796 28.9063 96.4151 29.058 96.2164C29.3078 95.8895 29.174 95.8005 27.6547 95.284C23.7789 93.9662 19.9316 91.7179 17.3364 89.2537C16.4288 88.3919 15.7271 87.6478 15.777 87.6002C15.8269 87.5523 16.733 87.8978 17.7909 88.3681C21.8064 90.153 28.2553 92.3222 33.1256 93.5263C43.813 96.1683 53.3959 96.2656 62.6798 93.8261C67.1869 92.6416 72.0921 90.6197 76.4595 88.1464C77.4732 87.5724 78.3786 87.1027 78.4717 87.1027C78.8161 87.1027 76.0102 89.6754 74.4106 90.8263C72.4816 92.2141 68.8305 94.0428 66.295 94.8909C65.3157 95.2184 64.514 95.5544 64.5138 95.6374C64.5134 95.7204 65.5091 96.9653 66.7261 98.404C67.9432 99.8429 69.0578 101.163 69.2029 101.338C69.4219 101.602 69.8433 101.636 71.6858 101.536C78.6042 101.16 86.7009 98.1388 90.3716 94.5634C93.747 91.2755 94.9586 87.4617 94.3208 82.1315C92.927 70.4814 88.6267 57.4319 84.3601 51.9053C79.4299 45.5185 72.4913 41.4778 64.2973 40.2214C61.238 39.7524 60.6052 39.7921 59.9011 40.4966L59.3102 41.0878L60.3465 41.3556C64.0052 42.3012 70.8563 45.1349 74.2865 47.1216C76.0707 48.1549 79.1945 50.2556 78.9467 50.2556C78.875 50.2556 78.0513 49.9197 77.1163 49.509C70.2537 46.495 62.8646 44.4746 55.1216 43.4952C51.559 43.0444 41.752 42.9817 38.3894 43.3878C30.66 44.3216 23.3149 46.1867 17.3859 48.7213C14.2741 50.0513 14.4769 49.9847 14.8389 49.5582C15.388 48.9116 19.6224 46.3182 21.9625 45.1954C23.2195 44.5924 25.3653 43.6735 26.7309 43.1537C29.1522 42.2321 34.201 40.7334 34.8845 40.7334C35.152 40.7334 35.1164 40.6212 34.7191 40.2159C34.4402 39.9312 34.1075 39.7114 33.9799 39.7271C33.8521 39.7431 32.8864 39.8292 31.8338 39.9188ZM33.9721 67.3444C37.3486 68.1873 39.6857 70.6401 40.3228 74.0096C41.331 79.3416 36.119 84.4503 30.7593 83.3834C25.5482 82.3461 22.6143 77.0286 24.56 72.1471C25.6315 69.4592 29.0269 67.1391 32.029 67.0438C32.39 67.0324 33.2644 67.1676 33.9721 67.3444ZM65.0847 67.835C66.9867 68.6885 68.2528 69.8895 69.2122 71.7511C69.9765 73.2335 70.0182 73.4186 70.0102 75.2926C69.9996 77.7761 69.4752 79.168 67.946 80.7723C66.6452 82.1368 65.4115 82.8566 63.6174 83.2973C58.1625 84.6371 52.6828 79.5133 53.6925 74.0168C54.144 71.5599 55.5588 69.5165 57.634 68.3246C60.1255 66.8938 62.621 66.7296 65.0847 67.835Z" fill="url(#paint3_linear_251_463)"/>
<defs>
<linearGradient id="paint0_linear_251_463" x1="36.028" y1="12.1479" x2="16.4382" y2="20.0906" gradientUnits="userSpaceOnUse">
<stop stop-color="#111631"/>
<stop offset="0.34375" stop-color="#317296"/>
<stop offset="0.750436" stop-color="#085788"/>
<stop offset="1" stop-color="#085788"/>
</linearGradient>
<linearGradient id="paint1_linear_251_463" x1="52.1334" y1="0.429445" x2="32.0288" y2="7.80457" gradientUnits="userSpaceOnUse">
<stop stop-color="#111631"/>
<stop offset="0.34375" stop-color="#317296"/>
<stop offset="0.750436" stop-color="#085788"/>
<stop offset="1" stop-color="#085788"/>
</linearGradient>
<linearGradient id="paint2_linear_251_463" x1="68.2387" y1="-11.5344" x2="47.6419" y2="-4.78257" gradientUnits="userSpaceOnUse">
<stop stop-color="#111631"/>
<stop offset="0.34375" stop-color="#317296"/>
<stop offset="0.750436" stop-color="#085788"/>
<stop offset="1" stop-color="#085788"/>
</linearGradient>
<linearGradient id="paint3_linear_251_463" x1="90.2849" y1="25.4923" x2="59.2341" y2="98.0778" gradientUnits="userSpaceOnUse">
<stop stop-color="#111631"/>
<stop offset="0.34375" stop-color="#317296"/>
<stop offset="0.750436" stop-color="#085788"/>
<stop offset="1" stop-color="#085788"/>
</linearGradient>
</defs>
</svg>
