<svg width="106" height="106" viewBox="0 0 106 106" fill="none" xmlns="http://www.w3.org/2000/svg">
<path fill-rule="evenodd" clip-rule="evenodd" d="M49.7869 0.327853C42.6864 1.8488 37.4606 8.2882 37.4606 15.5164C37.4606 22.7857 42.7527 29.2367 49.9321 30.7193C55.029 31.772 60.2592 30.1695 63.9573 26.4222C66.81 23.5317 68.1907 20.439 68.4585 16.3407C69.0333 7.54574 61.7366 -0.0921481 52.849 0.000840297C51.9612 0.00995275 50.5833 0.157202 49.7869 0.327853ZM54.9014 6.42781C56.6958 6.80515 58.181 7.62341 59.5294 8.97785C64.8714 14.3434 61.9593 23.3834 54.4756 24.6666C51.5366 25.1705 48.6361 24.2232 46.4618 22.0492C42.7829 18.3711 42.7804 12.6437 46.456 8.98261C48.7564 6.69124 51.7901 5.77337 54.9014 6.42781ZM25.6973 21.4706C16.8902 27.7845 10.3657 37.4538 7.76263 48.0496C6.90738 51.5309 6.27541 56.5047 6.67311 56.6246C6.80257 56.6635 8.18539 56.7517 9.74614 56.8207L12.5841 56.9462L12.6814 56.2684C12.7351 55.8956 12.9306 54.4873 13.116 53.1391C13.7569 48.4776 15.5587 43.3303 18.0412 39.068C21.0734 33.8625 24.6885 29.9332 30.2778 25.768L30.8338 25.3538L29.178 22.8168C28.2672 21.4215 27.4853 20.2798 27.4403 20.2798C27.3952 20.2798 26.611 20.8158 25.6973 21.4706ZM76.9639 22.6037C76.131 23.8885 75.3851 25.0458 75.3062 25.1756C75.2185 25.3198 75.8294 25.8959 76.8762 26.6564C85.8176 33.1519 91.952 43.8123 93.1453 54.9293C93.253 55.9322 93.3887 56.8008 93.4471 56.8592C93.5055 56.9174 94.8906 56.8888 96.5251 56.7956L99.4971 56.626L99.43 55.487C99.3931 54.8605 99.2266 53.416 99.06 52.2769C97.2971 40.2228 90.4333 28.855 80.5727 21.6584C78.3595 20.0433 78.6779 19.9598 76.9639 22.6037ZM12.3975 65.7364C10.3253 66.2051 8.7519 66.8574 7.13895 67.9172C-3.85093 75.1363 -1.75432 91.4988 10.6942 95.6613C17.2516 97.8541 24.4443 95.4043 28.3552 89.646C34.37 80.7904 29.8468 68.8875 19.3364 65.9127C17.7643 65.4678 14.0075 65.3723 12.3975 65.7364ZM88.519 65.5575C86.3803 65.9785 85.7101 66.1632 84.4785 66.6711C77.7257 69.4551 73.8073 76.8464 75.279 84.0239C77.1497 93.1467 86.5336 98.5916 95.3211 95.6532C105.062 92.3961 109.028 81.0963 103.455 72.4813C101.212 69.0154 97.6482 66.5951 93.5507 65.7551C92.0921 65.4562 89.5424 65.356 88.519 65.5575ZM17.4103 71.872C21.1142 72.6519 24.0054 75.6878 24.656 79.4807C25.318 83.341 23.3677 87.2805 19.8895 89.108C16.143 91.0765 11.9391 90.4519 8.97892 87.487C5.25673 83.7588 5.2559 78.1498 8.97685 74.4359C11.3141 72.1031 14.2577 71.2082 17.4103 71.872ZM92.3926 71.872C94.1385 72.2396 95.6674 73.0871 97.0144 74.4338C100.705 78.1244 100.705 83.7965 97.0144 87.487C91.8913 92.6092 83.3371 90.2352 81.4555 83.1689C80.6363 80.0931 81.5751 76.8219 83.9612 74.4359C86.2764 72.1213 89.263 71.213 92.3926 71.872ZM33.3933 98.2059C31.8028 101.38 31.6555 100.986 34.9541 102.375C46.63 107.289 60.006 107.203 71.5879 102.139C72.7568 101.628 73.7616 101.132 73.8208 101.036C73.8803 100.94 73.3218 99.6507 72.5803 98.1709L71.2318 95.4805L69.6676 96.2033C59.4996 100.9 47.2201 100.967 36.7804 96.3818L34.7538 95.4917L33.3933 98.2059Z" fill="white"/>
<path fill-rule="evenodd" clip-rule="evenodd" d="M49.7869 0.327853C42.6864 1.8488 37.4606 8.2882 37.4606 15.5164C37.4606 22.7857 42.7527 29.2367 49.9321 30.7193C55.029 31.772 60.2592 30.1695 63.9573 26.4222C66.81 23.5317 68.1907 20.439 68.4585 16.3407C69.0333 7.54574 61.7366 -0.0921481 52.849 0.000840297C51.9612 0.00995275 50.5833 0.157202 49.7869 0.327853ZM54.9014 6.42781C56.6958 6.80515 58.181 7.62341 59.5294 8.97785C64.8714 14.3434 61.9593 23.3834 54.4756 24.6666C51.5366 25.1705 48.6361 24.2232 46.4618 22.0492C42.7829 18.3711 42.7804 12.6437 46.456 8.98261C48.7564 6.69124 51.7901 5.77337 54.9014 6.42781ZM25.6973 21.4706C16.8902 27.7845 10.3657 37.4538 7.76263 48.0496C6.90738 51.5309 6.27541 56.5047 6.67311 56.6246C6.80257 56.6635 8.18539 56.7517 9.74614 56.8207L12.5841 56.9462L12.6814 56.2684C12.7351 55.8956 12.9306 54.4873 13.116 53.1391C13.7569 48.4776 15.5587 43.3303 18.0412 39.068C21.0734 33.8625 24.6885 29.9332 30.2778 25.768L30.8338 25.3538L29.178 22.8168C28.2672 21.4215 27.4853 20.2798 27.4403 20.2798C27.3952 20.2798 26.611 20.8158 25.6973 21.4706ZM76.9639 22.6037C76.131 23.8885 75.3851 25.0458 75.3062 25.1756C75.2185 25.3198 75.8294 25.8959 76.8762 26.6564C85.8176 33.1519 91.952 43.8123 93.1453 54.9293C93.253 55.9322 93.3887 56.8008 93.4471 56.8592C93.5055 56.9174 94.8906 56.8888 96.5251 56.7956L99.4971 56.626L99.43 55.487C99.3931 54.8605 99.2266 53.416 99.06 52.2769C97.2971 40.2228 90.4333 28.855 80.5727 21.6584C78.3595 20.0433 78.6779 19.9598 76.9639 22.6037ZM12.3975 65.7364C10.3253 66.2051 8.7519 66.8574 7.13895 67.9172C-3.85093 75.1363 -1.75432 91.4988 10.6942 95.6613C17.2516 97.8541 24.4443 95.4043 28.3552 89.646C34.37 80.7904 29.8468 68.8875 19.3364 65.9127C17.7643 65.4678 14.0075 65.3723 12.3975 65.7364ZM88.519 65.5575C86.3803 65.9785 85.7101 66.1632 84.4785 66.6711C77.7257 69.4551 73.8073 76.8464 75.279 84.0239C77.1497 93.1467 86.5336 98.5916 95.3211 95.6532C105.062 92.3961 109.028 81.0963 103.455 72.4813C101.212 69.0154 97.6482 66.5951 93.5507 65.7551C92.0921 65.4562 89.5424 65.356 88.519 65.5575ZM17.4103 71.872C21.1142 72.6519 24.0054 75.6878 24.656 79.4807C25.318 83.341 23.3677 87.2805 19.8895 89.108C16.143 91.0765 11.9391 90.4519 8.97892 87.487C5.25673 83.7588 5.2559 78.1498 8.97685 74.4359C11.3141 72.1031 14.2577 71.2082 17.4103 71.872ZM92.3926 71.872C94.1385 72.2396 95.6674 73.0871 97.0144 74.4338C100.705 78.1244 100.705 83.7965 97.0144 87.487C91.8913 92.6092 83.3371 90.2352 81.4555 83.1689C80.6363 80.0931 81.5751 76.8219 83.9612 74.4359C86.2764 72.1213 89.263 71.213 92.3926 71.872ZM33.3933 98.2059C31.8028 101.38 31.6555 100.986 34.9541 102.375C46.63 107.289 60.006 107.203 71.5879 102.139C72.7568 101.628 73.7616 101.132 73.8208 101.036C73.8803 100.94 73.3218 99.6507 72.5803 98.1709L71.2318 95.4805L69.6676 96.2033C59.4996 100.9 47.2201 100.967 36.7804 96.3818L34.7538 95.4917L33.3933 98.2059Z" fill="url(#paint0_linear_332_244)"/>
<path fill-rule="evenodd" clip-rule="evenodd" d="M61.7115 46.104C58.83 46.6003 56.5542 48.6084 55.7922 51.3272C55.6609 51.7955 55.634 52.0734 55.6301 52.9999C55.6276 53.6111 55.6501 54.2424 55.6802 54.4028L55.735 54.6946L55.2564 54.6528C52.1453 54.3812 49.627 53.7004 47.1207 52.4535C44.8061 51.3019 42.3944 49.4937 40.9156 47.8013C40.6946 47.5484 40.4822 47.3515 40.4435 47.3639C40.4048 47.3761 40.2516 47.6483 40.1029 47.9688C39.0882 50.1553 39.2776 52.6832 40.6032 54.6464C40.9912 55.2211 41.6232 55.9001 42.1368 56.2939L42.6713 56.7037H42.3815C41.7618 56.7037 40.4658 56.3703 39.77 56.0319C39.6158 55.957 39.4638 55.8956 39.4322 55.8956C39.3324 55.8956 39.4645 57.13 39.6274 57.7202C40.2688 60.0451 42.079 61.8836 44.4831 62.6519C44.8821 62.7795 45.1634 62.9003 45.1082 62.9205C44.7895 63.037 43.7423 63.1158 42.929 63.0844L42.0158 63.049L42.0614 63.222C42.1389 63.5169 42.6604 64.4612 42.9849 64.8948C44.2335 66.5628 46.2718 67.7085 48.2612 67.8605C48.5623 67.8835 48.8086 67.9254 48.8086 67.9535C48.8086 68.0674 47.2251 69.003 46.2567 69.4614C44.0519 70.5048 41.8733 70.9563 39.3078 70.9012L38 70.8731L38.3711 71.0953C38.9117 71.4188 40.5493 72.2071 41.2854 72.498C45.2474 74.0641 49.873 74.4206 54.2394 73.4965C60.665 72.1366 65.9511 67.8833 68.6209 61.9246C69.7625 59.3768 70.3351 56.8747 70.3937 54.1784L70.42 52.9663L70.9315 52.5744C71.5855 52.0733 72.3204 51.4054 72.8737 50.8093C73.3467 50.2997 74.0393 49.4197 73.9983 49.3805C73.9842 49.3672 73.7704 49.435 73.5233 49.5313C72.5876 49.8958 70.4164 50.4209 70.092 50.3613C70.0118 50.3466 70.0698 50.2808 70.2796 50.1483C70.8128 49.8119 71.7652 48.8816 72.1699 48.3019C72.5213 47.7984 73.0354 46.8115 73.0376 46.6359C73.0381 46.5987 72.6049 46.7709 72.0749 47.0183C71.1171 47.4657 69.8676 47.8967 68.8883 48.1177L68.3762 48.2332L67.9479 47.8552C66.2942 46.3956 63.9081 45.7256 61.7115 46.104Z" fill="#828282"/>
<path fill-rule="evenodd" clip-rule="evenodd" d="M61.7115 46.104C58.83 46.6003 56.5542 48.6084 55.7922 51.3272C55.6609 51.7955 55.634 52.0734 55.6301 52.9999C55.6276 53.6111 55.6501 54.2424 55.6802 54.4028L55.735 54.6946L55.2564 54.6528C52.1453 54.3812 49.627 53.7004 47.1207 52.4535C44.8061 51.3019 42.3944 49.4937 40.9156 47.8013C40.6946 47.5484 40.4822 47.3515 40.4435 47.3639C40.4048 47.3761 40.2516 47.6483 40.1029 47.9688C39.0882 50.1553 39.2776 52.6832 40.6032 54.6464C40.9912 55.2211 41.6232 55.9001 42.1368 56.2939L42.6713 56.7037H42.3815C41.7618 56.7037 40.4658 56.3703 39.77 56.0319C39.6158 55.957 39.4638 55.8956 39.4322 55.8956C39.3324 55.8956 39.4645 57.13 39.6274 57.7202C40.2688 60.0451 42.079 61.8836 44.4831 62.6519C44.8821 62.7795 45.1634 62.9003 45.1082 62.9205C44.7895 63.037 43.7423 63.1158 42.929 63.0844L42.0158 63.049L42.0614 63.222C42.1389 63.5169 42.6604 64.4612 42.9849 64.8948C44.2335 66.5628 46.2718 67.7085 48.2612 67.8605C48.5623 67.8835 48.8086 67.9254 48.8086 67.9535C48.8086 68.0674 47.2251 69.003 46.2567 69.4614C44.0519 70.5048 41.8733 70.9563 39.3078 70.9012L38 70.8731L38.3711 71.0953C38.9117 71.4188 40.5493 72.2071 41.2854 72.498C45.2474 74.0641 49.873 74.4206 54.2394 73.4965C60.665 72.1366 65.9511 67.8833 68.6209 61.9246C69.7625 59.3768 70.3351 56.8747 70.3937 54.1784L70.42 52.9663L70.9315 52.5744C71.5855 52.0733 72.3204 51.4054 72.8737 50.8093C73.3467 50.2997 74.0393 49.4197 73.9983 49.3805C73.9842 49.3672 73.7704 49.435 73.5233 49.5313C72.5876 49.8958 70.4164 50.4209 70.092 50.3613C70.0118 50.3466 70.0698 50.2808 70.2796 50.1483C70.8128 49.8119 71.7652 48.8816 72.1699 48.3019C72.5213 47.7984 73.0354 46.8115 73.0376 46.6359C73.0381 46.5987 72.6049 46.7709 72.0749 47.0183C71.1171 47.4657 69.8676 47.8967 68.8883 48.1177L68.3762 48.2332L67.9479 47.8552C66.2942 46.3956 63.9081 45.7256 61.7115 46.104Z" fill="url(#paint1_linear_332_244)"/>
<path fill-rule="evenodd" clip-rule="evenodd" d="M61.7115 46.104C58.83 46.6003 56.5542 48.6084 55.7922 51.3272C55.6609 51.7955 55.634 52.0734 55.6301 52.9999C55.6276 53.6111 55.6501 54.2424 55.6802 54.4028L55.735 54.6946L55.2564 54.6528C52.1453 54.3812 49.627 53.7004 47.1207 52.4535C44.8061 51.3019 42.3944 49.4937 40.9156 47.8013C40.6946 47.5484 40.4822 47.3515 40.4435 47.3639C40.4048 47.3761 40.2516 47.6483 40.1029 47.9688C39.0882 50.1553 39.2776 52.6832 40.6032 54.6464C40.9912 55.2211 41.6232 55.9001 42.1368 56.2939L42.6713 56.7037H42.3815C41.7618 56.7037 40.4658 56.3703 39.77 56.0319C39.6158 55.957 39.4638 55.8956 39.4322 55.8956C39.3324 55.8956 39.4645 57.13 39.6274 57.7202C40.2688 60.0451 42.079 61.8836 44.4831 62.6519C44.8821 62.7795 45.1634 62.9003 45.1082 62.9205C44.7895 63.037 43.7423 63.1158 42.929 63.0844L42.0158 63.049L42.0614 63.222C42.1389 63.5169 42.6604 64.4612 42.9849 64.8948C44.2335 66.5628 46.2718 67.7085 48.2612 67.8605C48.5623 67.8835 48.8086 67.9254 48.8086 67.9535C48.8086 68.0674 47.2251 69.003 46.2567 69.4614C44.0519 70.5048 41.8733 70.9563 39.3078 70.9012L38 70.8731L38.3711 71.0953C38.9117 71.4188 40.5493 72.2071 41.2854 72.498C45.2474 74.0641 49.873 74.4206 54.2394 73.4965C60.665 72.1366 65.9511 67.8833 68.6209 61.9246C69.7625 59.3768 70.3351 56.8747 70.3937 54.1784L70.42 52.9663L70.9315 52.5744C71.5855 52.0733 72.3204 51.4054 72.8737 50.8093C73.3467 50.2997 74.0393 49.4197 73.9983 49.3805C73.9842 49.3672 73.7704 49.435 73.5233 49.5313C72.5876 49.8958 70.4164 50.4209 70.092 50.3613C70.0118 50.3466 70.0698 50.2808 70.2796 50.1483C70.8128 49.8119 71.7652 48.8816 72.1699 48.3019C72.5213 47.7984 73.0354 46.8115 73.0376 46.6359C73.0381 46.5987 72.6049 46.7709 72.0749 47.0183C71.1171 47.4657 69.8676 47.8967 68.8883 48.1177L68.3762 48.2332L67.9479 47.8552C66.2942 46.3956 63.9081 45.7256 61.7115 46.104Z" fill="#B8B8B8"/>
<path fill-rule="evenodd" clip-rule="evenodd" d="M61.7115 46.104C58.83 46.6003 56.5542 48.6084 55.7922 51.3272C55.6609 51.7955 55.634 52.0734 55.6301 52.9999C55.6276 53.6111 55.6501 54.2424 55.6802 54.4028L55.735 54.6946L55.2564 54.6528C52.1453 54.3812 49.627 53.7004 47.1207 52.4535C44.8061 51.3019 42.3944 49.4937 40.9156 47.8013C40.6946 47.5484 40.4822 47.3515 40.4435 47.3639C40.4048 47.3761 40.2516 47.6483 40.1029 47.9688C39.0882 50.1553 39.2776 52.6832 40.6032 54.6464C40.9912 55.2211 41.6232 55.9001 42.1368 56.2939L42.6713 56.7037H42.3815C41.7618 56.7037 40.4658 56.3703 39.77 56.0319C39.6158 55.957 39.4638 55.8956 39.4322 55.8956C39.3324 55.8956 39.4645 57.13 39.6274 57.7202C40.2688 60.0451 42.079 61.8836 44.4831 62.6519C44.8821 62.7795 45.1634 62.9003 45.1082 62.9205C44.7895 63.037 43.7423 63.1158 42.929 63.0844L42.0158 63.049L42.0614 63.222C42.1389 63.5169 42.6604 64.4612 42.9849 64.8948C44.2335 66.5628 46.2718 67.7085 48.2612 67.8605C48.5623 67.8835 48.8086 67.9254 48.8086 67.9535C48.8086 68.0674 47.2251 69.003 46.2567 69.4614C44.0519 70.5048 41.8733 70.9563 39.3078 70.9012L38 70.8731L38.3711 71.0953C38.9117 71.4188 40.5493 72.2071 41.2854 72.498C45.2474 74.0641 49.873 74.4206 54.2394 73.4965C60.665 72.1366 65.9511 67.8833 68.6209 61.9246C69.7625 59.3768 70.3351 56.8747 70.3937 54.1784L70.42 52.9663L70.9315 52.5744C71.5855 52.0733 72.3204 51.4054 72.8737 50.8093C73.3467 50.2997 74.0393 49.4197 73.9983 49.3805C73.9842 49.3672 73.7704 49.435 73.5233 49.5313C72.5876 49.8958 70.4164 50.4209 70.092 50.3613C70.0118 50.3466 70.0698 50.2808 70.2796 50.1483C70.8128 49.8119 71.7652 48.8816 72.1699 48.3019C72.5213 47.7984 73.0354 46.8115 73.0376 46.6359C73.0381 46.5987 72.6049 46.7709 72.0749 47.0183C71.1171 47.4657 69.8676 47.8967 68.8883 48.1177L68.3762 48.2332L67.9479 47.8552C66.2942 46.3956 63.9081 45.7256 61.7115 46.104Z" fill="url(#paint2_linear_332_244)"/>
<defs>
<linearGradient id="paint0_linear_332_244" x1="101.289" y1="-24.2286" x2="34.5409" y2="78.6109" gradientUnits="userSpaceOnUse">
<stop stop-color="#111631"/>
<stop offset="0.34375" stop-color="#317296"/>
<stop offset="0.750436" stop-color="#085788"/>
<stop offset="1" stop-color="#085788"/>
</linearGradient>
<linearGradient id="paint1_linear_332_244" x1="56" y1="46" x2="56" y2="74" gradientUnits="userSpaceOnUse">
<stop stop-color="#FFD84D"/>
<stop offset="1" stop-color="#FFB800"/>
</linearGradient>
<linearGradient id="paint2_linear_332_244" x1="72.4" y1="39.6" x2="56.8678" y2="70.368" gradientUnits="userSpaceOnUse">
<stop stop-color="#111631"/>
<stop offset="0.34375" stop-color="#317296"/>
<stop offset="0.750436" stop-color="#085788"/>
<stop offset="1" stop-color="#085788"/>
</linearGradient>
</defs>
</svg>
