<svg width="108" height="72" viewBox="0 0 108 72" fill="none" xmlns="http://www.w3.org/2000/svg">
<path fill-rule="evenodd" clip-rule="evenodd" d="M51.4644 0.533729C50.0176 1.19848 49.0539 2.0964 48.335 3.44935C47.8712 4.32216 47.7778 4.77384 47.7727 6.17032C47.7666 7.8613 48.0413 8.74227 49.0524 10.2742L49.4125 10.8196L42.3134 20.1387C38.1125 25.6533 34.7639 29.848 34.111 30.4137C30.4269 33.6061 24.7144 34.0339 20.7043 31.418C20.0154 30.9686 17.4214 28.5786 14.9401 26.1071L10.4287 21.6131L11.1689 20.6524C13.6611 17.4184 12.68 12.8629 9.09771 11.0354C7.91165 10.4303 5.57123 10.3016 4.16563 10.7639C2.72621 11.2376 1.1541 12.6621 0.522299 14.0655C-0.171839 15.6069 -0.174375 17.9034 0.516382 19.3013C1.11374 20.51 2.41813 21.8385 3.4624 22.3011L4.23768 22.6445L7.72422 36.569C9.64182 44.2273 11.373 50.7589 11.5712 51.0837C12.3901 52.4245 9.11377 52.3328 54.0474 52.2723C92.6669 52.2204 94.9249 52.1974 95.5725 51.8468C95.9491 51.643 96.4129 51.2407 96.6033 50.9529C96.7939 50.6651 98.5325 44.1578 100.467 36.4924L103.985 22.5552L104.68 22.1996C105.718 21.6677 106.938 20.4052 107.487 19.2954C108.174 17.9036 108.171 15.6039 107.478 14.0655C106.846 12.6621 105.274 11.2376 103.835 10.7639C102.429 10.3016 100.089 10.4303 98.9025 11.0354C95.2389 12.9043 94.3003 17.7445 96.9963 20.8646L97.7281 21.7115L92.927 26.3957C87.8588 31.3405 86.9563 32.0105 84.363 32.7519C82.8963 33.1713 80.2525 33.2184 78.6899 32.8534C77.1978 32.5047 75.0396 31.4134 73.8776 30.4202C73.3629 29.9803 69.7271 25.3576 65.7983 20.1477L58.6552 10.675L59.2574 9.73437C60.0863 8.43982 60.4187 7.12978 60.2862 5.68118C59.9912 2.45997 57.2694 0 54.0001 0C52.9723 0 52.3342 0.134375 51.4644 0.533729ZM13.645 59.1773C13.2406 59.3785 12.6888 59.8703 12.419 60.2703C11.9372 60.9847 11.9296 61.0797 11.9922 65.657L12.056 70.3163L12.852 71.1042L13.6477 71.8922L53.9699 71.9462L94.2922 72L95.0126 71.5234C96.3379 70.6462 96.4718 70.0941 96.4721 65.5004C96.4725 61.6708 96.4423 61.3526 95.997 60.4926C95.7016 59.922 95.2427 59.4295 94.7854 59.1924C94.0803 58.8267 92.3582 58.8106 54.2148 58.811C16.7123 58.8112 14.3372 58.8326 13.645 59.1773Z" fill="white"/>
<path fill-rule="evenodd" clip-rule="evenodd" d="M51.4644 0.533729C50.0176 1.19848 49.0539 2.0964 48.335 3.44935C47.8712 4.32216 47.7778 4.77384 47.7727 6.17032C47.7666 7.8613 48.0413 8.74227 49.0524 10.2742L49.4125 10.8196L42.3134 20.1387C38.1125 25.6533 34.7639 29.848 34.111 30.4137C30.4269 33.6061 24.7144 34.0339 20.7043 31.418C20.0154 30.9686 17.4214 28.5786 14.9401 26.1071L10.4287 21.6131L11.1689 20.6524C13.6611 17.4184 12.68 12.8629 9.09771 11.0354C7.91165 10.4303 5.57123 10.3016 4.16563 10.7639C2.72621 11.2376 1.1541 12.6621 0.522299 14.0655C-0.171839 15.6069 -0.174375 17.9034 0.516382 19.3013C1.11374 20.51 2.41813 21.8385 3.4624 22.3011L4.23768 22.6445L7.72422 36.569C9.64182 44.2273 11.373 50.7589 11.5712 51.0837C12.3901 52.4245 9.11377 52.3328 54.0474 52.2723C92.6669 52.2204 94.9249 52.1974 95.5725 51.8468C95.9491 51.643 96.4129 51.2407 96.6033 50.9529C96.7939 50.6651 98.5325 44.1578 100.467 36.4924L103.985 22.5552L104.68 22.1996C105.718 21.6677 106.938 20.4052 107.487 19.2954C108.174 17.9036 108.171 15.6039 107.478 14.0655C106.846 12.6621 105.274 11.2376 103.835 10.7639C102.429 10.3016 100.089 10.4303 98.9025 11.0354C95.2389 12.9043 94.3003 17.7445 96.9963 20.8646L97.7281 21.7115L92.927 26.3957C87.8588 31.3405 86.9563 32.0105 84.363 32.7519C82.8963 33.1713 80.2525 33.2184 78.6899 32.8534C77.1978 32.5047 75.0396 31.4134 73.8776 30.4202C73.3629 29.9803 69.7271 25.3576 65.7983 20.1477L58.6552 10.675L59.2574 9.73437C60.0863 8.43982 60.4187 7.12978 60.2862 5.68118C59.9912 2.45997 57.2694 0 54.0001 0C52.9723 0 52.3342 0.134375 51.4644 0.533729ZM13.645 59.1773C13.2406 59.3785 12.6888 59.8703 12.419 60.2703C11.9372 60.9847 11.9296 61.0797 11.9922 65.657L12.056 70.3163L12.852 71.1042L13.6477 71.8922L53.9699 71.9462L94.2922 72L95.0126 71.5234C96.3379 70.6462 96.4718 70.0941 96.4721 65.5004C96.4725 61.6708 96.4423 61.3526 95.997 60.4926C95.7016 59.922 95.2427 59.4295 94.7854 59.1924C94.0803 58.8267 92.3582 58.8106 54.2148 58.811C16.7123 58.8112 14.3372 58.8326 13.645 59.1773Z" fill="url(#paint0_linear_251_427)"/>
<mask id="mask0_251_427" style="mask-type:alpha" maskUnits="userSpaceOnUse" x="0" y="0" width="108" height="72">
<path fill-rule="evenodd" clip-rule="evenodd" d="M51.4644 0.533729C50.0176 1.19848 49.0539 2.0964 48.335 3.44935C47.8712 4.32216 47.7778 4.77384 47.7727 6.17032C47.7666 7.8613 48.0413 8.74227 49.0524 10.2742L49.4125 10.8196L42.3134 20.1387C38.1125 25.6533 34.7639 29.848 34.111 30.4137C30.4269 33.6061 24.7144 34.0339 20.7043 31.418C20.0154 30.9686 17.4214 28.5786 14.9401 26.1071L10.4287 21.6131L11.1689 20.6524C13.6611 17.4184 12.68 12.8629 9.09771 11.0354C7.91165 10.4303 5.57123 10.3016 4.16563 10.7639C2.72621 11.2376 1.1541 12.6621 0.522299 14.0655C-0.171839 15.6069 -0.174375 17.9034 0.516382 19.3013C1.11374 20.51 2.41813 21.8385 3.4624 22.3011L4.23768 22.6445L7.72422 36.569C9.64182 44.2273 11.373 50.7589 11.5712 51.0837C12.3901 52.4245 9.11377 52.3328 54.0474 52.2723C92.6669 52.2204 94.9249 52.1974 95.5725 51.8468C95.9491 51.643 96.4129 51.2407 96.6033 50.9529C96.7939 50.6651 98.5325 44.1578 100.467 36.4924L103.985 22.5552L104.68 22.1996C105.718 21.6677 106.938 20.4052 107.487 19.2954C108.174 17.9036 108.171 15.6039 107.478 14.0655C106.846 12.6621 105.274 11.2376 103.835 10.7639C102.429 10.3016 100.089 10.4303 98.9025 11.0354C95.2389 12.9043 94.3003 17.7445 96.9963 20.8646L97.7281 21.7115L92.927 26.3957C87.8588 31.3405 86.9563 32.0105 84.363 32.7519C82.8963 33.1713 80.2525 33.2184 78.6899 32.8534C77.1978 32.5047 75.0396 31.4134 73.8776 30.4202C73.3629 29.9803 69.7271 25.3576 65.7983 20.1477L58.6552 10.675L59.2574 9.73437C60.0863 8.43982 60.4187 7.12978 60.2862 5.68118C59.9912 2.45997 57.2694 0 54.0001 0C52.9723 0 52.3342 0.134375 51.4644 0.533729ZM13.645 59.1773C13.2406 59.3785 12.6888 59.8703 12.419 60.2703C11.9372 60.9847 11.9296 61.0797 11.9922 65.657L12.056 70.3163L12.852 71.1042L13.6477 71.8922L53.9699 71.9462L94.2922 72L95.0126 71.5234C96.3379 70.6462 96.4718 70.0941 96.4721 65.5004C96.4725 61.6708 96.4423 61.3526 95.997 60.4926C95.7016 59.922 95.2427 59.4295 94.7854 59.1924C94.0803 58.8267 92.3582 58.8106 54.2148 58.811C16.7123 58.8112 14.3372 58.8326 13.645 59.1773Z" fill="black"/>
<path fill-rule="evenodd" clip-rule="evenodd" d="M51.4644 0.533729C50.0176 1.19848 49.0539 2.0964 48.335 3.44935C47.8712 4.32216 47.7778 4.77384 47.7727 6.17032C47.7666 7.8613 48.0413 8.74227 49.0524 10.2742L49.4125 10.8196L42.3134 20.1387C38.1125 25.6533 34.7639 29.848 34.111 30.4137C30.4269 33.6061 24.7144 34.0339 20.7043 31.418C20.0154 30.9686 17.4214 28.5786 14.9401 26.1071L10.4287 21.6131L11.1689 20.6524C13.6611 17.4184 12.68 12.8629 9.09771 11.0354C7.91165 10.4303 5.57123 10.3016 4.16563 10.7639C2.72621 11.2376 1.1541 12.6621 0.522299 14.0655C-0.171839 15.6069 -0.174375 17.9034 0.516382 19.3013C1.11374 20.51 2.41813 21.8385 3.4624 22.3011L4.23768 22.6445L7.72422 36.569C9.64182 44.2273 11.373 50.7589 11.5712 51.0837C12.3901 52.4245 9.11377 52.3328 54.0474 52.2723C92.6669 52.2204 94.9249 52.1974 95.5725 51.8468C95.9491 51.643 96.4129 51.2407 96.6033 50.9529C96.7939 50.6651 98.5325 44.1578 100.467 36.4924L103.985 22.5552L104.68 22.1996C105.718 21.6677 106.938 20.4052 107.487 19.2954C108.174 17.9036 108.171 15.6039 107.478 14.0655C106.846 12.6621 105.274 11.2376 103.835 10.7639C102.429 10.3016 100.089 10.4303 98.9025 11.0354C95.2389 12.9043 94.3003 17.7445 96.9963 20.8646L97.7281 21.7115L92.927 26.3957C87.8588 31.3405 86.9563 32.0105 84.363 32.7519C82.8963 33.1713 80.2525 33.2184 78.6899 32.8534C77.1978 32.5047 75.0396 31.4134 73.8776 30.4202C73.3629 29.9803 69.7271 25.3576 65.7983 20.1477L58.6552 10.675L59.2574 9.73437C60.0863 8.43982 60.4187 7.12978 60.2862 5.68118C59.9912 2.45997 57.2694 0 54.0001 0C52.9723 0 52.3342 0.134375 51.4644 0.533729ZM13.645 59.1773C13.2406 59.3785 12.6888 59.8703 12.419 60.2703C11.9372 60.9847 11.9296 61.0797 11.9922 65.657L12.056 70.3163L12.852 71.1042L13.6477 71.8922L53.9699 71.9462L94.2922 72L95.0126 71.5234C96.3379 70.6462 96.4718 70.0941 96.4721 65.5004C96.4725 61.6708 96.4423 61.3526 95.997 60.4926C95.7016 59.922 95.2427 59.4295 94.7854 59.1924C94.0803 58.8267 92.3582 58.8106 54.2148 58.811C16.7123 58.8112 14.3372 58.8326 13.645 59.1773Z" fill="url(#paint1_linear_251_427)"/>
<path fill-rule="evenodd" clip-rule="evenodd" d="M51.4644 0.533729C50.0176 1.19848 49.0539 2.0964 48.335 3.44935C47.8712 4.32216 47.7778 4.77384 47.7727 6.17032C47.7666 7.8613 48.0413 8.74227 49.0524 10.2742L49.4125 10.8196L42.3134 20.1387C38.1125 25.6533 34.7639 29.848 34.111 30.4137C30.4269 33.6061 24.7144 34.0339 20.7043 31.418C20.0154 30.9686 17.4214 28.5786 14.9401 26.1071L10.4287 21.6131L11.1689 20.6524C13.6611 17.4184 12.68 12.8629 9.09771 11.0354C7.91165 10.4303 5.57123 10.3016 4.16563 10.7639C2.72621 11.2376 1.1541 12.6621 0.522299 14.0655C-0.171839 15.6069 -0.174375 17.9034 0.516382 19.3013C1.11374 20.51 2.41813 21.8385 3.4624 22.3011L4.23768 22.6445L7.72422 36.569C9.64182 44.2273 11.373 50.7589 11.5712 51.0837C12.3901 52.4245 9.11377 52.3328 54.0474 52.2723C92.6669 52.2204 94.9249 52.1974 95.5725 51.8468C95.9491 51.643 96.4129 51.2407 96.6033 50.9529C96.7939 50.6651 98.5325 44.1578 100.467 36.4924L103.985 22.5552L104.68 22.1996C105.718 21.6677 106.938 20.4052 107.487 19.2954C108.174 17.9036 108.171 15.6039 107.478 14.0655C106.846 12.6621 105.274 11.2376 103.835 10.7639C102.429 10.3016 100.089 10.4303 98.9025 11.0354C95.2389 12.9043 94.3003 17.7445 96.9963 20.8646L97.7281 21.7115L92.927 26.3957C87.8588 31.3405 86.9563 32.0105 84.363 32.7519C82.8963 33.1713 80.2525 33.2184 78.6899 32.8534C77.1978 32.5047 75.0396 31.4134 73.8776 30.4202C73.3629 29.9803 69.7271 25.3576 65.7983 20.1477L58.6552 10.675L59.2574 9.73437C60.0863 8.43982 60.4187 7.12978 60.2862 5.68118C59.9912 2.45997 57.2694 0 54.0001 0C52.9723 0 52.3342 0.134375 51.4644 0.533729ZM13.645 59.1773C13.2406 59.3785 12.6888 59.8703 12.419 60.2703C11.9372 60.9847 11.9296 61.0797 11.9922 65.657L12.056 70.3163L12.852 71.1042L13.6477 71.8922L53.9699 71.9462L94.2922 72L95.0126 71.5234C96.3379 70.6462 96.4718 70.0941 96.4721 65.5004C96.4725 61.6708 96.4423 61.3526 95.997 60.4926C95.7016 59.922 95.2427 59.4295 94.7854 59.1924C94.0803 58.8267 92.3582 58.8106 54.2148 58.811C16.7123 58.8112 14.3372 58.8326 13.645 59.1773Z" fill="url(#paint2_linear_251_427)"/>
</mask>
<g mask="url(#mask0_251_427)">
<rect x="-8" y="55" width="125" height="22" fill="white"/>
<rect x="-8" y="55" width="125" height="22" fill="#B8B8B8"/>
<rect x="-8" y="55" width="125" height="22" fill="url(#paint3_linear_251_427)"/>
</g>
<defs>
<linearGradient id="paint0_linear_251_427" x1="103.2" y1="-16.4571" x2="67.0162" y2="67.1662" gradientUnits="userSpaceOnUse">
<stop stop-color="#111631"/>
<stop offset="0.34375" stop-color="#317296"/>
<stop offset="0.750436" stop-color="#085788"/>
<stop offset="1" stop-color="#085788"/>
</linearGradient>
<linearGradient id="paint1_linear_251_427" x1="54" y1="0" x2="54" y2="72" gradientUnits="userSpaceOnUse">
<stop stop-color="#FFD84D"/>
<stop offset="1" stop-color="#FFB800"/>
</linearGradient>
<linearGradient id="paint2_linear_251_427" x1="103.2" y1="-16.4571" x2="67.0162" y2="67.1662" gradientUnits="userSpaceOnUse">
<stop stop-color="#111631"/>
<stop offset="0.34375" stop-color="#317296"/>
<stop offset="0.750436" stop-color="#085788"/>
<stop offset="1" stop-color="#085788"/>
</linearGradient>
<linearGradient id="paint3_linear_251_427" x1="111.444" y1="49.9714" x2="108.024" y2="79.9162" gradientUnits="userSpaceOnUse">
<stop stop-color="#111631"/>
<stop offset="0.34375" stop-color="#317296"/>
<stop offset="0.750436" stop-color="#085788"/>
<stop offset="1" stop-color="#085788"/>
</linearGradient>
</defs>
</svg>
