<svg width="86" height="102" viewBox="0 0 86 102" fill="none" xmlns="http://www.w3.org/2000/svg">
<rect x="45.2103" y="21.5956" width="47.3608" height="64.9834" rx="4" transform="rotate(31.0563 45.2103 21.5956)" fill="white"/>
<rect x="45.2103" y="21.5956" width="45.1579" height="62.7805" rx="4" transform="rotate(31.0563 45.2103 21.5956)" fill="white"/>
<rect x="45.2103" y="21.5956" width="45.1579" height="62.7805" rx="4" transform="rotate(31.0563 45.2103 21.5956)" fill="url(#paint0_linear_251_343)"/>
<rect x="23.0038" y="7.70996" width="47.3608" height="64.9834" rx="4" transform="rotate(14.6137 23.0038 7.70996)" fill="white"/>
<rect x="23.0038" y="7.70996" width="45.1579" height="62.7805" rx="4" transform="rotate(14.6137 23.0038 7.70996)" fill="white"/>
<rect x="23.0038" y="7.70996" width="45.1579" height="62.7805" rx="4" transform="rotate(14.6137 23.0038 7.70996)" fill="url(#paint1_linear_251_343)"/>
<rect width="47.3608" height="64.9834" rx="4" fill="white"/>
<rect width="45.1579" height="62.7805" rx="4" fill="white"/>
<rect width="45.1579" height="62.7805" rx="4" fill="url(#paint2_linear_251_343)"/>
<defs>
<linearGradient id="paint0_linear_251_343" x1="88.3612" y1="7.24574" x2="45.3051" y2="54.962" gradientUnits="userSpaceOnUse">
<stop stop-color="#111631"/>
<stop offset="0.34375" stop-color="#317296"/>
<stop offset="0.750436" stop-color="#085788"/>
<stop offset="1" stop-color="#085788"/>
</linearGradient>
<linearGradient id="paint1_linear_251_343" x1="66.1547" y1="-6.63988" x2="23.0986" y2="41.0763" gradientUnits="userSpaceOnUse">
<stop stop-color="#111631"/>
<stop offset="0.34375" stop-color="#317296"/>
<stop offset="0.750436" stop-color="#085788"/>
<stop offset="1" stop-color="#085788"/>
</linearGradient>
<linearGradient id="paint2_linear_251_343" x1="43.1509" y1="-14.3498" x2="0.0947479" y2="33.3664" gradientUnits="userSpaceOnUse">
<stop stop-color="#111631"/>
<stop offset="0.34375" stop-color="#317296"/>
<stop offset="0.750436" stop-color="#085788"/>
<stop offset="1" stop-color="#085788"/>
</linearGradient>
</defs>
</svg>
