<svg width="102" height="120" viewBox="0 0 102 120" fill="none" xmlns="http://www.w3.org/2000/svg">
<path fill-rule="evenodd" clip-rule="evenodd" d="M31.0792 20.1562C28.9164 23.9007 27.8543 28.1611 27.9917 32.5412C28.0307 33.7842 28.4994 36.7211 28.8493 37.9144C29.4912 40.1041 30.6497 42.6036 31.8588 44.4073C32.5354 45.4167 33.9373 47.0878 34.9168 48.0525C35.993 49.1126 38.674 51.0554 40.0191 51.7501C41.2238 52.3722 43.2643 53.1879 44.4437 53.5188C46.5523 54.1105 49.2643 54.4305 51.5436 54.3566C52.7217 54.3185 55.5727 53.8793 56.6867 53.5643C58.9354 52.9285 61.5429 51.7342 63.4012 50.4889C64.4205 49.8058 66.1055 48.3944 67.0547 47.4286C67.9847 46.4823 70.0079 43.7401 70.5858 42.6424C72.5979 38.8211 73.4912 35.0082 73.3633 30.7875C73.3284 29.6354 72.8873 26.7815 72.5704 25.6566C71.9449 23.4361 70.7247 20.7697 69.4975 18.941C68.8135 17.9218 67.4024 16.237 66.438 15.2881C65.8617 14.721 65.2492 14.2275 63.9814 13.3089C62.0373 11.9003 61.139 11.3996 59.097 10.5863C57.4754 9.9405 56.382 9.63423 54.5474 9.31219C50.6297 8.62446 46.5577 9.0042 42.7466 10.4127C39.5494 11.5943 36.8213 13.3684 34.335 15.8831C33.5412 16.6858 31.65 19.168 31.0792 20.1562ZM35.5754 18.481C40.1797 13.2144 47.2578 10.7257 54.1696 11.9434C56.2765 12.3147 57.9663 12.8831 59.9902 13.9012C61.2239 14.5219 63.6876 16.307 64.6617 17.2859C66.2596 18.8921 67.326 20.3208 68.3351 22.2072C70.4711 26.2009 71.1864 30.6883 70.4004 35.1633C70.0316 37.2629 69.4621 38.9554 68.4433 40.9803C67.8219 42.2152 66.0367 44.6789 65.0576 45.6527C62.2985 48.3966 59.1179 50.2114 55.4509 51.1342C49.8592 52.5413 43.6126 51.3262 38.9062 47.9162C34.1979 44.5047 31.1115 38.9732 30.6924 33.1951C30.303 27.8263 32.0759 22.4838 35.5754 18.481ZM36.4341 22.144C36.3382 22.8182 36.54 23.0715 38.0377 24.1567C39.5499 25.2524 39.8418 25.3588 40.4644 25.0409C40.908 24.8144 41.1193 24.5228 41.1963 24.0308C41.3045 23.3401 41.1125 23.0959 39.6003 22.0002C38.4398 21.1594 38.2594 21.0522 37.9125 20.9979C37.2004 20.8866 36.5402 21.3984 36.4341 22.144ZM33.5965 34.0671C33.5127 35.1173 34.5731 35.8218 35.5088 35.3376C36.0727 35.0458 36.2774 34.6311 36.1748 33.9884C36.0722 33.3457 35.7486 33.0154 35.1219 32.9139C34.3555 32.7899 33.6561 33.3185 33.5965 34.0671ZM46.8555 15.7484C46.7881 16.2456 47.1096 16.8548 47.5562 17.0759C48.0155 17.3032 48.7334 17.1895 49.0977 16.8317C49.4556 16.48 49.5758 15.7874 49.3555 15.3457C48.7648 14.1614 47.0332 14.4403 46.8555 15.7484ZM42.9022 26.8306C42.87 27.0577 42.9188 27.3382 43.0279 27.552C43.1995 27.8881 43.342 28 46.6626 30.406C49.6835 32.5948 50.1581 32.9167 50.4319 32.9621C50.8638 33.0336 62.0071 31.2617 62.4184 31.056C62.6011 30.9646 62.8228 30.7903 62.911 30.6685C63.1694 30.3119 63.2153 29.7136 63.0143 29.3198C62.7898 28.88 62.4954 28.664 62.0256 28.5946C61.8237 28.5647 59.2584 28.9259 56.3251 29.3972L50.992 30.2542L47.8806 27.9998C44.9039 25.843 44.7522 25.7426 44.3806 25.6845C43.6686 25.5731 43.0084 26.085 42.9022 26.8306ZM39.9951 44.4563C39.9354 44.8759 40.1751 45.4375 40.5207 45.6879C40.8774 45.9463 41.4756 45.992 41.8694 45.791C42.1822 45.6313 42.3203 45.4732 43.1613 44.3125C44.2572 42.8 44.3637 42.508 44.0459 41.8854C43.8195 41.4419 43.528 41.2307 43.036 41.1537C42.3424 41.0452 42.102 41.2356 40.9975 42.7677C40.1551 43.9362 40.0421 44.1266 39.9951 44.4563ZM57.1831 20.7345C57.1233 21.1541 57.363 21.7157 57.7087 21.9661C58.0653 22.2245 58.6635 22.2702 59.0573 22.0692C59.3701 21.9095 59.5082 21.7514 60.3492 20.5907C61.1902 19.43 61.2974 19.2495 61.3518 18.9025C61.4201 18.4657 61.1903 17.9114 60.8337 17.6531C60.4771 17.3947 59.8789 17.3489 59.4851 17.55C59.1708 17.7105 59.0372 17.8643 58.1854 19.0459C57.343 20.2144 57.23 20.4048 57.1831 20.7345ZM51.911 47.2424C51.8064 48.0022 52.3372 48.6937 53.07 48.7519C54.107 48.8344 54.8099 47.7925 54.3517 46.8522C53.7921 45.7039 52.0854 45.9767 51.911 47.2424ZM65.1776 28.7643C65.1235 28.915 65.1193 29.2153 65.1684 29.4318C65.4218 30.548 66.8485 30.8321 67.5222 29.9005C68.3114 28.8092 67.0704 27.3779 65.8656 27.9899C65.4487 28.2017 65.3332 28.3318 65.1776 28.7643ZM60.1506 39.3281C60.0547 40.0022 60.2565 40.2556 61.7542 41.3408C62.9147 42.1816 63.0951 42.2888 63.442 42.343C63.8788 42.4113 64.4331 42.1814 64.6915 41.8247C64.95 41.468 64.9958 40.8697 64.7949 40.4759C64.6352 40.1631 64.4772 40.0251 63.3167 39.1842C62.1563 38.3434 61.9758 38.2362 61.6289 38.182C60.9169 38.0706 60.2567 38.5825 60.1506 39.3281Z" fill="white"/>
<path fill-rule="evenodd" clip-rule="evenodd" d="M31.0792 20.1562C28.9164 23.9007 27.8543 28.1611 27.9917 32.5412C28.0307 33.7842 28.4994 36.7211 28.8493 37.9144C29.4912 40.1041 30.6497 42.6036 31.8588 44.4073C32.5354 45.4167 33.9373 47.0878 34.9168 48.0525C35.993 49.1126 38.674 51.0554 40.0191 51.7501C41.2238 52.3722 43.2643 53.1879 44.4437 53.5188C46.5523 54.1105 49.2643 54.4305 51.5436 54.3566C52.7217 54.3185 55.5727 53.8793 56.6867 53.5643C58.9354 52.9285 61.5429 51.7342 63.4012 50.4889C64.4205 49.8058 66.1055 48.3944 67.0547 47.4286C67.9847 46.4823 70.0079 43.7401 70.5858 42.6424C72.5979 38.8211 73.4912 35.0082 73.3633 30.7875C73.3284 29.6354 72.8873 26.7815 72.5704 25.6566C71.9449 23.4361 70.7247 20.7697 69.4975 18.941C68.8135 17.9218 67.4024 16.237 66.438 15.2881C65.8617 14.721 65.2492 14.2275 63.9814 13.3089C62.0373 11.9003 61.139 11.3996 59.097 10.5863C57.4754 9.9405 56.382 9.63423 54.5474 9.31219C50.6297 8.62446 46.5577 9.0042 42.7466 10.4127C39.5494 11.5943 36.8213 13.3684 34.335 15.8831C33.5412 16.6858 31.65 19.168 31.0792 20.1562ZM35.5754 18.481C40.1797 13.2144 47.2578 10.7257 54.1696 11.9434C56.2765 12.3147 57.9663 12.8831 59.9902 13.9012C61.2239 14.5219 63.6876 16.307 64.6617 17.2859C66.2596 18.8921 67.326 20.3208 68.3351 22.2072C70.4711 26.2009 71.1864 30.6883 70.4004 35.1633C70.0316 37.2629 69.4621 38.9554 68.4433 40.9803C67.8219 42.2152 66.0367 44.6789 65.0576 45.6527C62.2985 48.3966 59.1179 50.2114 55.4509 51.1342C49.8592 52.5413 43.6126 51.3262 38.9062 47.9162C34.1979 44.5047 31.1115 38.9732 30.6924 33.1951C30.303 27.8263 32.0759 22.4838 35.5754 18.481ZM36.4341 22.144C36.3382 22.8182 36.54 23.0715 38.0377 24.1567C39.5499 25.2524 39.8418 25.3588 40.4644 25.0409C40.908 24.8144 41.1193 24.5228 41.1963 24.0308C41.3045 23.3401 41.1125 23.0959 39.6003 22.0002C38.4398 21.1594 38.2594 21.0522 37.9125 20.9979C37.2004 20.8866 36.5402 21.3984 36.4341 22.144ZM33.5965 34.0671C33.5127 35.1173 34.5731 35.8218 35.5088 35.3376C36.0727 35.0458 36.2774 34.6311 36.1748 33.9884C36.0722 33.3457 35.7486 33.0154 35.1219 32.9139C34.3555 32.7899 33.6561 33.3185 33.5965 34.0671ZM46.8555 15.7484C46.7881 16.2456 47.1096 16.8548 47.5562 17.0759C48.0155 17.3032 48.7334 17.1895 49.0977 16.8317C49.4556 16.48 49.5758 15.7874 49.3555 15.3457C48.7648 14.1614 47.0332 14.4403 46.8555 15.7484ZM42.9022 26.8306C42.87 27.0577 42.9188 27.3382 43.0279 27.552C43.1995 27.8881 43.342 28 46.6626 30.406C49.6835 32.5948 50.1581 32.9167 50.4319 32.9621C50.8638 33.0336 62.0071 31.2617 62.4184 31.056C62.6011 30.9646 62.8228 30.7903 62.911 30.6685C63.1694 30.3119 63.2153 29.7136 63.0143 29.3198C62.7898 28.88 62.4954 28.664 62.0256 28.5946C61.8237 28.5647 59.2584 28.9259 56.3251 29.3972L50.992 30.2542L47.8806 27.9998C44.9039 25.843 44.7522 25.7426 44.3806 25.6845C43.6686 25.5731 43.0084 26.085 42.9022 26.8306ZM39.9951 44.4563C39.9354 44.8759 40.1751 45.4375 40.5207 45.6879C40.8774 45.9463 41.4756 45.992 41.8694 45.791C42.1822 45.6313 42.3203 45.4732 43.1613 44.3125C44.2572 42.8 44.3637 42.508 44.0459 41.8854C43.8195 41.4419 43.528 41.2307 43.036 41.1537C42.3424 41.0452 42.102 41.2356 40.9975 42.7677C40.1551 43.9362 40.0421 44.1266 39.9951 44.4563ZM57.1831 20.7345C57.1233 21.1541 57.363 21.7157 57.7087 21.9661C58.0653 22.2245 58.6635 22.2702 59.0573 22.0692C59.3701 21.9095 59.5082 21.7514 60.3492 20.5907C61.1902 19.43 61.2974 19.2495 61.3518 18.9025C61.4201 18.4657 61.1903 17.9114 60.8337 17.6531C60.4771 17.3947 59.8789 17.3489 59.4851 17.55C59.1708 17.7105 59.0372 17.8643 58.1854 19.0459C57.343 20.2144 57.23 20.4048 57.1831 20.7345ZM51.911 47.2424C51.8064 48.0022 52.3372 48.6937 53.07 48.7519C54.107 48.8344 54.8099 47.7925 54.3517 46.8522C53.7921 45.7039 52.0854 45.9767 51.911 47.2424ZM65.1776 28.7643C65.1235 28.915 65.1193 29.2153 65.1684 29.4318C65.4218 30.548 66.8485 30.8321 67.5222 29.9005C68.3114 28.8092 67.0704 27.3779 65.8656 27.9899C65.4487 28.2017 65.3332 28.3318 65.1776 28.7643ZM60.1506 39.3281C60.0547 40.0022 60.2565 40.2556 61.7542 41.3408C62.9147 42.1816 63.0951 42.2888 63.442 42.343C63.8788 42.4113 64.4331 42.1814 64.6915 41.8247C64.95 41.468 64.9958 40.8697 64.7949 40.4759C64.6352 40.1631 64.4772 40.0251 63.3167 39.1842C62.1563 38.3434 61.9758 38.2362 61.6289 38.182C60.9169 38.0706 60.2567 38.5825 60.1506 39.3281Z" fill="#B8B8B8"/>
<path fill-rule="evenodd" clip-rule="evenodd" d="M20.2765 39.5439L20.2207 42.0877L10.1104 42.1394L0 42.1911V44.4491C0 51.2096 1.75253 59.2151 4.45573 64.8042C7.88727 71.8985 13.0383 76.6782 19.6238 78.8791C22.4729 79.831 24.6017 80.1482 28.3148 80.1734L31.6276 80.1959L32.9169 81.7921C35.8978 85.4824 39.7698 88.6356 43.3606 90.297L45.0234 91.0663V98.3506V105.635H37.6523H30.2812V110.224V114.812H27.791H25.3008V117.406V120H51H76.6992V117.406V114.812H74.209H71.7188V110.224V105.635H64.3477H56.9766V98.3506V91.0663L58.6394 90.297C62.2302 88.6356 66.1022 85.4824 69.0831 81.7921L70.3724 80.1959L73.6852 80.1734C77.4021 80.148 79.5327 79.8302 82.3762 78.8771C86.2151 77.59 88.9081 75.8891 91.9482 72.8313C94.2532 70.5128 95.9834 68.0308 97.5443 64.8042C100.247 59.2151 102 51.2096 102 44.4491V42.1911L91.8896 42.1394L81.7793 42.0877L81.7235 39.5439L81.6677 37H51H20.3323L20.2765 39.5439ZM20.9616 51.6647C21.8818 59.172 23.5753 65.3222 26.304 71.0679L27.4649 73.512H26.8033C25.9253 73.512 23.061 72.9751 21.8145 72.5771C16.2294 70.793 11.8724 66.118 9.29794 59.1466C8.24805 56.3037 6.97724 50.8217 6.97345 49.1182C6.97266 48.788 7.39102 48.7696 13.7959 48.8189L20.6191 48.8714L20.9616 51.6647ZM95.0273 49.1509C95.0273 50.0982 94.1878 54.2824 93.5607 56.4613C91.9157 62.1755 89.1801 66.7836 85.8071 69.5218C84.4608 70.6148 81.7697 72.0787 80.1855 72.5801C78.9203 72.9803 76.0655 73.512 75.181 73.512H74.5038L75.3782 71.7662C78.243 66.0458 80.2634 58.7889 81.086 51.2656C81.2181 50.0585 81.3661 49.0035 81.4151 48.9213C81.4639 48.8391 84.5466 48.7716 88.2657 48.7716C94.7767 48.7716 95.0273 48.7856 95.0273 49.1509Z" fill="black"/>
<path fill-rule="evenodd" clip-rule="evenodd" d="M20.2765 39.5439L20.2207 42.0877L10.1104 42.1394L0 42.1911V44.4491C0 51.2096 1.75253 59.2151 4.45573 64.8042C7.88727 71.8985 13.0383 76.6782 19.6238 78.8791C22.4729 79.831 24.6017 80.1482 28.3148 80.1734L31.6276 80.1959L32.9169 81.7921C35.8978 85.4824 39.7698 88.6356 43.3606 90.297L45.0234 91.0663V98.3506V105.635H37.6523H30.2812V110.224V114.812H27.791H25.3008V117.406V120H51H76.6992V117.406V114.812H74.209H71.7188V110.224V105.635H64.3477H56.9766V98.3506V91.0663L58.6394 90.297C62.2302 88.6356 66.1022 85.4824 69.0831 81.7921L70.3724 80.1959L73.6852 80.1734C77.4021 80.148 79.5327 79.8302 82.3762 78.8771C86.2151 77.59 88.9081 75.8891 91.9482 72.8313C94.2532 70.5128 95.9834 68.0308 97.5443 64.8042C100.247 59.2151 102 51.2096 102 44.4491V42.1911L91.8896 42.1394L81.7793 42.0877L81.7235 39.5439L81.6677 37H51H20.3323L20.2765 39.5439ZM20.9616 51.6647C21.8818 59.172 23.5753 65.3222 26.304 71.0679L27.4649 73.512H26.8033C25.9253 73.512 23.061 72.9751 21.8145 72.5771C16.2294 70.793 11.8724 66.118 9.29794 59.1466C8.24805 56.3037 6.97724 50.8217 6.97345 49.1182C6.97266 48.788 7.39102 48.7696 13.7959 48.8189L20.6191 48.8714L20.9616 51.6647ZM95.0273 49.1509C95.0273 50.0982 94.1878 54.2824 93.5607 56.4613C91.9157 62.1755 89.1801 66.7836 85.8071 69.5218C84.4608 70.6148 81.7697 72.0787 80.1855 72.5801C78.9203 72.9803 76.0655 73.512 75.181 73.512H74.5038L75.3782 71.7662C78.243 66.0458 80.2634 58.7889 81.086 51.2656C81.2181 50.0585 81.3661 49.0035 81.4151 48.9213C81.4639 48.8391 84.5466 48.7716 88.2657 48.7716C94.7767 48.7716 95.0273 48.7856 95.0273 49.1509Z" fill="white"/>
<path d="M50.32 70V53.38L46.87 54.19V51.25L51.94 49H54.31V70H50.32Z" fill="#222222"/>
</svg>
