<svg width="97" height="105" viewBox="0 0 97 105" fill="none" xmlns="http://www.w3.org/2000/svg">
<path fill-rule="evenodd" clip-rule="evenodd" d="M24.5956 5.51243C27.0277 3.06953 30.6167 0.85415 33.166 0.222432C34.4665 -0.099802 35.4965 -0.0755752 37.2826 0.318975C40.5254 1.0354 45.5015 3.21034 48.496 5.22007C51.4892 7.22907 53.1727 9.31512 53.6862 11.6513C53.9659 12.9238 53.8129 18.449 53.4349 20.7314L53.1783 22.2797L53.7939 22.9249C54.3811 23.5404 54.4093 23.6328 54.4068 24.9286C54.4031 26.7034 53.8709 28.761 52.9569 30.5343C52.5523 31.3194 52.2214 32.0568 52.2214 32.1733C52.2214 32.2897 51.9655 33.1852 51.6526 34.1632C48.9103 42.7386 42.8993 48.3789 36.9041 48.0023C33.9615 47.8176 31.5832 46.5988 28.8642 43.8822C26.9672 41.9868 25.7125 40.2542 24.5175 37.8801C23.8022 36.4589 22.4986 32.9076 22.4986 32.3801C22.4986 32.25 22.1738 31.5136 21.7768 30.7432C20.961 29.1605 20.3682 27.2067 20.1968 25.5365C20.0516 24.12 20.1729 23.6328 20.868 22.8419L21.4205 22.2134L21.1071 20.0607C20.9218 18.7872 20.7881 16.7174 20.7799 14.9935C20.7681 12.4641 20.8197 11.9105 21.1707 10.8039C21.7821 8.87631 22.7772 7.33873 24.5956 5.51243ZM20.062 50.5083C22.5582 49.2565 25.947 47.1378 26.5923 46.4254C26.8994 46.0864 26.9439 46.1074 28.2739 47.2211C34.583 52.5027 40.4491 52.4617 46.7746 47.0918L47.9838 46.0653L48.3246 46.4442C49.6823 47.9534 56.31 51.4726 61.1564 53.2581C61.8349 53.508 62.4354 53.7352 62.9742 53.9489C62.5016 55.0872 61.987 56.3361 61.4577 57.6314C57.9333 66.2558 57.9026 66.3241 57.5296 66.3869C57.3227 66.4217 53.1746 66.8239 48.3116 67.2806C40.105 68.0514 39.0975 68.1426 38.4034 68.6567C38.3004 68.733 38.2043 68.8186 38.0927 68.9171C37.2577 69.6536 36.7963 71.2318 37.0874 72.3558C37.1624 72.6453 37.4002 73.1386 37.6157 73.4521C37.8313 73.7656 40.925 76.6805 44.4906 79.9298C48.0562 83.1789 51.122 85.9863 51.3037 86.1682L51.6339 86.4992L50.2799 92.6844C46.3767 92.9863 42.1492 93.1304 37.4511 93.1304C26.717 93.1304 18.7424 92.4135 11.0509 90.7569C7.16928 89.9208 2.01685 88.2614 1.54712 87.6962C1.03654 87.0818 0.296757 82.5779 0.0803095 78.7654C-0.282746 72.3779 0.587785 66.8888 2.63829 62.6348C3.80441 60.2155 4.80568 58.8179 6.50535 57.2364C8.16199 55.695 9.60619 54.8283 12.1047 53.8763C16.6346 52.1502 17.6189 51.7336 20.062 50.5083Z" fill="white"/>
<path fill-rule="evenodd" clip-rule="evenodd" d="M24.5956 5.51243C27.0277 3.06953 30.6167 0.85415 33.166 0.222432C34.4665 -0.099802 35.4965 -0.0755752 37.2826 0.318975C40.5254 1.0354 45.5015 3.21034 48.496 5.22007C51.4892 7.22907 53.1727 9.31512 53.6862 11.6513C53.9659 12.9238 53.8129 18.449 53.4349 20.7314L53.1783 22.2797L53.7939 22.9249C54.3811 23.5404 54.4093 23.6328 54.4068 24.9286C54.4031 26.7034 53.8709 28.761 52.9569 30.5343C52.5523 31.3194 52.2214 32.0568 52.2214 32.1733C52.2214 32.2897 51.9655 33.1852 51.6526 34.1632C48.9103 42.7386 42.8993 48.3789 36.9041 48.0023C33.9615 47.8176 31.5832 46.5988 28.8642 43.8822C26.9672 41.9868 25.7125 40.2542 24.5175 37.8801C23.8022 36.4589 22.4986 32.9076 22.4986 32.3801C22.4986 32.25 22.1738 31.5136 21.7768 30.7432C20.961 29.1605 20.3682 27.2067 20.1968 25.5365C20.0516 24.12 20.1729 23.6328 20.868 22.8419L21.4205 22.2134L21.1071 20.0607C20.9218 18.7872 20.7881 16.7174 20.7799 14.9935C20.7681 12.4641 20.8197 11.9105 21.1707 10.8039C21.7821 8.87631 22.7772 7.33873 24.5956 5.51243ZM20.062 50.5083C22.5582 49.2565 25.947 47.1378 26.5923 46.4254C26.8994 46.0864 26.9439 46.1074 28.2739 47.2211C34.583 52.5027 40.4491 52.4617 46.7746 47.0918L47.9838 46.0653L48.3246 46.4442C49.6823 47.9534 56.31 51.4726 61.1564 53.2581C61.8349 53.508 62.4354 53.7352 62.9742 53.9489C62.5016 55.0872 61.987 56.3361 61.4577 57.6314C57.9333 66.2558 57.9026 66.3241 57.5296 66.3869C57.3227 66.4217 53.1746 66.8239 48.3116 67.2806C40.105 68.0514 39.0975 68.1426 38.4034 68.6567C38.3004 68.733 38.2043 68.8186 38.0927 68.9171C37.2577 69.6536 36.7963 71.2318 37.0874 72.3558C37.1624 72.6453 37.4002 73.1386 37.6157 73.4521C37.8313 73.7656 40.925 76.6805 44.4906 79.9298C48.0562 83.1789 51.122 85.9863 51.3037 86.1682L51.6339 86.4992L50.2799 92.6844C46.3767 92.9863 42.1492 93.1304 37.4511 93.1304C26.717 93.1304 18.7424 92.4135 11.0509 90.7569C7.16928 89.9208 2.01685 88.2614 1.54712 87.6962C1.03654 87.0818 0.296757 82.5779 0.0803095 78.7654C-0.282746 72.3779 0.587785 66.8888 2.63829 62.6348C3.80441 60.2155 4.80568 58.8179 6.50535 57.2364C8.16199 55.695 9.60619 54.8283 12.1047 53.8763C16.6346 52.1502 17.6189 51.7336 20.062 50.5083Z" fill="url(#paint0_linear_251_498)"/>
<path fill-rule="evenodd" clip-rule="evenodd" d="M68.992 53.079C68.3434 53.3238 67.8557 53.6827 67.5465 54.1428C67.3833 54.3857 65.861 57.8677 64.1635 61.8807C61.1013 69.1201 61.0746 69.1774 60.7505 69.2301C60.5708 69.2593 56.9666 69.5969 52.7414 69.9803C44.5531 70.7233 44.6135 70.714 43.8625 71.354C43.137 71.9722 42.7361 73.297 42.989 74.2405C43.0542 74.4835 43.2608 74.8976 43.4481 75.1607C43.6354 75.4239 46.3234 77.8707 49.4214 80.5981C52.5194 83.3255 55.1832 85.682 55.341 85.8348L55.6279 86.1126L53.884 93.8089C52.7448 98.836 52.1369 101.726 52.1311 102.142C52.1153 103.269 52.6893 104.203 53.7053 104.704C54.4475 105.07 55.3446 105.098 56.0585 104.777C56.3214 104.659 58.9745 103.092 61.9544 101.294C64.9344 99.4963 67.8748 97.7229 68.4887 97.353C69.1026 96.9832 69.6741 96.6538 69.7585 96.6211C69.8483 96.5863 72.6716 98.227 76.5388 100.561C80.1833 102.761 83.3784 104.658 83.639 104.777C84.3466 105.099 85.2448 105.071 85.988 104.704C87.004 104.203 87.578 103.269 87.5622 102.142C87.5564 101.726 86.9485 98.8357 85.8094 93.8089L84.0656 86.1126L84.2997 85.8862C84.4285 85.7618 87.0923 83.4056 90.2193 80.6505C93.3462 77.8953 96.0579 75.4254 96.2452 75.1617C96.6745 74.5576 96.8384 73.9532 96.7662 73.2418C96.6565 72.1625 95.9386 71.198 94.9675 70.825C94.6745 70.7125 91.9905 70.4257 86.6073 69.9316C82.2464 69.5314 78.6592 69.1845 78.6356 69.1607C78.612 69.1369 77.1878 65.7998 75.4708 61.7448C73.7535 57.6896 72.2156 54.2024 72.053 53.9951C71.4042 53.1682 69.9272 52.726 68.992 53.079Z" fill="black"/>
<path fill-rule="evenodd" clip-rule="evenodd" d="M68.992 53.079C68.3434 53.3238 67.8557 53.6827 67.5465 54.1428C67.3833 54.3857 65.861 57.8677 64.1635 61.8807C61.1013 69.1201 61.0746 69.1774 60.7505 69.2301C60.5708 69.2593 56.9666 69.5969 52.7414 69.9803C44.5531 70.7233 44.6135 70.714 43.8625 71.354C43.137 71.9722 42.7361 73.297 42.989 74.2405C43.0542 74.4835 43.2608 74.8976 43.4481 75.1607C43.6354 75.4239 46.3234 77.8707 49.4214 80.5981C52.5194 83.3255 55.1832 85.682 55.341 85.8348L55.6279 86.1126L53.884 93.8089C52.7448 98.836 52.1369 101.726 52.1311 102.142C52.1153 103.269 52.6893 104.203 53.7053 104.704C54.4475 105.07 55.3446 105.098 56.0585 104.777C56.3214 104.659 58.9745 103.092 61.9544 101.294C64.9344 99.4963 67.8748 97.7229 68.4887 97.353C69.1026 96.9832 69.6741 96.6538 69.7585 96.6211C69.8483 96.5863 72.6716 98.227 76.5388 100.561C80.1833 102.761 83.3784 104.658 83.639 104.777C84.3466 105.099 85.2448 105.071 85.988 104.704C87.004 104.203 87.578 103.269 87.5622 102.142C87.5564 101.726 86.9485 98.8357 85.8094 93.8089L84.0656 86.1126L84.2997 85.8862C84.4285 85.7618 87.0923 83.4056 90.2193 80.6505C93.3462 77.8953 96.0579 75.4254 96.2452 75.1617C96.6745 74.5576 96.8384 73.9532 96.7662 73.2418C96.6565 72.1625 95.9386 71.198 94.9675 70.825C94.6745 70.7125 91.9905 70.4257 86.6073 69.9316C82.2464 69.5314 78.6592 69.1845 78.6356 69.1607C78.612 69.1369 77.1878 65.7998 75.4708 61.7448C73.7535 57.6896 72.2156 54.2024 72.053 53.9951C71.4042 53.1682 69.9272 52.726 68.992 53.079Z" fill="url(#paint1_linear_251_498)"/>
<path fill-rule="evenodd" clip-rule="evenodd" d="M68.992 53.079C68.3434 53.3238 67.8557 53.6827 67.5465 54.1428C67.3833 54.3857 65.861 57.8677 64.1635 61.8807C61.1013 69.1201 61.0746 69.1774 60.7505 69.2301C60.5708 69.2593 56.9666 69.5969 52.7414 69.9803C44.5531 70.7233 44.6135 70.714 43.8625 71.354C43.137 71.9722 42.7361 73.297 42.989 74.2405C43.0542 74.4835 43.2608 74.8976 43.4481 75.1607C43.6354 75.4239 46.3234 77.8707 49.4214 80.5981C52.5194 83.3255 55.1832 85.682 55.341 85.8348L55.6279 86.1126L53.884 93.8089C52.7448 98.836 52.1369 101.726 52.1311 102.142C52.1153 103.269 52.6893 104.203 53.7053 104.704C54.4475 105.07 55.3446 105.098 56.0585 104.777C56.3214 104.659 58.9745 103.092 61.9544 101.294C64.9344 99.4963 67.8748 97.7229 68.4887 97.353C69.1026 96.9832 69.6741 96.6538 69.7585 96.6211C69.8483 96.5863 72.6716 98.227 76.5388 100.561C80.1833 102.761 83.3784 104.658 83.639 104.777C84.3466 105.099 85.2448 105.071 85.988 104.704C87.004 104.203 87.578 103.269 87.5622 102.142C87.5564 101.726 86.9485 98.8357 85.8094 93.8089L84.0656 86.1126L84.2997 85.8862C84.4285 85.7618 87.0923 83.4056 90.2193 80.6505C93.3462 77.8953 96.0579 75.4254 96.2452 75.1617C96.6745 74.5576 96.8384 73.9532 96.7662 73.2418C96.6565 72.1625 95.9386 71.198 94.9675 70.825C94.6745 70.7125 91.9905 70.4257 86.6073 69.9316C82.2464 69.5314 78.6592 69.1845 78.6356 69.1607C78.612 69.1369 77.1878 65.7998 75.4708 61.7448C73.7535 57.6896 72.2156 54.2024 72.053 53.9951C71.4042 53.1682 69.9272 52.726 68.992 53.079Z" fill="#B8B8B8"/>
<path fill-rule="evenodd" clip-rule="evenodd" d="M68.992 53.079C68.3434 53.3238 67.8557 53.6827 67.5465 54.1428C67.3833 54.3857 65.861 57.8677 64.1635 61.8807C61.1013 69.1201 61.0746 69.1774 60.7505 69.2301C60.5708 69.2593 56.9666 69.5969 52.7414 69.9803C44.5531 70.7233 44.6135 70.714 43.8625 71.354C43.137 71.9722 42.7361 73.297 42.989 74.2405C43.0542 74.4835 43.2608 74.8976 43.4481 75.1607C43.6354 75.4239 46.3234 77.8707 49.4214 80.5981C52.5194 83.3255 55.1832 85.682 55.341 85.8348L55.6279 86.1126L53.884 93.8089C52.7448 98.836 52.1369 101.726 52.1311 102.142C52.1153 103.269 52.6893 104.203 53.7053 104.704C54.4475 105.07 55.3446 105.098 56.0585 104.777C56.3214 104.659 58.9745 103.092 61.9544 101.294C64.9344 99.4963 67.8748 97.7229 68.4887 97.353C69.1026 96.9832 69.6741 96.6538 69.7585 96.6211C69.8483 96.5863 72.6716 98.227 76.5388 100.561C80.1833 102.761 83.3784 104.658 83.639 104.777C84.3466 105.099 85.2448 105.071 85.988 104.704C87.004 104.203 87.578 103.269 87.5622 102.142C87.5564 101.726 86.9485 98.8357 85.8094 93.8089L84.0656 86.1126L84.2997 85.8862C84.4285 85.7618 87.0923 83.4056 90.2193 80.6505C93.3462 77.8953 96.0579 75.4254 96.2452 75.1617C96.6745 74.5576 96.8384 73.9532 96.7662 73.2418C96.6565 72.1625 95.9386 71.198 94.9675 70.825C94.6745 70.7125 91.9905 70.4257 86.6073 69.9316C82.2464 69.5314 78.6592 69.1845 78.6356 69.1607C78.612 69.1369 77.1878 65.7998 75.4708 61.7448C73.7535 57.6896 72.2156 54.2024 72.053 53.9951C71.4042 53.1682 69.9272 52.726 68.992 53.079Z" fill="url(#paint2_linear_251_498)"/>
<defs>
<linearGradient id="paint0_linear_251_498" x1="71.542" y1="-21.287" x2="8.77633" y2="56.4554" gradientUnits="userSpaceOnUse">
<stop stop-color="#111631"/>
<stop offset="0.34375" stop-color="#317296"/>
<stop offset="0.750436" stop-color="#085788"/>
<stop offset="1" stop-color="#085788"/>
</linearGradient>
<linearGradient id="paint1_linear_251_498" x1="69.8479" y1="52.9565" x2="69.8479" y2="105" gradientUnits="userSpaceOnUse">
<stop stop-color="#FFD84D"/>
<stop offset="1" stop-color="#FFB800"/>
</linearGradient>
<linearGradient id="paint2_linear_251_498" x1="94.3884" y1="41.0609" x2="62.0896" y2="92.5702" gradientUnits="userSpaceOnUse">
<stop stop-color="#111631"/>
<stop offset="0.34375" stop-color="#317296"/>
<stop offset="0.750436" stop-color="#085788"/>
<stop offset="1" stop-color="#085788"/>
</linearGradient>
</defs>
</svg>
