<svg width="97" height="105" viewBox="0 0 97 105" fill="none" xmlns="http://www.w3.org/2000/svg">
<path fill-rule="evenodd" clip-rule="evenodd" d="M33.166 0.222432C30.6167 0.85415 27.0277 3.06953 24.5956 5.51243C22.7772 7.33873 21.7821 8.87631 21.1707 10.8039C20.8197 11.9105 20.7681 12.4641 20.7799 14.9935C20.7881 16.7174 20.9218 18.7872 21.1071 20.0607L21.4205 22.2134L20.868 22.8419C20.1729 23.6328 20.0516 24.12 20.1968 25.5365C20.3682 27.2067 20.961 29.1605 21.7768 30.7432C22.1738 31.5136 22.4986 32.25 22.4986 32.3801C22.4986 32.9076 23.8022 36.4589 24.5175 37.8801C25.7125 40.2542 26.9672 41.9868 28.8642 43.8822C31.5832 46.5988 33.9615 47.8176 36.9041 48.0023C42.8993 48.3789 48.9103 42.7386 51.6526 34.1632C51.9655 33.1852 52.2214 32.2897 52.2214 32.1733C52.2214 32.0568 52.5523 31.3194 52.9569 30.5343C53.8709 28.761 54.4031 26.7034 54.4068 24.9286C54.4093 23.6328 54.3811 23.5404 53.7939 22.9249L53.1783 22.2797L53.4349 20.7314C53.8129 18.449 53.9659 12.9238 53.6862 11.6513C53.1727 9.31512 51.4892 7.22907 48.496 5.22007C45.5015 3.21034 40.5254 1.0354 37.2826 0.318975C35.4965 -0.0755752 34.4665 -0.099802 33.166 0.222432ZM26.5923 46.4254C25.947 47.1378 22.5582 49.2565 20.062 50.5083C17.6189 51.7336 16.6346 52.1502 12.1047 53.8763C9.60619 54.8283 8.16199 55.695 6.50535 57.2364C4.80568 58.8179 3.80441 60.2155 2.63829 62.6348C0.587785 66.8888 -0.282746 72.3779 0.0803095 78.7654C0.296757 82.5779 1.03654 87.0818 1.54712 87.6962C2.01685 88.2614 7.16928 89.9208 11.0509 90.7569C18.7424 92.4135 26.717 93.1304 37.4511 93.1304C48.4276 93.1304 56.8353 92.3437 64.5397 90.5959C68.3256 89.737 72.9133 88.2279 73.3552 87.6962C73.5703 87.4371 74.1967 84.6172 74.4728 82.6645C75.0351 78.6862 74.9954 72.9295 74.3812 69.3935C73.5346 64.5186 71.4768 60.1791 68.7855 57.5936C66.6094 55.503 65.429 54.8321 61.1564 53.2581C56.31 51.4726 49.6823 47.9534 48.3246 46.4442L47.9838 46.0653L46.7746 47.0918C40.4491 52.4617 34.583 52.5027 28.2739 47.2211C26.9439 46.1074 26.8994 46.0864 26.5923 46.4254Z" fill="white"/>
<path fill-rule="evenodd" clip-rule="evenodd" d="M68.9919 53.079C68.3433 53.3238 67.8557 53.6827 67.5464 54.1428C67.3832 54.3857 65.8609 57.8677 64.1634 61.8807C61.1012 69.1201 61.0746 69.1774 60.7504 69.2301C60.5707 69.2593 56.9666 69.5969 52.7413 69.9803C44.5531 70.7233 44.6134 70.714 43.8624 71.354C43.1369 71.9722 42.7361 73.297 42.989 74.2405C43.0541 74.4835 43.2607 74.8976 43.448 75.1607C43.6353 75.4239 46.3233 77.8707 49.4213 80.5981C52.5194 83.3255 55.1832 85.682 55.341 85.8348L55.6279 86.1126L53.8839 93.8089C52.7448 98.836 52.1369 101.726 52.1311 102.142C52.1153 103.269 52.6893 104.203 53.7053 104.704C54.4474 105.07 55.3446 105.098 56.0584 104.777C56.3213 104.659 58.9745 103.092 61.9543 101.294C64.9343 99.4963 67.8747 97.7229 68.4886 97.353C69.1025 96.9832 69.674 96.6538 69.7585 96.6211C69.8483 96.5863 72.6715 98.227 76.5387 100.561C80.1832 102.761 83.3783 104.658 83.6389 104.777C84.3465 105.099 85.2447 105.071 85.9879 104.704C87.0039 104.203 87.5779 103.269 87.5621 102.142C87.5563 101.726 86.9484 98.8357 85.8093 93.8089L84.0655 86.1126L84.2997 85.8862C84.4284 85.7618 87.0922 83.4056 90.2192 80.6505C93.3462 77.8953 96.0579 75.4254 96.2452 75.1617C96.6744 74.5576 96.8384 73.9532 96.7661 73.2418C96.6564 72.1625 95.9386 71.198 94.9674 70.825C94.6744 70.7125 91.9904 70.4257 86.6072 69.9316C82.2463 69.5314 78.6591 69.1845 78.6356 69.1607C78.612 69.1369 77.1878 65.7998 75.4707 61.7448C73.7534 57.6896 72.2155 54.2024 72.0529 53.9951C71.4042 53.1682 69.9271 52.726 68.9919 53.079Z" fill="black"/>
<path fill-rule="evenodd" clip-rule="evenodd" d="M68.9919 53.079C68.3433 53.3238 67.8557 53.6827 67.5464 54.1428C67.3832 54.3857 65.8609 57.8677 64.1634 61.8807C61.1012 69.1201 61.0746 69.1774 60.7504 69.2301C60.5707 69.2593 56.9666 69.5969 52.7413 69.9803C44.5531 70.7233 44.6134 70.714 43.8624 71.354C43.1369 71.9722 42.7361 73.297 42.989 74.2405C43.0541 74.4835 43.2607 74.8976 43.448 75.1607C43.6353 75.4239 46.3233 77.8707 49.4213 80.5981C52.5194 83.3255 55.1832 85.682 55.341 85.8348L55.6279 86.1126L53.8839 93.8089C52.7448 98.836 52.1369 101.726 52.1311 102.142C52.1153 103.269 52.6893 104.203 53.7053 104.704C54.4474 105.07 55.3446 105.098 56.0584 104.777C56.3213 104.659 58.9745 103.092 61.9543 101.294C64.9343 99.4963 67.8747 97.7229 68.4886 97.353C69.1025 96.9832 69.674 96.6538 69.7585 96.6211C69.8483 96.5863 72.6715 98.227 76.5387 100.561C80.1832 102.761 83.3783 104.658 83.6389 104.777C84.3465 105.099 85.2447 105.071 85.9879 104.704C87.0039 104.203 87.5779 103.269 87.5621 102.142C87.5563 101.726 86.9484 98.8357 85.8093 93.8089L84.0655 86.1126L84.2997 85.8862C84.4284 85.7618 87.0922 83.4056 90.2192 80.6505C93.3462 77.8953 96.0579 75.4254 96.2452 75.1617C96.6744 74.5576 96.8384 73.9532 96.7661 73.2418C96.6564 72.1625 95.9386 71.198 94.9674 70.825C94.6744 70.7125 91.9904 70.4257 86.6072 69.9316C82.2463 69.5314 78.6591 69.1845 78.6356 69.1607C78.612 69.1369 77.1878 65.7998 75.4707 61.7448C73.7534 57.6896 72.2155 54.2024 72.0529 53.9951C71.4042 53.1682 69.9271 52.726 68.9919 53.079Z" fill="url(#paint0_linear_325_26)"/>
<path fill-rule="evenodd" clip-rule="evenodd" d="M68.9919 53.079C68.3433 53.3238 67.8557 53.6827 67.5464 54.1428C67.3832 54.3857 65.8609 57.8677 64.1634 61.8807C61.1012 69.1201 61.0746 69.1774 60.7504 69.2301C60.5707 69.2593 56.9666 69.5969 52.7413 69.9803C44.5531 70.7233 44.6134 70.714 43.8624 71.354C43.1369 71.9722 42.7361 73.297 42.989 74.2405C43.0541 74.4835 43.2607 74.8976 43.448 75.1607C43.6353 75.4239 46.3233 77.8707 49.4213 80.5981C52.5194 83.3255 55.1832 85.682 55.341 85.8348L55.6279 86.1126L53.8839 93.8089C52.7448 98.836 52.1369 101.726 52.1311 102.142C52.1153 103.269 52.6893 104.203 53.7053 104.704C54.4474 105.07 55.3446 105.098 56.0584 104.777C56.3213 104.659 58.9745 103.092 61.9543 101.294C64.9343 99.4963 67.8747 97.7229 68.4886 97.353C69.1025 96.9832 69.674 96.6538 69.7585 96.6211C69.8483 96.5863 72.6715 98.227 76.5387 100.561C80.1832 102.761 83.3783 104.658 83.6389 104.777C84.3465 105.099 85.2447 105.071 85.9879 104.704C87.0039 104.203 87.5779 103.269 87.5621 102.142C87.5563 101.726 86.9484 98.8357 85.8093 93.8089L84.0655 86.1126L84.2997 85.8862C84.4284 85.7618 87.0922 83.4056 90.2192 80.6505C93.3462 77.8953 96.0579 75.4254 96.2452 75.1617C96.6744 74.5576 96.8384 73.9532 96.7661 73.2418C96.6564 72.1625 95.9386 71.198 94.9674 70.825C94.6744 70.7125 91.9904 70.4257 86.6072 69.9316C82.2463 69.5314 78.6591 69.1845 78.6356 69.1607C78.612 69.1369 77.1878 65.7998 75.4707 61.7448C73.7534 57.6896 72.2155 54.2024 72.0529 53.9951C71.4042 53.1682 69.9271 52.726 68.9919 53.079Z" fill="#B8B8B8"/>
<defs>
<linearGradient id="paint0_linear_325_26" x1="69.8478" y1="52.9565" x2="69.8478" y2="105" gradientUnits="userSpaceOnUse">
<stop stop-color="#FFD84D"/>
<stop offset="1" stop-color="#FFB800"/>
</linearGradient>
</defs>
</svg>
