<svg width="72" height="85" viewBox="0 0 72 85" fill="none" xmlns="http://www.w3.org/2000/svg">
<path fill-rule="evenodd" clip-rule="evenodd" d="M20.7337 2.47838V4.95677H23.2014H25.669V16.8505V28.7445L13.4096 50.0423C6.66699 61.756 0.954599 71.7695 0.715238 72.2944C0.0301178 73.7978 -0.180512 75.7369 0.160374 77.4041C0.937149 81.203 3.58439 83.9292 7.24988 84.7056C9.1029 85.0981 62.1524 85.0981 64.0054 84.7056C68.6592 83.72 71.8386 79.2569 71.1751 74.6411C71.0651 73.8753 70.7717 72.8027 70.523 72.2573C70.2744 71.7118 64.5621 61.6956 57.8288 49.9989L45.5863 28.7321V16.8443V4.95677H48.0539H50.5216V2.47838V0H35.6277H20.7337V2.47838ZM40.6595 17.57L40.6681 30.1832L44.9613 37.6183L49.2543 45.0535L42.3839 45.0998C38.605 45.1253 32.4745 45.1253 28.7606 45.0998L22.0079 45.0535L26.2979 37.6183L30.5879 30.1832L30.596 17.57L30.6043 4.95677H35.6277H40.651L40.6595 17.57ZM41.8635 57.877C42.9341 58.4256 43.6281 59.1006 44.1165 60.0686C45.798 63.4013 43.4638 67.2669 39.7698 67.2669C37.1285 67.2669 35.0878 65.3794 34.877 62.7415C34.6808 60.2872 36.2105 58.1526 38.6241 57.5126C39.429 57.2992 41.1033 57.4875 41.8635 57.877ZM23.5072 58.8915C24.4581 59.6635 24.8381 60.4058 24.8381 61.4922C24.8381 62.5197 24.5318 63.2351 23.7899 63.9398C22.3319 65.3254 19.839 64.9804 18.7672 63.2446C18.1609 62.2626 18.1866 60.6836 18.8245 59.7152C19.8431 58.1692 22.1234 57.7681 23.5072 58.8915ZM26.7188 68.7489C28.3585 69.8387 28.6379 72.2705 27.2881 73.7034C26.5864 74.4485 25.8742 74.7562 24.8512 74.7562C22.4471 74.7562 20.9015 72.2261 21.9617 70.0264C22.828 68.229 25.042 67.6345 26.7188 68.7489ZM56.4153 68.704C58.7187 70.2891 58.2343 73.8248 55.6063 74.6087C54.2958 74.9994 53.1769 74.6967 52.2616 73.7034C51.5733 72.9565 51.4029 72.5239 51.4029 71.5237C51.4029 70.0575 52.1629 68.9251 53.5435 68.3343C54.1957 68.0553 55.7665 68.2575 56.4153 68.704Z" fill="white"/>
</svg>
