<svg width="85" height="85" viewBox="0 0 85 85" fill="none" xmlns="http://www.w3.org/2000/svg">
<path fill-rule="evenodd" clip-rule="evenodd" d="M36.6895 2.65036C33.8132 4.10792 29.499 6.28903 27.1021 7.4971C24.7053 8.70518 22.7441 9.73183 22.7441 9.77864C22.7441 9.82545 27.1892 12.0856 32.6221 14.8012L42.5 19.7385L52.3779 14.8012C57.8108 12.0856 62.2559 9.82545 62.2559 9.77864C62.2559 9.73183 60.2949 8.70518 57.8979 7.4971C55.5012 6.28903 51.1868 4.10792 48.3105 2.65036C44.5174 0.727866 42.9215 0 42.5 0C42.0785 0 40.4826 0.727866 36.6895 2.65036ZM20.0879 23.8478V33.4344L29.9662 38.3719C35.3992 41.0875 39.8816 43.3094 39.9271 43.3094C39.9726 43.3094 40.0098 38.9955 40.0098 33.7229V24.1363L30.1315 19.1987C24.6985 16.4831 20.2161 14.2612 20.1706 14.2612C20.1251 14.2612 20.0879 18.5751 20.0879 23.8478ZM54.8267 19.208L44.9902 24.1363V33.7229C44.9902 38.9955 45.0274 43.3094 45.0729 43.3094C45.1184 43.3094 49.6008 41.0875 55.0338 38.3719L64.9121 33.4344V23.8478C64.9121 18.5751 64.8562 14.2653 64.7876 14.2705C64.719 14.2756 60.2366 16.4976 54.8267 19.208ZM9.83643 41.0355C5.97872 42.9698 2.82227 44.5906 2.82227 44.637C2.82227 44.6837 7.26733 46.9435 12.7002 49.6591L22.578 54.5963L29.6338 51.0701C33.5144 49.1307 36.6895 47.506 36.6895 47.4595C36.6895 47.3845 16.9944 37.4859 16.8918 37.5091C16.8692 37.5142 13.6941 39.1011 9.83643 41.0355ZM58.147 42.4466C52.737 45.1572 48.3105 47.4129 48.3105 47.4595C48.3105 47.506 51.4856 49.1307 55.3662 51.0701L62.422 54.5963L72.2998 49.6591C77.7327 46.9435 82.1777 44.6837 82.1777 44.637C82.1777 44.5622 68.1268 37.4859 68.0244 37.5091C68.0018 37.5142 63.5569 39.7362 58.147 42.4466ZM0 60.9349C0 72.3841 0.010293 72.7718 0.329541 73.4257C0.51083 73.7968 0.903125 74.2599 1.20112 74.4545C1.49929 74.6492 5.59058 76.9563 10.293 79.5812C14.9954 82.2062 19.0855 84.4992 19.3823 84.677L19.9219 85V71.9972V58.9942L10.0436 54.0566C4.61059 51.341 0.128164 49.1191 0.0826758 49.1191C0.0371875 49.1191 0 54.4362 0 60.9349ZM74.9146 54.0659L65.0781 58.9942V71.9972V85L65.6177 84.677C65.9145 84.4992 70.0046 82.2062 74.707 79.5812C79.4094 76.9563 83.5007 74.6492 83.7989 74.4545C84.0969 74.2599 84.4892 73.7968 84.6705 73.4257C84.9897 72.7718 85 72.3841 85 60.9349C85 54.4362 84.9441 49.1232 84.8755 49.1284C84.8069 49.1335 80.3245 51.3555 74.9146 54.0659ZM32.4146 55.3107L25.0684 58.9937V71.9867V84.9796L25.8661 84.5198C26.3048 84.267 29.6642 82.342 33.3311 80.2422L39.9983 76.4244L40.004 64.0167C40.0071 57.1923 39.9537 51.6131 39.8853 51.6182C39.8169 51.6234 36.455 53.2849 32.4146 55.3107ZM44.996 64.0167L45.0017 76.4244L51.6689 80.2422C55.3358 82.342 58.6952 84.267 59.1339 84.5198L59.9316 84.9796V71.9867V58.9938L52.5434 55.3014C48.4799 53.2705 45.1181 51.6089 45.0727 51.6089C45.0274 51.6089 44.9929 57.1923 44.996 64.0167Z" fill="white"/>
</svg>
