<svg width="70" height="85" viewBox="0 0 70 85" fill="none" xmlns="http://www.w3.org/2000/svg">
<path fill-rule="evenodd" clip-rule="evenodd" d="M33.1475 0.239631C32.0801 0.575801 31.0476 1.24881 30.318 2.08431C29.6571 2.84081 28.578 4.85215 28.3692 5.71704L28.2582 6.17629H34.7574H41.2565L41.1432 5.71704C40.9387 4.88856 40.0662 3.20754 39.3996 2.35768C37.859 0.393772 35.3533 -0.455086 33.1475 0.239631ZM27.3553 10.4765C27.1477 12.4184 27.2357 17.5551 27.5363 21.0392C27.9498 25.8305 29.0117 34.0949 29.8055 38.6994L29.9854 39.7432H31.6257H33.2659V34.9727C33.2659 30.1207 33.3094 29.7372 33.9143 29.2693C34.2534 29.0069 35.2613 29.0069 35.6004 29.2693C36.2053 29.7372 36.2489 30.1207 36.2489 34.9727V39.7432H37.889H39.5294L39.7092 38.6994C40.853 32.0645 41.8876 23.2303 42.2274 17.1983C42.3967 14.1908 42.3775 13.049 42.1097 10.226L42.0106 9.18228H34.7522H27.4939L27.3553 10.4765ZM36.8413 12.7716C38.3864 13.5333 39.2319 15.0062 39.2319 16.9359C39.2319 18.6842 38.3821 20.0115 36.6824 20.9182C35.7196 21.4317 33.7952 21.4317 32.8323 20.9182C31.1022 19.9953 30.278 18.684 30.2901 16.8733C30.2986 15.5991 30.5389 14.8225 31.1917 13.9601C31.6991 13.2896 32.8133 12.5555 33.6523 12.3389C34.5143 12.1163 35.8911 12.3032 36.8413 12.7716ZM34.149 15.4377C32.8998 15.9853 32.9632 17.6588 34.2536 18.1976C35.1771 18.583 36.2489 17.841 36.2489 16.8162C36.2489 16.1251 35.9658 15.6986 35.3294 15.4306C34.67 15.153 34.8003 15.1522 34.149 15.4377ZM22.5353 32.7569L19.6765 34.4244V36.3324V38.2402H23.1774H26.6783L26.5877 37.7809C26.5378 37.5284 26.2906 35.9127 26.0382 34.1904C25.7859 32.4683 25.5377 31.066 25.4866 31.0742C25.4358 31.0826 24.1076 31.8398 22.5353 32.7569ZM43.8722 31.2335C43.8722 31.3294 43.6484 32.9166 43.375 34.7606C43.1015 36.6044 42.8778 38.1416 42.8778 38.1765C42.8778 38.2116 44.4439 38.2402 46.358 38.2402H49.8382V36.3327V34.4252L46.92 32.7422C45.3149 31.8165 43.9726 31.0592 43.937 31.0592C43.9013 31.0592 43.8722 31.1377 43.8722 31.2335ZM19.5937 43.5912C15.4009 44.768 11.9331 45.7408 11.8875 45.7526C11.711 45.7989 34.3653 51.7564 34.7371 51.7616C35.0587 51.7661 42.7373 49.775 55.8871 46.2774C56.8897 46.0107 57.5982 45.7481 57.4615 45.6939C57.3248 45.6397 53.8253 44.6611 49.6851 43.5192L42.1573 41.4431L41.5457 41.9604C40.9452 42.4684 40.9324 42.5043 40.8401 43.9415C40.6909 46.2623 39.9081 47.5637 38.1312 48.4452C37.3871 48.8144 37.1314 48.8446 34.7574 48.8446C32.4227 48.8446 32.1192 48.8102 31.4263 48.466C29.6557 47.587 28.8207 46.2124 28.6743 43.9364C28.578 42.4394 28.5747 42.4299 27.9485 41.9227C27.6024 41.6425 27.2962 41.4217 27.2682 41.4322C27.24 41.4427 23.7865 42.4142 19.5937 43.5912ZM31.7743 43.8422C31.7743 44.7802 31.832 44.9935 32.1812 45.3452C32.5716 45.7388 32.6749 45.7551 34.7574 45.7551C36.8398 45.7551 36.9431 45.7388 37.3335 45.3452C37.6827 44.9935 37.7404 44.7802 37.7404 43.8422V42.7492H34.7574H31.7743V43.8422ZM3.24206 51.8884C1.49765 54.2512 0.0392876 56.305 0.00117119 56.4521C-0.0566663 56.6747 2.00013 57.2861 12.3083 60.1099C19.1154 61.9746 24.7901 63.5094 24.9185 63.5205C25.162 63.5414 32.3456 54.3853 32.1399 54.3162C31.7637 54.1898 6.64701 47.5921 6.54161 47.5921C6.47118 47.5921 4.9863 49.5255 3.24206 51.8884ZM50.1697 50.938C43.288 52.7639 37.5664 54.28 37.455 54.3069C37.136 54.3837 44.3148 63.5476 44.661 63.5055C44.8196 63.4863 50.4464 61.9646 57.1652 60.1238C63.8838 58.2831 69.4297 56.7771 69.4894 56.7771C69.5492 56.7771 69.5634 56.6438 69.521 56.4809C69.3946 55.9934 63.1186 47.5911 62.8914 47.605C62.7761 47.612 57.0513 49.1118 50.1697 50.938ZM30.1691 62.0249C27.0168 66.0927 26.6918 66.3978 25.3144 66.584C24.864 66.6449 22.8201 66.1509 17.5904 64.7171C13.679 63.645 10.1246 62.6637 9.69169 62.5368L8.9045 62.3061V69.9472C8.9045 75.9996 8.94991 77.6507 9.12259 77.8887C9.27771 78.1026 12.7665 79.1711 21.2425 81.6002C27.7884 83.4763 33.1721 84.9831 33.206 84.9489C33.24 84.9147 33.2488 78.8678 33.2254 71.5113L33.183 58.1358L30.1691 62.0249ZM36.2489 71.5231C36.2489 78.9354 36.3052 85 36.3742 85C36.4429 85 41.8276 83.4656 48.3401 81.59C56.647 79.1978 60.2448 78.0919 60.3955 77.8842C60.564 77.652 60.6102 75.945 60.6102 69.9667V62.345L52.7798 64.4965C47.009 66.082 44.7732 66.6301 44.2798 66.58C42.8622 66.436 42.5387 66.1389 39.4475 62.1408C37.8413 60.0633 36.4645 58.2921 36.3879 58.2049C36.3115 58.1178 36.2489 64.1109 36.2489 71.5231Z" fill="white"/>
</svg>
