<svg width="84" height="85" viewBox="0 0 84 85" fill="none" xmlns="http://www.w3.org/2000/svg">
<path fill-rule="evenodd" clip-rule="evenodd" d="M73.3098 0.154677C69.9838 0.381402 63.5098 1.38314 62.8043 1.78012C62.6693 1.85619 65.864 5.14146 71.9997 11.2366C77.1711 16.3736 81.4382 20.5177 81.4825 20.4458C81.6562 20.1631 82.5767 15.0506 82.8353 12.9313C83.0096 11.5034 83.1406 8.78317 83.1959 5.44127L83.2828 0.193378L82.2468 0.0845838C80.9192 -0.0551053 75.7952 -0.0149094 73.3098 0.154677ZM56.8942 3.60588C50.6629 6.09387 45.9208 9.48876 42.1929 14.1306C40.7574 15.9183 38.0054 20.1036 36.5382 22.7312C33.6792 27.8511 29.4796 36.7044 27.3292 42.1454C26.0399 45.4076 24.1029 51.0002 24.1069 51.4496C24.1081 51.5958 25.7808 53.3473 27.824 55.3417L31.5387 58.9681L34.3878 58.017C40.596 55.9448 45.6091 53.873 53.0062 50.3228C66.5747 43.8104 72.2361 39.5312 76.5407 32.534C78.1847 29.8616 80.5249 24.6232 80.4013 23.8925C80.3334 23.4919 59.4597 2.79731 59.1332 2.80694C58.9919 2.81109 57.9844 3.17053 56.8942 3.60588ZM59.4658 17.6809C63.9109 18.9938 66.5231 23.4043 65.4829 27.8403C64.6907 31.2195 61.922 33.8066 58.4879 34.3768C54.2165 35.0861 49.7867 32.0232 48.9 27.7475C47.974 23.2826 50.6455 18.8544 54.9946 17.645C56.066 17.3472 58.3992 17.366 59.4658 17.6809ZM32.7769 20.967C24.7051 24.8838 17.907 30.7928 14.1868 37.1259C12.7629 39.55 12.1361 39.2123 19.0218 39.7317C22.2968 39.9787 24.9882 40.1601 25.0027 40.1346C25.0173 40.1092 25.4654 39.042 25.9985 37.7631C27.5198 34.1129 31.8203 25.2738 33.9382 21.4439C34.3549 20.6903 34.6731 20.0762 34.645 20.0794C34.6169 20.0827 33.7763 20.482 32.7769 20.967ZM55.8677 20.969C53.5526 21.7296 52.1685 23.5299 52.1555 25.7975C52.1522 26.3759 52.2435 27.1373 52.3585 27.4892C53.7491 31.748 59.5256 32.284 61.6899 28.3551C62.1316 27.5532 62.1802 27.3168 62.1802 25.9701C62.1802 24.2529 61.8579 23.3841 60.8235 22.3131C59.6223 21.0695 57.398 20.4662 55.8677 20.969ZM61.8498 49.0821C58.5307 50.9806 49.862 55.1272 44.8719 57.2036L42.926 58.0133L43.0122 58.6847C43.0596 59.0538 43.2501 61.4861 43.4354 64.0897C43.6209 66.6933 43.8112 69.0695 43.8585 69.37L43.9445 69.9165L45.3812 69.1538C50.446 66.4648 55.9905 60.8842 59.8192 54.6221C61.603 51.7044 63.2739 48.4442 62.9589 48.4957C62.8941 48.5064 62.3949 48.7703 61.8498 49.0821ZM13.5571 54.0589C13.0372 54.425 0.317348 68.7342 0.110865 69.185C-0.287401 70.0547 0.439257 71.0659 1.46242 71.0659C2.22394 71.0659 1.81163 71.4923 10.2978 61.9305C15.3546 56.2328 15.6786 55.83 15.6792 55.2375C15.6807 54.0607 14.4919 53.4005 13.5571 54.0589ZM21.511 60.8751C21.1134 61.0375 1.22026 81.7437 1.02418 82.1993C0.594863 83.1966 1.55229 84.3427 2.61807 84.1073C2.94696 84.0347 5.94775 81.035 13.1831 73.5459C18.7413 67.7931 23.3703 62.9063 23.47 62.6865C23.9763 61.5692 22.7002 60.3891 21.511 60.8751ZM28.7668 67.7114C28.4373 67.7612 24.093 72.5252 16.131 81.5685C14.6514 83.2489 14.5259 83.7171 15.337 84.5327C15.8875 85.0863 16.3935 85.1442 17.0311 84.7267C17.2745 84.5672 20.4151 81.1197 24.0103 77.0655C29.7588 70.583 30.5469 69.6293 30.5469 69.1567C30.5469 68.1808 29.7801 67.5582 28.7668 67.7114Z" fill="white"/>
</svg>
