<svg width="117" height="85" viewBox="0 0 117 85" fill="none" xmlns="http://www.w3.org/2000/svg">
<path fill-rule="evenodd" clip-rule="evenodd" d="M19.1524 0.490766C16.8061 1.65654 14.4439 4.40834 4.80024 17.2085C-1.46149 25.5197 -1.55072 28.114 4.26095 32.8915C6.4776 34.7136 6.96076 35.0083 7.23778 34.7074C7.41962 34.5094 12.5968 27.7726 18.7427 19.7365C28.0239 7.6006 29.8634 5.06023 29.6012 4.74323C28.9651 3.97461 25.0647 1.17664 23.8081 0.587784C22.2115 -0.160865 20.5341 -0.195626 19.1524 0.490766ZM93.5655 0.430323C91.9657 1.08247 87.2435 4.62312 87.4062 5.04829C87.6431 5.6675 109.674 34.9938 109.904 34.9951C110.296 34.9974 114.633 31.4041 115.299 30.5257C116.57 28.8487 116.855 28.0147 116.746 26.2961C116.588 23.7996 115.354 21.6825 109.267 13.4655C100.491 1.61737 99.1234 0.219165 96.158 0.0572946C95.1821 0.00411614 94.3001 0.130967 93.5655 0.430323ZM46.6989 6.34403C43.6403 6.68878 39.1773 7.0229 36.7811 7.08646L32.4244 7.20189L20.9565 22.1741L9.48858 37.1466L10.5462 38.378L11.6038 39.6094L12.5852 38.8965C15.6512 36.6693 20.4945 37.3795 23.258 40.4621C24.8207 42.2053 25.5781 43.8577 25.7022 45.7942L25.8041 47.3833L27.6688 47.5034C29.0774 47.5939 29.8665 47.8054 30.897 48.3678C33.6687 49.8806 35.8355 53.1637 35.8355 55.8509V56.971L37.511 57.128C40.6961 57.4263 43.6284 59.4987 45.0906 62.485C45.7018 63.7325 45.7936 64.2342 45.7936 66.3198C45.7936 68.0996 45.8792 68.7193 46.1255 68.7193C46.8311 68.7193 48.9468 70.0239 49.982 71.097C52.3574 73.5598 53.0605 76.9902 51.7631 79.7854L51.1418 81.1234L53.286 82.8277C54.4655 83.7652 55.7595 84.6576 56.1614 84.8109C58.6528 85.7608 61.9594 82.9771 61.9594 79.9296C61.9594 78.872 61.909 78.8118 59.1789 76.6123C57.6497 75.3804 56.3006 74.2011 56.1811 73.9915C55.8415 73.3962 56.2109 72.4013 56.9522 71.9142C57.814 71.3476 58.0263 71.4644 62.1293 74.7588C63.8142 76.1114 65.5423 77.2935 65.9698 77.3853C66.9793 77.6025 68.9805 76.9918 70.1225 76.1181C72.0088 74.675 72.919 71.1803 71.9152 69.2337C71.7005 68.8174 70.0638 67.2952 68.278 65.851C64.6897 62.949 64.24 62.3522 64.8905 61.3565C65.4735 60.4639 66.2383 60.2813 67.0805 60.8333C67.4648 61.0852 69.525 62.692 71.6589 64.4038C73.7928 66.1159 75.869 67.684 76.2725 67.8889C77.3759 68.4485 79.5419 68.1857 80.8204 67.3369C82.364 66.3125 83.4222 64.3135 83.4253 62.4157C83.4266 61.5732 83.2548 60.5762 83.035 60.1495C82.819 59.7308 80.601 57.7435 78.1063 55.7336C75.6116 53.724 73.4441 51.801 73.2894 51.4604C72.7375 50.2456 74.2501 48.9008 75.4461 49.5429C75.7614 49.712 78.8662 52.1367 82.3459 54.9305L88.6723 60.0107L89.9943 60.003C92.1463 59.9905 94.1247 58.6717 95.2079 56.5272C95.8122 55.3308 95.8269 53.0278 95.2372 51.9139C94.6267 50.7616 67.0598 28.6359 64.9236 27.584C63.5581 26.9117 63.1309 26.8292 61.1835 26.8606C59.9743 26.8803 56.9265 27.2012 54.4109 27.5739C47.6937 28.5693 45.2409 28.4445 42.1647 26.9508C40.4072 26.0976 38.2906 24.0247 37.4797 22.3624C36.2064 19.752 36.6919 16.5351 38.585 15.042C39.417 14.3854 41.1992 13.8578 43.922 13.4617C45.3211 13.258 48.3636 12.2707 53.9572 10.2048C58.3722 8.5739 62.2116 7.23977 62.4891 7.23977C63.4418 7.23977 62.9932 6.75986 61.6361 6.32639C59.3449 5.5946 53.2826 5.60187 46.6989 6.34403ZM82.4799 7.6351C80.3294 8.46936 77.3125 8.95237 71.1416 9.45017C68.2964 9.67975 65.1501 10.0346 64.1497 10.2388C63.1492 10.4427 58.8426 11.9039 54.5795 13.4855C48.5858 15.7092 46.2711 16.4467 44.371 16.7372C43.0196 16.9439 41.5385 17.2812 41.0799 17.4869C39.4688 18.2091 39.6224 20.3562 41.4232 22.2872C43.353 24.3562 46.4803 25.3189 49.847 24.8805C50.7473 24.763 53.7537 24.3578 56.5277 23.9801C60.7262 23.4081 61.8316 23.3378 63.1233 23.5614C66.1607 24.0872 67.7566 25.1832 81.3449 36.0773C88.4336 41.7604 94.3748 46.4103 94.5473 46.4103C95.1404 46.4103 100.022 43.8193 101.959 42.4761C104.381 40.7967 107.554 37.6646 107.287 37.2169C106.443 35.8026 84.5752 6.98451 84.3567 6.99852C84.2015 7.00837 83.3567 7.29476 82.4799 7.6351ZM15.2521 40.9394C14.5514 41.2434 8.94075 47.2303 8.35361 48.3006C7.43591 49.974 7.94158 52.4879 9.53074 54.1505C10.808 55.4869 12.0355 56.0083 13.9038 56.0083H15.5299L18.5657 52.8306C21.6445 49.608 22.6442 48.1327 22.6442 46.8124C22.6442 44.7719 21.1621 42.4437 19.2362 41.4582C18.065 40.859 16.0447 40.5959 15.2521 40.9394ZM25.5457 50.8531C24.9948 51.0127 23.9426 51.8913 22.5456 53.359C18.2305 57.8922 17.9838 58.2655 17.9941 60.2406C18.005 62.3407 19.6358 64.6121 21.7764 65.5091C22.8195 65.9462 24.9045 65.9587 25.6585 65.5325C25.965 65.3592 27.5671 63.7581 29.2186 61.9747C31.4125 59.6055 32.2963 58.4577 32.4989 57.7129C33.2391 54.9946 31.4896 51.9748 28.5774 50.9445C27.3617 50.5141 26.7782 50.4967 25.5457 50.8531ZM32.0278 63.7244C30.2894 65.5442 28.6892 67.401 28.4714 67.8506C26.5661 71.7873 31.1422 76.8979 35.1857 75.3492C36.6381 74.7928 42.0612 69.0687 42.5537 67.5722C43.6442 64.2583 40.4754 60.4201 36.6466 60.417L35.1888 60.4159L32.0278 63.7244ZM41.158 74.4836C38.4067 77.4027 38.4005 77.412 38.512 78.5412C38.7443 80.8941 41.1257 82.9867 43.571 82.9867C44.7207 82.9867 44.8262 82.9169 46.8779 80.7981C48.4787 79.1451 49.0407 78.3773 49.1747 77.6603C49.6369 75.1892 47.6181 72.6415 44.4667 71.7188C44.0133 71.5863 43.4285 72.0747 41.158 74.4836Z" fill="white"/>
</svg>
