<svg width="24" height="26" viewBox="0 0 24 26" fill="none" xmlns="http://www.w3.org/2000/svg">
<path d="M11.6877 0C8.59373 0 6.19573 4.578 5.76574 10.938C6.32073 11.528 6.97274 12.113 7.69574 12.684C7.70374 12.02 7.74274 11.387 7.79674 10.766C8.37874 10.363 9.10973 9.871 9.68773 9.536C12.3477 8 15.0857 6.988 17.3947 6.688C17.8145 6.63238 18.2373 6.60366 18.6607 6.602C19.9577 6.602 20.8757 6.914 21.2147 7.5C21.5197 8.031 21.3827 8.875 20.8717 9.863C21.3947 10.348 21.8917 10.84 22.3317 11.336C23.4577 9.473 23.6877 7.78 22.9467 6.5C22.0637 4.973 20.0047 4.332 17.1417 4.703C14.5757 5.035 11.5757 6.137 8.68874 7.805C8.50473 7.91 8.33373 8.027 8.15373 8.141C8.87173 4.44 10.3327 2 11.6877 2C12.3207 2 12.9777 2.54 13.5707 3.477C14.2507 3.266 14.9217 3.082 15.5747 2.945C14.5397 1.09 13.1947 0 11.6877 0ZM4.90673 4.613C2.73774 4.574 1.16773 5.223 0.429735 6.5C-0.374265 7.89 -0.039265 9.758 1.34373 11.809C1.46873 12 1.60573 12.203 1.77773 12.426C3.34773 14.48 5.80073 16.527 8.68773 18.196C8.87173 18.301 9.06273 18.395 9.25073 18.5C8.10573 18.895 6.99673 19.18 5.97673 19.313C4.02673 19.566 2.60174 19.262 2.16474 18.5C1.85574 17.969 1.99273 17.125 2.50473 16.137C1.99509 15.6691 1.50628 15.1789 1.03974 14.668C-0.0822649 16.528 -0.312265 18.218 0.429735 19.5C1.14873 20.746 2.64873 21.402 4.72673 21.402C5.19973 21.402 5.70674 21.367 6.23474 21.297C6.53973 21.257 6.84474 21.207 7.15673 21.145L7.37573 21.098C7.39073 21.098 7.40273 21.094 7.41773 21.09C7.94973 20.977 8.53574 20.82 9.20774 20.61L9.86773 20.406C10.8477 20.07 11.8517 19.652 12.8557 19.164C13.0747 18.437 13.2697 17.59 13.4177 16.614C12.8397 16.937 12.2577 17.23 11.6797 17.504C11.0117 17.191 10.3397 16.844 9.68773 16.464C7.02373 14.926 4.77773 13.063 3.36773 11.214C2.17173 9.648 1.72274 8.262 2.16474 7.5C2.46474 6.977 3.26173 6.68 4.35974 6.625C4.51574 5.918 4.69573 5.246 4.90673 4.613ZM16.4297 8.898C15.6407 9.082 14.8047 9.352 13.9497 9.691C14.5157 10.027 15.0547 10.387 15.5787 10.746C15.6407 11.473 15.6877 12.215 15.6877 13C15.6877 18.898 13.8327 23.398 12.0477 23.941C11.9257 23.981 11.8007 24 11.6877 24C11.0547 24 10.3977 23.465 9.80473 22.52C9.12473 22.734 8.45374 22.918 7.80073 23.055C8.83574 24.91 10.1807 26 11.6877 26C11.8877 26 12.0777 25.98 12.2657 25.941C15.3947 25.348 17.6877 19.988 17.6877 13C17.6877 12.785 17.6717 12.578 17.6677 12.363C18.5827 13.156 19.3877 13.973 20.0117 14.785C21.2037 16.352 21.6517 17.738 21.2147 18.5C20.9067 19.027 20.1217 19.332 19.0157 19.387C18.8597 20.086 18.6837 20.762 18.4727 21.391C18.5277 21.391 18.5937 21.402 18.6487 21.402C20.7267 21.402 22.2267 20.746 22.9457 19.5C23.8287 17.973 23.3517 15.867 21.5977 13.574C20.3557 11.949 18.5547 10.332 16.4297 8.898ZM11.6877 11C11.1573 11 10.6486 11.2107 10.2735 11.5858C9.89845 11.9609 9.68773 12.4696 9.68773 13C9.68773 13.5304 9.89845 14.0391 10.2735 14.4142C10.6486 14.7893 11.1573 15 11.6877 15C12.2182 15 12.7269 14.7893 13.1019 14.4142C13.477 14.0391 13.6877 13.5304 13.6877 13C13.6877 12.4696 13.477 11.9609 13.1019 11.5858C12.7269 11.2107 12.2182 11 11.6877 11Z" fill="white"/>
</svg>
