<svg width="31" height="21" viewBox="0 0 31 21" fill="none" xmlns="http://www.w3.org/2000/svg">
<path d="M1.9375 0.8125H29.0625C30.1325 0.8125 31 1.68002 31 2.75C31 3.81998 30.1325 4.6875 29.0625 4.6875H1.9375C0.867523 4.6875 0 3.81998 0 2.75C0 1.68002 0.867523 0.8125 1.9375 0.8125Z" fill="#252B31"/>
<path d="M1.9375 8.5625H29.0625C30.1325 8.5625 31 9.43002 31 10.5C31 11.57 30.1325 12.4375 29.0625 12.4375H1.9375C0.867523 12.4375 0 11.57 0 10.5C0 9.43002 0.867523 8.5625 1.9375 8.5625Z" fill="#252B31"/>
<path d="M1.9375 16.3125H29.0625C30.1325 16.3125 31 17.18 31 18.25C31 19.32 30.1325 20.1875 29.0625 20.1875H1.9375C0.867523 20.1875 0 19.32 0 18.25C0 17.18 0.867523 16.3125 1.9375 16.3125Z" fill="#252B31"/>
</svg>
