<svg width="55" height="55" viewBox="0 0 55 55" fill="none" xmlns="http://www.w3.org/2000/svg">
<path fill-rule="evenodd" clip-rule="evenodd" d="M31.2338 19.4715C31.9585 18.8055 33.0883 18.8505 33.7572 19.5719L39.5264 25.7941C40.1579 26.4751 40.1579 27.5248 39.5264 28.2058L33.7572 34.428C33.0883 35.1495 31.9585 35.1945 31.2338 34.5285C30.5092 33.8626 30.464 32.7379 31.1329 32.0164L34.1358 28.7777L16.7857 28.7777C15.7995 28.7777 15 27.9818 15 26.9999C15 26.0181 15.7995 25.2222 16.7857 25.2222L34.1357 25.2222L31.1329 21.9836C30.464 21.2622 30.5092 20.1374 31.2338 19.4715Z" fill="white"/>
<circle cx="27.5" cy="27.5" r="26.5" transform="rotate(-180 27.5 27.5)" stroke="white" stroke-width="2"/>
</svg>
