<svg width="35" height="27" viewBox="0 0 35 27" fill="none" xmlns="http://www.w3.org/2000/svg">
<path d="M29.6288 2.17716C27.3976 1.17094 25.006 0.427207 22.5051 0.0043022C22.4828 2.63686e-05 22.4597 0.00278187 22.4391 0.0121877C22.4184 0.0215935 22.4012 0.0371842 22.3898 0.0568007C22.0836 0.59491 21.7424 1.29635 21.5032 1.8505C18.8507 1.45419 16.1541 1.45419 13.5016 1.8505C13.2352 1.23635 12.9348 0.637528 12.6018 0.0568007C12.5905 0.0369427 12.5734 0.0209993 12.5528 0.011098C12.5323 0.00119677 12.5092 -0.00219154 12.4866 0.00138548C9.98708 0.42429 7.59548 1.16802 5.36284 2.1757C5.34363 2.18375 5.32735 2.19749 5.31617 2.21507C0.77797 8.88675 -0.465952 15.3936 0.145072 21.8189C0.146772 21.8346 0.151657 21.8498 0.159428 21.8636C0.1672 21.8774 0.177697 21.8895 0.190279 21.8991C2.83911 23.8276 5.79352 25.2966 8.92982 26.2448C8.95168 26.2515 8.97507 26.2515 8.99692 26.2447C9.01877 26.238 9.03808 26.2248 9.05231 26.2069C9.7272 25.3043 10.3253 24.3467 10.8402 23.3443C10.8473 23.3305 10.8514 23.3155 10.8523 23.3C10.8531 23.2846 10.8506 23.2692 10.8449 23.2548C10.8392 23.2404 10.8305 23.2274 10.8194 23.2167C10.8083 23.2059 10.795 23.1977 10.7804 23.1926C9.83834 22.8378 8.92557 22.4097 8.05047 21.9122C8.03474 21.9032 8.02149 21.8905 8.01191 21.8751C8.00232 21.8598 7.9967 21.8423 7.99554 21.8242C7.99438 21.8061 7.99773 21.7881 8.00528 21.7716C8.01283 21.7552 8.02435 21.7408 8.0388 21.7299C8.22255 21.5943 8.40629 21.4529 8.58129 21.3114C8.59704 21.2987 8.61601 21.2906 8.6361 21.288C8.65618 21.2854 8.67658 21.2885 8.69503 21.2968C14.4217 23.8692 20.6239 23.8692 26.2835 21.2968C26.302 21.288 26.3226 21.2845 26.343 21.2869C26.3633 21.2892 26.3826 21.2972 26.3987 21.3099C26.5737 21.4528 26.756 21.5943 26.9412 21.7299C26.9558 21.7406 26.9675 21.7547 26.9753 21.771C26.9831 21.7874 26.9867 21.8054 26.9858 21.8234C26.9849 21.8415 26.9796 21.859 26.9703 21.8745C26.961 21.89 26.948 21.903 26.9324 21.9122C26.0604 22.4139 25.1533 22.8382 24.201 23.1911C24.1864 23.1964 24.1731 23.2048 24.162 23.2157C24.1508 23.2265 24.1421 23.2397 24.1365 23.2542C24.1308 23.2687 24.1283 23.2842 24.1291 23.2997C24.13 23.3153 24.1341 23.3304 24.1413 23.3443C24.6662 24.3461 25.2671 25.2998 25.9277 26.2054C25.9414 26.224 25.9605 26.2379 25.9825 26.2452C26.0044 26.2525 26.028 26.2529 26.0502 26.2463C29.1918 25.3008 32.1511 23.831 34.8028 21.8991C34.8158 21.89 34.8266 21.8783 34.8347 21.8648C34.8427 21.8512 34.8478 21.836 34.8495 21.8203C35.5786 14.3918 33.6274 7.93741 29.674 2.21799C29.6643 2.1994 29.6483 2.18491 29.6288 2.17716ZM11.6962 17.9063C9.9725 17.9063 8.55066 16.3474 8.55066 14.4356C8.55066 12.5223 9.94479 10.9648 11.6962 10.9648C13.4607 10.9648 14.8694 12.5354 14.8417 14.4356C14.8417 16.3488 13.4476 17.9063 11.6962 17.9063ZM23.3261 17.9063C21.6009 17.9063 20.1805 16.3474 20.1805 14.4356C20.1805 12.5223 21.5732 10.9648 23.3261 10.9648C25.0906 10.9648 26.4993 12.5354 26.4716 14.4356C26.4716 16.3488 25.0921 17.9063 23.3261 17.9063Z" fill="white"/>
</svg>
