<svg width="78" height="49" viewBox="0 0 78 49" fill="none" xmlns="http://www.w3.org/2000/svg">
<path d="M0.514648 24.4928L2.26856 25.011L53.163 25.011L53.6781 24.4928L39.7137 0.766806L0.514648 24.4928Z" fill="#535353"/>
<path d="M0.514647 24.4923L39.7137 48.2183L53.6783 24.4923L28.9757 24.4923L0.514647 24.4923Z" fill="#F8F8F8"/>
<path d="M58.1518 24.4923L58.5063 24.7843L76.636 24.7843L77.4854 24.4923L44.1943 0.752239L58.1518 24.4923Z" fill="#A7A7A7"/>
<path d="M77.4845 24.4923L58.1508 24.4923L44.1934 48.2183L77.4845 24.4923Z" fill="#E7E7E7"/>
<path d="M53.6779 24.4926L39.7136 0.767038L28.9756 24.4926L53.6779 24.4926Z" fill="#676767"/>
<path d="M39.7136 48.2183L53.6779 24.4927L28.9756 24.4927L39.7136 48.2183Z" fill="#D3D3D3"/>
</svg>
