<svg width="72" height="80" viewBox="0 0 72 80" fill="none" xmlns="http://www.w3.org/2000/svg">
<path d="M7.48828 21.4427H10.3327V23.3387H7.48828V21.4427Z" fill="white"/>
<path d="M10.8066 23.813H12.7026V26.6574H10.8066V23.813Z" fill="white"/>
<path d="M13.1768 21.4427H16.0211V23.3387H13.1768V21.4427Z" fill="white"/>
<path d="M10.8066 18.1244H12.7026V20.9688H10.8066V18.1244Z" fill="white"/>
<path d="M32.2334 4.09265H35.0778V5.98863H32.2334V4.09265Z" fill="white"/>
<path d="M35.5508 6.46277H37.4468V9.30716H35.5508V6.46277Z" fill="white"/>
<path d="M37.9219 4.09265H40.7663V5.98863H37.9219V4.09265Z" fill="white"/>
<path d="M35.5508 0.774658H37.4468V3.61905H35.5508V0.774658Z" fill="white"/>
<path d="M58.5889 16.1335H61.4333V18.0295H58.5889V16.1335Z" fill="white"/>
<path d="M61.9082 18.5035H63.8042V21.3479H61.9082V18.5035Z" fill="white"/>
<path d="M64.2783 16.1335H67.1227V18.0295H64.2783V16.1335Z" fill="white"/>
<path d="M61.9082 12.8152H63.8042V15.6596H61.9082V12.8152Z" fill="white"/>
<path d="M9.38477 46.8511H12.2292V48.747H9.38477V46.8511Z" fill="white"/>
<path d="M12.7031 49.2212H14.5991V52.0656H12.7031V49.2212Z" fill="white"/>
<path d="M15.0732 46.8511H17.9176V48.747H15.0732V46.8511Z" fill="white"/>
<path d="M12.7031 43.5328H14.5991V46.3772H12.7031V43.5328Z" fill="white"/>
<path d="M28.6299 59.3655H31.8532V61.2615H28.6299V59.3655Z" fill="white"/>
<path d="M3.12732 79.2751H62.7611C63.7095 79.2751 64.5626 78.8009 65.1313 78.0424L68.0702 73.6809C68.3545 73.2067 68.5443 72.638 68.5443 72.0693V68.846C68.5443 67.2344 67.3116 66.0016 65.6999 66.0016H63.0453L63.1399 65.907L63.1406 56.0474H53.2809L48.2562 61.0722V65.9072H42.4729V64.2956H46.2649V55.289H42.4729V54.8149C44.3689 53.772 50.9108 49.6956 54.5136 44.2913L61.6242 41.8264C62.9514 41.4475 63.8997 40.3094 63.8997 38.8876C63.8997 37.9392 63.4255 36.9916 62.667 36.4228C61.9085 35.854 60.8655 35.6642 59.9179 35.9486L58.1157 36.6119L60.9601 31.0184C61.8133 29.3123 61.3391 27.321 59.8227 26.2781C58.8743 25.6141 57.6423 25.425 56.5994 25.8039V25.7093C56.5994 24.761 56.2204 23.9078 55.5565 23.2445C55.3667 23.0547 55.0823 22.8656 54.7979 22.6758C54.7034 22.6758 54.7034 22.5812 54.6081 22.5812C54.5135 22.4866 54.3237 22.4866 54.2292 22.3914C54.1346 22.3914 54.0394 22.2968 53.8502 22.2968C53.7557 22.2968 53.6604 22.2023 53.5659 22.2023H53.4713H52.9026H52.6182H52.4284C52.3338 22.2023 52.2386 22.2023 52.0494 22.2968H51.9549C51.1963 22.4866 50.4378 22.9608 49.9636 23.5295H49.869H49.6792C48.0676 23.6241 46.7403 25.1412 46.7403 26.9426L44.4648 22.8662L24.364 22.8649L20.0025 30.5441L33.6549 45.6183L29.4832 47.9885L30.052 48.9368L29.388 48.0837C28.3451 48.8423 27.7763 50.075 27.7763 51.4023V55.2896H23.7944V64.2961H27.7763V65.9078L6.06547 65.9071C5.11713 65.9071 4.26396 66.3813 3.69529 67.1398L0.282227 72.3544V76.4307C0.282227 78.0424 1.51493 79.2751 3.12662 79.2751L3.12732 79.2751ZM3.12732 77.3791C2.55858 77.3791 2.17898 77.0002 2.17898 76.4308V73.5864H62.8557V77.3783H62.7611L3.12732 77.3791ZM66.4586 72.6388L64.7517 75.198V72.9225L66.6477 70.0781V72.0701C66.6477 72.2592 66.5531 72.449 66.4586 72.6388L66.4586 72.6388ZM50.0564 62.494H56.6928V69.1304H50.0564V62.494ZM58.5894 61.9253L61.244 59.2707V65.1486L58.5894 67.8032V61.9253ZM54.0389 57.9434H59.9167L57.2621 60.598H51.3842L54.0389 57.9434ZM60.3909 37.8442C60.7699 37.7497 61.1495 37.7497 61.4339 38.034C61.7182 38.2238 61.908 38.6028 61.908 38.9824C61.908 39.5511 61.5291 39.9307 60.9597 40.1199L55.7451 41.9214C55.8397 41.637 56.0295 41.2574 56.124 40.973C56.3138 40.5941 56.4084 40.2145 56.503 39.8355L56.9772 38.9824L60.3909 37.8442ZM58.6841 27.7941C59.4426 28.2683 59.6324 29.3112 59.1582 30.1643L56.5036 35.5687V27.9839C57.167 27.4152 58.0207 27.3206 58.684 27.7941L58.6841 27.7941ZM32.5173 31.397H38.3951L34.4132 42.3002L30.526 31.3977L32.5173 31.397ZM30.7157 29.501L34.4132 25.2349L38.1107 29.501H30.7157ZM40.3863 31.397H45.6008L36.9732 40.9724L40.3863 31.397ZM40.8598 29.501L43.7986 25.5191L46.0742 29.501H40.8598ZM39.5325 28.1738L36.4983 24.7607H41.9978L39.5325 28.1738ZM29.2938 28.1738L26.8285 24.7607H32.3273L29.2938 28.1738ZM27.9666 29.501H22.752L25.0275 25.5191L27.9666 29.501ZM28.4401 31.397L31.8531 40.9724L23.2255 31.397H28.4401ZM47.1171 32.5345L47.4015 37.9388C45.6 38.9818 43.2298 40.309 40.8596 41.6363L41.3338 42.4894L40.8596 41.6363L36.7832 43.9119L47.1171 32.5345ZM29.5778 51.4959C29.5778 50.832 29.8621 50.1687 30.4309 49.6944L41.7131 43.2479C44.2731 41.826 46.9277 40.309 48.8236 39.266L49.2978 38.9816V38.4129L48.6338 27.2253C48.6338 26.7511 48.7284 26.2769 49.108 25.9926C49.3924 25.7082 49.6768 25.5184 50.0564 25.4238C50.3407 25.5184 50.6251 25.7082 50.7203 25.8028C51.0047 26.0871 51.1945 26.5613 51.2891 27.13L52.0476 39.3598L53.9436 39.2653L53.1851 27.0355C53.0905 26.0871 52.8061 25.2339 52.1421 24.5706C52.0476 24.4761 52.0476 24.4761 51.9523 24.3808C52.0469 24.3808 52.0469 24.2863 52.1421 24.2863C52.2367 24.1917 52.4265 24.1917 52.6163 24.1917H52.7109H53.0898H53.1844H53.279C53.3735 24.1917 53.3735 24.1917 53.4688 24.2863C53.5633 24.2863 53.6586 24.3808 53.6586 24.3808C54.2273 24.6652 54.5117 25.3292 54.5117 25.9925V39.5503C54.5117 39.7401 54.4171 40.0244 54.3219 40.2142L54.2273 40.3088C51.7625 47.6091 40.9546 53.487 40.8593 53.487L40.3851 53.7714V55.383H29.5778L29.5778 51.4959ZM25.5958 57.2792H44.2729V62.4938H25.5958V57.2792ZM29.5778 70.2683V64.3904H40.4803V70.2683H42.3762V67.8981H48.1595V71.0268H58.0191L61.1477 67.8981H65.699H65.7936L63.2336 71.6901H8.62459L10.9001 67.8981H27.586V70.2683H29.5778ZM5.21227 68.3723C5.40207 68.0879 5.68644 67.9934 5.97081 67.9934H8.71989L6.44434 71.7853H3.03128L5.21227 68.3723Z" fill="white"/>
<path d="M53.7549 74.5347H59.6328V76.4306H53.7549V74.5347Z" fill="white"/>
<path d="M48.8242 74.5347H51.289V76.4306H48.8242V74.5347Z" fill="white"/>
<path d="M62.9512 47.3251H65.7956V49.221H62.9512V47.3251Z" fill="white"/>
<path d="M66.2686 49.6953H68.1645V52.5397H66.2686V49.6953Z" fill="white"/>
<path d="M68.6396 47.3251H71.484V49.221H68.6396V47.3251Z" fill="white"/>
<path d="M66.2686 44.0068H68.1645V46.8512H66.2686V44.0068Z" fill="white"/>
</svg>
