<svg width="119" height="119" viewBox="0 0 119 119" fill="none" xmlns="http://www.w3.org/2000/svg">
<path fill-rule="evenodd" clip-rule="evenodd" d="M8.11681 0.370513C4.16521 1.40688 0.97093 4.80529 0.233609 8.75725C0.0885622 9.53522 0.00139468 17.4714 0.0034867 29.6892C0.00720585 51.1561 0.00023243 51.0328 1.34284 53.5286C2.75403 56.1525 5.7677 58.3662 8.78625 58.996C9.61562 59.1691 15.1799 59.253 25.813 59.253H41.608L41.6119 52.799C41.6161 46.3982 41.8097 44.2864 42.5612 42.4558C42.8032 41.8665 42.7302 41.7227 41.498 40.3626C38.8823 37.4763 37.6864 34.5356 37.4888 30.5058C37.33 27.2669 37.7705 25.0423 39.1194 22.2732C41.4327 17.5247 46.4487 14.46 51.1055 14.9501C57.5315 15.6266 62.3699 21.2173 62.9475 28.6335L63.1093 30.7104L64.2883 31.0119C66.5446 31.5884 70.1461 33.5316 71.1085 34.6917C71.2786 34.8971 71.5099 35.065 71.622 35.065C71.7342 35.065 71.826 32.0933 71.826 28.4591V21.853L69.6759 21.7725C67.8956 21.7057 67.3989 21.6013 66.7885 21.1655C65.8491 20.4952 65.2036 18.8837 65.4175 17.7431C65.6244 16.6395 66.7782 15.3641 67.8354 15.0703C68.3273 14.9336 71.5899 14.835 75.5452 14.8373C81.8059 14.8405 82.4879 14.8798 83.3854 15.2875C85.8523 16.4081 85.9904 19.9009 83.6248 21.3441C83.0216 21.712 82.4526 21.8065 80.8334 21.8072L78.7994 21.8081V31.6775C78.7994 37.6605 78.7083 41.7865 78.5682 42.1556C78.441 42.4902 78.0214 43.0524 77.6358 43.4047C76.9513 44.0304 76.9403 44.0743 77.1698 45.2851C77.299 45.9668 77.4048 49.3887 77.4048 52.8888V59.253H93.1997C103.833 59.253 109.397 59.1691 110.226 58.996C113.218 58.3718 116.07 56.3049 117.578 53.6688C119.048 51.0968 119.038 51.2872 118.963 28.7854L118.896 8.43489L118.368 7.12804C117.195 4.22641 114.74 1.76435 111.859 0.599834L110.528 0.0621158L60.0875 0.015833C12.9868 -0.0274264 9.54519 -0.00393609 8.11681 0.370513ZM18.0381 15.3073C18.5795 15.5694 19.1715 16.0144 19.354 16.2958C19.5365 16.5774 20.6043 19.5812 21.7268 22.971C22.8493 26.3608 23.8474 29.2219 23.945 29.3292C24.0424 29.4361 25.0924 26.6115 26.2783 23.0517C28.627 16.0018 28.8552 15.5839 30.6528 15.045C31.5128 14.787 31.7613 14.8063 32.7201 15.2038C34.132 15.7894 34.867 16.8477 34.867 18.2957C34.867 19.9417 27.3846 42.2565 26.5233 43.1789C25.5891 44.1797 24.1489 44.5104 22.8637 44.0192C22.3088 43.8073 21.6517 43.3752 21.403 43.0589C21.1545 42.7428 19.1599 37.107 16.9705 30.5351C12.5837 17.368 12.6388 17.6359 14.0014 16.0832C15.1016 14.8296 16.4977 14.5612 18.0381 15.3073ZM103.478 15.0703C104.597 15.3813 105.672 16.6272 105.879 17.8515C106.009 18.6236 105.933 19.029 105.496 19.8779C104.624 21.5725 103.955 21.8081 100.014 21.8081H96.6978V23.8708V25.9335L99.0804 26.0417C101.784 26.1643 102.736 26.5241 103.448 27.6921C104.168 28.8722 104.239 29.765 103.708 30.9649C102.972 32.6315 102.211 32.9699 99.1966 32.9709L96.6978 32.9718V35.1813V37.3908H100.014C103.943 37.3908 104.631 37.6268 105.486 39.2686C106.426 41.0745 105.712 43.061 103.81 43.925C102.974 44.305 102.235 44.3578 97.7439 44.3578C91.9373 44.3578 91.1524 44.1829 90.2254 42.6819C89.7289 41.8783 89.7244 41.7599 89.7254 29.572C89.7261 17.6487 89.7405 17.2493 90.1949 16.5035C91.0866 15.0403 91.9738 14.8415 97.6276 14.8373C100.376 14.8352 103.009 14.9401 103.478 15.0703ZM48.9612 22.0479C47.1544 22.5893 45.4017 24.5553 44.7409 26.782C44.2916 28.2956 44.3027 31.0405 44.7639 32.4403C44.9654 33.0525 45.454 34.0375 45.8497 34.6291L46.5688 35.705L48.2831 34.3421C50.132 32.872 52.5495 31.6082 54.6831 30.9963L56.0197 30.613L56.0169 29.5248C56.0085 26.2131 53.9128 22.8303 51.4037 22.0781C50.3779 21.7706 49.9054 21.7646 48.9612 22.0479ZM56.1968 37.8424C52.6764 38.9683 49.8986 41.9395 48.9001 45.6472C48.6497 46.5771 48.5862 50.5977 48.5842 65.707C48.5825 76.1004 48.5328 84.6039 48.4733 84.6039C48.4138 84.6039 47.8645 84.2862 47.2529 83.8978C44.9159 82.4142 40.9808 81.803 38.3428 82.5138C35.2343 83.3513 32.3945 85.7168 31.0335 88.6024C29.4589 91.9406 29.4696 95.2385 31.0658 98.5586C31.851 100.192 32.4084 100.806 39.836 108.218C48.2562 116.621 49.0762 117.291 52.3005 118.39C53.7965 118.9 53.9748 118.906 70.3463 118.974C88.9808 119.052 88.8344 119.062 92.2556 117.374C95.8076 115.622 98.5014 112.374 99.7587 108.327L100.301 106.582V92.7441C100.301 77.3892 100.33 77.7296 98.7459 74.4008C96.974 70.6763 93.3469 67.7711 89.118 66.689C87.4955 66.2738 86.5248 66.2303 78.8785 66.2303H70.4314L70.4286 56.5202C70.4265 49.155 70.3507 46.5294 70.115 45.6472C69.1245 41.943 66.2871 38.9362 62.7395 37.8315C60.8989 37.2582 58.008 37.2631 56.1968 37.8424ZM0 63.5292C0 64.8321 0.555315 66.896 1.30356 68.3731C2.07552 69.8971 4.21263 72.0485 5.7075 72.8058C8.39412 74.167 7.96177 74.138 25.4952 74.138H41.608V70.1841V66.2303H25.6119C15.4261 66.2303 9.1147 66.1413 8.23652 65.9852C5.83813 65.5589 3.70706 64.783 1.82424 63.6508L0 62.5537V63.5292ZM117.125 63.6743C113.927 65.6184 111.142 66.2303 105.489 66.2303H101.581L102.756 67.6839C103.402 68.4835 104.369 70.0467 104.905 71.1577L105.879 73.1781L107.437 73.1928C113.181 73.2474 117.733 69.6374 118.792 64.1881C118.948 63.3847 119.035 62.6982 118.986 62.6624C118.937 62.6263 118.099 63.0817 117.125 63.6743Z" fill="white"/>
</svg>
