<svg width="123" height="124" viewBox="0 0 123 124" fill="none" xmlns="http://www.w3.org/2000/svg">
<path fill-rule="evenodd" clip-rule="evenodd" d="M56.4154 0.379331C55.0736 1.11157 30.1843 22.7628 29.6397 23.6714C28.9573 24.8108 28.9573 26.0076 29.6397 27.2071C30.6313 28.9494 31.0668 29.049 37.6872 29.049H43.522V76.5245V124H56.5161C69.0647 124 69.5427 123.983 70.459 123.512C72.1547 122.641 72.3764 121.843 72.3764 116.611V112.109L71.6289 111.696C69.5725 110.561 65.789 107.861 64.0312 106.273C46.3454 90.2997 46.3454 62.7292 64.0312 46.7787C65.8212 45.1642 69.685 42.4002 71.6156 41.3531L72.3764 40.9404V34.9948V29.049H78.1569C83.4757 29.049 84.0132 29.01 84.8862 28.5614C86.6567 27.6514 87.2864 25.4006 86.2588 23.6564C85.6345 22.5974 59.9729 0.372791 59.1032 0.138078C58.1791 -0.111169 57.1444 -0.0183978 56.4154 0.379331ZM87.0441 43.9725C79.2919 44.939 72.8258 48.1155 67.4447 53.6006C62.6662 58.4714 59.9111 63.6705 58.5059 70.4689C57.9151 73.3259 57.9151 79.723 58.5059 82.58C59.9111 89.3785 62.6662 94.5775 67.4447 99.4484C72.2307 104.327 77.5765 107.232 84.3991 108.664C87.1751 109.246 93.5505 109.251 96.4217 108.673C109.723 105.995 119.741 95.9902 122.55 82.58C123.15 79.7145 123.15 73.3344 122.55 70.4689C119.761 57.155 109.736 47.0751 96.647 44.4243C94.8699 44.0643 88.6532 43.772 87.0441 43.9725ZM23.7474 51.5906C23.198 51.883 22.6603 52.4401 22.3648 53.0236C21.887 53.9673 21.8812 54.3927 21.8812 88.9892V124H29.0948H36.3084V87.5456V51.0912L30.4774 51.1018C25.148 51.1118 24.569 51.1537 23.7474 51.5906ZM92.0998 51.5788C93.5861 52.3427 94.0172 53.4444 94.0172 56.4784V58.9782L95.7605 59.8477C98.0662 60.9976 99.9405 62.7001 100.274 63.9476C100.966 66.5367 98.5904 68.9962 95.9596 68.4142C95.5523 68.3241 94.7592 67.8614 94.1973 67.3859C92.9015 66.2899 91.4874 65.6354 90.4104 65.6337C88.5871 65.6308 86.8036 67.3959 86.8036 69.2031C86.8036 71.0919 88.6027 72.8912 90.4914 72.8912C94.2646 72.8912 98.0859 75.2429 99.8701 78.6633C101.528 81.8415 101.607 85.4179 100.089 88.5961C99.2427 90.3687 96.9096 92.7476 95.2796 93.4999L94.0172 94.0827V96.5766C94.0172 99.6041 93.5851 100.707 92.0998 101.47C90.868 102.103 89.8624 102.087 88.6751 101.415C87.1955 100.577 86.8036 99.5632 86.8036 96.5749V94.0793L85.0603 93.2347C82.8912 92.1837 79.7463 89.2077 79.4763 87.9506C78.9023 85.2784 81.3129 82.8269 83.827 83.5262C84.3308 83.6662 85.2765 84.3294 86.0972 85.118C88.4151 87.3453 90.2332 87.8961 92.0998 86.9369C93.1667 86.3885 94.0172 84.993 94.0172 83.7911C94.0172 81.9033 92.2369 80.1578 90.3116 80.1578C87.6834 80.1578 84.8793 78.9358 82.8253 76.8953C79.4294 73.5217 78.67 68.7378 80.8158 64.2332C81.5644 62.6619 83.9831 60.2748 85.5412 59.5694L86.8036 58.998L86.8137 56.4375C86.8255 53.44 87.1592 52.5629 88.6294 51.6665C89.7807 50.9645 90.8516 50.9374 92.0998 51.5788ZM1.86616 80.6573C1.31672 80.9496 0.779068 81.5068 0.483551 82.0903C0.0113013 83.0231 0 83.4884 0 102.079C0 120.289 0.0197171 121.151 0.45614 122.013C0.723764 122.542 1.30855 123.138 1.87145 123.457C2.79142 123.978 3.06746 124 8.62891 124H14.4272V102.079V80.1578L8.5962 80.1685C3.2668 80.1784 2.68779 80.2203 1.86616 80.6573Z" fill="white"/>
</svg>
