<svg width="129" height="117" viewBox="0 0 129 117" fill="none" xmlns="http://www.w3.org/2000/svg">
<path fill-rule="evenodd" clip-rule="evenodd" d="M60.4458 0.386288C57.5248 1.17051 55.0314 3.27605 53.6119 6.1575C52.7885 7.82848 52.7496 8.03228 52.7496 10.6837C52.7496 13.282 52.8011 13.5687 53.5527 15.1538C54.6686 17.5077 56.3151 19.1835 58.639 20.331C60.4871 21.2437 60.6167 21.2696 63.3314 21.2696C66.0008 21.2696 66.2005 21.2318 67.8829 20.4058C74.533 17.1414 76.0748 8.7374 71.0064 3.38261C68.2632 0.484537 64.2845 -0.644313 60.4458 0.386288ZM93.8474 0.316507C93.4314 0.479246 92.8316 0.760136 92.5144 0.941014C91.818 1.33804 58.7676 45.2962 58.2688 46.4887C57.1779 49.0979 58.7976 52.4736 61.5809 53.3916C62.8962 53.8251 64.9602 53.5971 66.1021 52.892C66.8031 52.4592 71.4781 46.4101 83.7711 30.0304C101.835 5.96075 101.354 6.68729 100.817 4.30111C100.109 1.15111 96.6988 -0.798235 93.8474 0.316507ZM92.7189 32.6319C89.7979 33.4161 87.3046 35.5217 85.885 38.4031C85.0616 40.0741 85.0227 40.2779 85.0227 42.9294C85.0227 45.5277 85.0742 45.8144 85.8258 47.3994C86.9417 49.7534 88.5882 51.4291 90.9121 52.5766C92.7602 53.4893 92.8898 53.5153 95.6045 53.5153C98.2739 53.5153 98.4736 53.4775 100.156 52.6514C106.806 49.3871 108.348 40.983 103.279 35.6283C100.536 32.7302 96.5576 31.6013 92.7189 32.6319ZM1.60331 52.7286C1.32596 52.8531 0.87212 53.2065 0.594773 53.5146C0.0983221 54.0658 0.0894974 54.4772 0.0239426 79.7223C-0.0360652 102.855 -0.00328781 105.409 0.357263 105.77C0.703191 106.115 1.715 106.169 7.89076 106.169C14.6018 106.169 15.0617 106.14 15.6547 105.674C16.0014 105.401 16.4078 104.863 16.5581 104.477C16.7084 104.091 19.5033 94.3492 22.7694 82.8277C26.468 69.78 28.7057 61.4667 28.7021 60.7848C28.6946 59.3073 27.9687 57.8083 26.7862 56.8289C25.2446 55.5519 20.3767 54.1618 14.21 53.2378C10.6241 52.7002 2.40761 52.3687 1.60331 52.7286ZM36.6446 63.0279C36.5672 63.4088 34.0315 72.4748 31.0099 83.1741L25.5162 102.628L29.3181 104.302C47.9384 112.502 62.3146 117.007 69.8377 117C77.6047 116.993 93.269 111.707 109.39 103.654C120.086 98.3106 127.81 93.2017 128.799 90.8158C129.236 89.7615 128.951 88.1797 128.035 86.5775C126.768 84.3614 124.424 82.971 120.863 82.3233C116.474 81.5255 111.622 82.7445 99.9354 87.5809C83.3181 94.4583 79.7968 95.5884 74.9855 95.5884C70.9136 95.5884 66.2363 94.3963 60.7521 91.961C58.1362 90.7992 52.5799 87.7754 52.7496 87.6058C52.7988 87.5567 54.5292 87.7933 56.5947 88.1316C64.9869 89.5061 68.7193 89.8807 74.2178 89.9008C79.0101 89.9184 79.6805 89.8673 81.2833 89.3635C83.4663 88.6772 84.9796 87.4527 85.5772 85.8893C86.2075 84.2407 85.9889 81.4051 85.117 79.9185C82.7913 75.9538 77.4154 73.6619 66.6109 72.0292L62.1154 71.3497L59.0898 69.6483C53.8605 66.7071 52.8482 66.1912 50.4418 65.241C47.4891 64.0751 44.1511 63.2246 40.5638 62.7248C36.8213 62.2033 36.8123 62.2041 36.6446 63.0279Z" fill="#FFD84D"/>
<path fill-rule="evenodd" clip-rule="evenodd" d="M60.4458 0.386288C57.5248 1.17051 55.0314 3.27605 53.6119 6.1575C52.7885 7.82848 52.7496 8.03228 52.7496 10.6837C52.7496 13.282 52.8011 13.5687 53.5527 15.1538C54.6686 17.5077 56.3151 19.1835 58.639 20.331C60.4871 21.2437 60.6167 21.2696 63.3314 21.2696C66.0008 21.2696 66.2005 21.2318 67.8829 20.4058C74.533 17.1414 76.0748 8.7374 71.0064 3.38261C68.2632 0.484537 64.2845 -0.644313 60.4458 0.386288ZM93.8474 0.316507C93.4314 0.479246 92.8316 0.760136 92.5144 0.941014C91.818 1.33804 58.7676 45.2962 58.2688 46.4887C57.1779 49.0979 58.7976 52.4736 61.5809 53.3916C62.8962 53.8251 64.9602 53.5971 66.1021 52.892C66.8031 52.4592 71.4781 46.4101 83.7711 30.0304C101.835 5.96075 101.354 6.68729 100.817 4.30111C100.109 1.15111 96.6988 -0.798235 93.8474 0.316507ZM92.7189 32.6319C89.7979 33.4161 87.3046 35.5217 85.885 38.4031C85.0616 40.0741 85.0227 40.2779 85.0227 42.9294C85.0227 45.5277 85.0742 45.8144 85.8258 47.3994C86.9417 49.7534 88.5882 51.4291 90.9121 52.5766C92.7602 53.4893 92.8898 53.5153 95.6045 53.5153C98.2739 53.5153 98.4736 53.4775 100.156 52.6514C106.806 49.3871 108.348 40.983 103.279 35.6283C100.536 32.7302 96.5576 31.6013 92.7189 32.6319ZM1.60331 52.7286C1.32596 52.8531 0.87212 53.2065 0.594773 53.5146C0.0983221 54.0658 0.0894974 54.4772 0.0239426 79.7223C-0.0360652 102.855 -0.00328781 105.409 0.357263 105.77C0.703191 106.115 1.715 106.169 7.89076 106.169C14.6018 106.169 15.0617 106.14 15.6547 105.674C16.0014 105.401 16.4078 104.863 16.5581 104.477C16.7084 104.091 19.5033 94.3492 22.7694 82.8277C26.468 69.78 28.7057 61.4667 28.7021 60.7848C28.6946 59.3073 27.9687 57.8083 26.7862 56.8289C25.2446 55.5519 20.3767 54.1618 14.21 53.2378C10.6241 52.7002 2.40761 52.3687 1.60331 52.7286ZM36.6446 63.0279C36.5672 63.4088 34.0315 72.4748 31.0099 83.1741L25.5162 102.628L29.3181 104.302C47.9384 112.502 62.3146 117.007 69.8377 117C77.6047 116.993 93.269 111.707 109.39 103.654C120.086 98.3106 127.81 93.2017 128.799 90.8158C129.236 89.7615 128.951 88.1797 128.035 86.5775C126.768 84.3614 124.424 82.971 120.863 82.3233C116.474 81.5255 111.622 82.7445 99.9354 87.5809C83.3181 94.4583 79.7968 95.5884 74.9855 95.5884C70.9136 95.5884 66.2363 94.3963 60.7521 91.961C58.1362 90.7992 52.5799 87.7754 52.7496 87.6058C52.7988 87.5567 54.5292 87.7933 56.5947 88.1316C64.9869 89.5061 68.7193 89.8807 74.2178 89.9008C79.0101 89.9184 79.6805 89.8673 81.2833 89.3635C83.4663 88.6772 84.9796 87.4527 85.5772 85.8893C86.2075 84.2407 85.9889 81.4051 85.117 79.9185C82.7913 75.9538 77.4154 73.6619 66.6109 72.0292L62.1154 71.3497L59.0898 69.6483C53.8605 66.7071 52.8482 66.1912 50.4418 65.241C47.4891 64.0751 44.1511 63.2246 40.5638 62.7248C36.8213 62.2033 36.8123 62.2041 36.6446 63.0279Z" fill="url(#paint0_linear_369_197)"/>
<path fill-rule="evenodd" clip-rule="evenodd" d="M60.4458 0.386288C57.5248 1.17051 55.0314 3.27605 53.6119 6.1575C52.7885 7.82848 52.7496 8.03228 52.7496 10.6837C52.7496 13.282 52.8011 13.5687 53.5527 15.1538C54.6686 17.5077 56.3151 19.1835 58.639 20.331C60.4871 21.2437 60.6167 21.2696 63.3314 21.2696C66.0008 21.2696 66.2005 21.2318 67.8829 20.4058C74.533 17.1414 76.0748 8.7374 71.0064 3.38261C68.2632 0.484537 64.2845 -0.644313 60.4458 0.386288ZM93.8474 0.316507C93.4314 0.479246 92.8316 0.760136 92.5144 0.941014C91.818 1.33804 58.7676 45.2962 58.2688 46.4887C57.1779 49.0979 58.7976 52.4736 61.5809 53.3916C62.8962 53.8251 64.9602 53.5971 66.1021 52.892C66.8031 52.4592 71.4781 46.4101 83.7711 30.0304C101.835 5.96075 101.354 6.68729 100.817 4.30111C100.109 1.15111 96.6988 -0.798235 93.8474 0.316507ZM92.7189 32.6319C89.7979 33.4161 87.3046 35.5217 85.885 38.4031C85.0616 40.0741 85.0227 40.2779 85.0227 42.9294C85.0227 45.5277 85.0742 45.8144 85.8258 47.3994C86.9417 49.7534 88.5882 51.4291 90.9121 52.5766C92.7602 53.4893 92.8898 53.5153 95.6045 53.5153C98.2739 53.5153 98.4736 53.4775 100.156 52.6514C106.806 49.3871 108.348 40.983 103.279 35.6283C100.536 32.7302 96.5576 31.6013 92.7189 32.6319ZM1.60331 52.7286C1.32596 52.8531 0.87212 53.2065 0.594773 53.5146C0.0983221 54.0658 0.0894974 54.4772 0.0239426 79.7223C-0.0360652 102.855 -0.00328781 105.409 0.357263 105.77C0.703191 106.115 1.715 106.169 7.89076 106.169C14.6018 106.169 15.0617 106.14 15.6547 105.674C16.0014 105.401 16.4078 104.863 16.5581 104.477C16.7084 104.091 19.5033 94.3492 22.7694 82.8277C26.468 69.78 28.7057 61.4667 28.7021 60.7848C28.6946 59.3073 27.9687 57.8083 26.7862 56.8289C25.2446 55.5519 20.3767 54.1618 14.21 53.2378C10.6241 52.7002 2.40761 52.3687 1.60331 52.7286ZM36.6446 63.0279C36.5672 63.4088 34.0315 72.4748 31.0099 83.1741L25.5162 102.628L29.3181 104.302C47.9384 112.502 62.3146 117.007 69.8377 117C77.6047 116.993 93.269 111.707 109.39 103.654C120.086 98.3106 127.81 93.2017 128.799 90.8158C129.236 89.7615 128.951 88.1797 128.035 86.5775C126.768 84.3614 124.424 82.971 120.863 82.3233C116.474 81.5255 111.622 82.7445 99.9354 87.5809C83.3181 94.4583 79.7968 95.5884 74.9855 95.5884C70.9136 95.5884 66.2363 94.3963 60.7521 91.961C58.1362 90.7992 52.5799 87.7754 52.7496 87.6058C52.7988 87.5567 54.5292 87.7933 56.5947 88.1316C64.9869 89.5061 68.7193 89.8807 74.2178 89.9008C79.0101 89.9184 79.6805 89.8673 81.2833 89.3635C83.4663 88.6772 84.9796 87.4527 85.5772 85.8893C86.2075 84.2407 85.9889 81.4051 85.117 79.9185C82.7913 75.9538 77.4154 73.6619 66.6109 72.0292L62.1154 71.3497L59.0898 69.6483C53.8605 66.7071 52.8482 66.1912 50.4418 65.241C47.4891 64.0751 44.1511 63.2246 40.5638 62.7248C36.8213 62.2033 36.8123 62.2041 36.6446 63.0279Z" fill="white"/>
<defs>
<linearGradient id="paint0_linear_369_197" x1="64.5068" y1="-11.9628" x2="64.5068" y2="117.001" gradientUnits="userSpaceOnUse">
<stop stop-color="#FFD84D"/>
<stop offset="1" stop-color="#FFB800"/>
</linearGradient>
</defs>
</svg>
