<svg width="71" height="76" viewBox="0 0 71 76" fill="none" xmlns="http://www.w3.org/2000/svg">
<path d="M27.0497 19.3888C26.5497 20.188 26.3524 21.1396 26.4933 22.0718C26.6342 23.0039 27.1046 23.8544 27.8178 24.4701C28.5318 25.0858 29.4422 25.4261 30.3852 25.4283C30.7899 25.4167 31.1916 25.3466 31.5768 25.2209C32.1339 25.5099 32.751 25.6631 33.3789 25.6667C33.7287 25.6682 34.077 25.6234 34.4151 25.5316C35.426 25.2606 36.2896 24.6024 36.8185 23.6984L42.454 13.9397L47.1054 14.2504L44.7121 15.6385V15.6392C43.8074 16.1631 43.1477 17.0245 42.8782 18.0346C42.6079 19.0441 42.7495 20.1199 43.272 21.0254C43.7886 21.9229 44.6377 22.5819 45.6363 22.8587C46.6342 23.1362 47.7007 23.0097 48.6069 22.5068L64.809 15.4209L64.8082 15.4217C65.3704 15.3949 65.9304 15.3393 66.4868 15.2555L67.3677 15.1211L67.367 0.473267H66.3307C65.2945 0.473267 41.282 0.556366 35.3773 6.91664L26.1368 12.1685H26.1375C25.2328 12.6924 24.5738 13.5545 24.3035 14.5639C24.034 15.5741 24.1756 16.65 24.6974 17.5555C25.2118 18.4508 26.0558 19.1083 27.0494 19.3887L27.0497 19.3888ZM28.8208 20.425L34.5386 11.8167L29.9705 19.7313V19.7306C29.357 20.8015 29.284 22.0993 29.7739 23.2323C29.6243 23.1861 29.4813 23.1196 29.349 23.035C28.4949 22.457 28.2601 21.3015 28.8208 20.4351L28.8208 20.425ZM65.296 2.55511V13.3081L64.4982 13.3702H64.3219L47.747 20.6214L47.6436 20.6734H47.6444C47.2101 20.9206 46.697 20.987 46.2143 20.8599C45.486 20.6575 44.9491 20.0404 44.8501 19.2911C44.7504 18.5418 45.108 17.8055 45.7591 17.4204L54.0466 12.6657L50.6801 12.4171C47.5721 12.1895 44.2779 11.972 41.9987 11.8166H41.3563L35.0784 22.6939V22.6932C34.8233 23.1224 34.4107 23.4346 33.9287 23.5639C33.4496 23.6896 32.9402 23.6224 32.5095 23.3775C32.076 23.1318 31.7616 22.7206 31.6395 22.2379C31.5073 21.7552 31.5745 21.24 31.826 20.8079L38.2484 9.54774L37.3054 7.90095C42.0608 3.74676 58.1069 2.64832 65.2954 2.55527L65.296 2.55511ZM27.1744 13.9505L32.7478 10.7804L28.3248 17.4312H28.3241C27.5827 17.5208 26.8601 17.1573 26.4909 16.5091C25.9814 15.616 26.2864 14.4786 27.1745 13.9606L27.1744 13.9505Z" fill="white"/>
<path d="M13.6957 53.657H2.75632L0.487305 60.846V71.2673H16.026L15.9537 61.1466L13.6957 53.657ZM12.1624 55.7286L13.4472 59.8719H3.00498L4.28975 55.7286H12.1624ZM2.55911 69.1957V61.9445L13.9545 61.9437V69.195L2.55911 69.1957Z" fill="white"/>
<path d="M18.0977 61.9445H20.1693V64.0161H18.0977V61.9445Z" fill="white"/>
<path d="M22.2422 61.9445H24.3138V64.0161H22.2422V61.9445Z" fill="white"/>
<path d="M26.3857 61.9445H28.4574V64.0161H26.3857V61.9445Z" fill="white"/>
<path d="M45.187 44.075L49.4966 37.1135L47.7356 36.026L44.8763 40.6354L42.939 38.4706L41.3955 39.8486L45.187 44.075Z" fill="white"/>
<path d="M12.3601 35.3824L10.5991 34.2949L7.73984 38.9044L5.80324 36.7395L4.25977 38.1175L8.05047 42.344L12.3601 35.3824Z" fill="white"/>
<path d="M37.7803 24.6515H39.8519V28.7948H37.7803V24.6515Z" fill="white"/>
<path d="M41.9248 27.7593H43.9964V31.9026H41.9248V27.7593Z" fill="white"/>
<path d="M46.0684 24.6515H48.14V28.7948H46.0684V24.6515Z" fill="white"/>
<path d="M50.2119 26.7234H52.2836V29.8313H50.2119V26.7234Z" fill="white"/>
<path d="M5.83399 44.9758L8.25821 51.5022L10.6824 44.9758H10.6817C13.0417 44.2012 14.8886 42.344 15.6517 39.9797C16.414 37.6154 16.0007 35.0292 14.5382 33.0212C13.0764 31.0132 10.7417 29.8252 8.2574 29.8252C5.77306 29.8252 3.43911 31.0131 1.97662 33.0212C0.514821 35.0292 0.100696 37.6154 0.863831 39.9797C1.62617 42.344 3.47304 44.2011 5.83381 44.9758H5.83399ZM8.25766 31.9026C10.1219 31.912 11.8634 32.8318 12.9213 34.3666C13.9792 35.9013 14.2198 37.8567 13.5644 39.6018C12.9097 41.3476 11.4421 42.662 9.63572 43.1215L9.10749 43.2559L8.25771 45.556L7.40793 43.2559L6.87971 43.1215H6.88043C5.07395 42.6619 3.60639 41.3475 2.95099 39.6018C2.29632 37.8567 2.53622 35.9014 3.59411 34.3666C4.652 32.8317 6.39422 31.9118 8.25775 31.9026H8.25766Z" fill="white"/>
<path d="M70.9305 41.2261C70.9342 40.187 70.5468 39.1841 69.8452 38.4173C69.1443 37.6499 68.1796 37.1744 67.1441 37.0849C66.1085 36.9953 65.0774 37.298 64.2544 37.9332C63.4321 38.5683 62.8779 39.4897 62.7023 40.5135C62.5274 41.5382 62.7435 42.5909 63.3078 43.4638C63.8729 44.3367 64.7443 44.9654 65.7509 45.2248V50.5496H58.4997V50.9846L55.4959 41.2468H52.284V30.8877H50.2124V46.4264H39.8533V30.8877H37.7816V41.2468H34.4353L31.5347 50.5697L24.3146 50.5704V45.2247C25.6275 44.8858 26.692 43.9255 27.1637 42.6538C27.6356 41.382 27.4549 39.9601 26.6803 38.8464C25.9057 37.7329 24.6346 37.0689 23.2782 37.0689C21.9219 37.0689 20.6517 37.7329 19.8769 38.8464C19.1023 39.96 18.9217 41.382 19.3935 42.6538C19.8654 43.9256 20.929 44.8858 22.2426 45.2247V52.6211H30.8929L30.0641 55.3041V75.4119H60.1055L59.9711 55.6057L59.0491 52.622H67.8229V45.2256C68.7103 44.9966 69.4964 44.4799 70.0586 43.7566C70.6215 43.0333 70.9279 42.1438 70.9308 41.2268L70.9305 41.2261ZM21.2067 41.2261C21.2067 40.3886 21.7118 39.6328 22.4857 39.3126C23.2604 38.9918 24.1513 39.1688 24.7438 39.7614C25.3364 40.3539 25.5134 41.2449 25.1926 42.0195C24.8725 42.7934 24.1166 43.2985 23.2784 43.2985C22.1345 43.2985 21.2067 42.3707 21.2067 41.2261L21.2067 41.2261ZM35.9687 43.2978L37.7817 43.2985V48.478H52.2841V43.2985H53.9728L57.5258 54.6939L32.416 54.6932L35.9687 43.2978ZM32.084 73.3392V56.7643L57.8671 56.765L57.9705 73.3399L32.084 73.3392ZM66.7871 43.2978V43.2985C65.9489 43.2985 65.193 42.7934 64.8729 42.0195C64.552 41.2449 64.7291 40.3539 65.3216 39.7614C65.9141 39.1689 66.8051 38.9918 67.5797 39.3126C68.3536 39.6328 68.8587 40.3886 68.8587 41.2261C68.8587 41.776 68.6405 42.3028 68.2517 42.6916C67.863 43.0803 67.3362 43.2985 66.787 43.2985L66.7871 43.2978Z" fill="white"/>
</svg>
