<svg width="80" height="75" viewBox="0 0 80 75" fill="none" xmlns="http://www.w3.org/2000/svg">
<path d="M75.4813 31.9188C74.6461 31.9155 73.8338 32.1904 73.1728 32.6997C72.5117 33.2096 72.0398 33.9257 71.831 34.7341H63.2824V41.7718H60.4672V18.3127H70.8923C71.1999 19.502 72.0698 20.4662 73.2217 20.8935C74.3738 21.3203 75.6618 21.1567 76.6706 20.4556C77.6786 19.754 78.2801 18.6025 78.2801 17.3739C78.2801 16.1454 77.6786 14.9947 76.6706 14.2929C75.6619 13.5912 74.3738 13.4276 73.2217 13.855C72.0697 14.2818 71.1999 15.246 70.8923 16.4359H60.4672V0.483826H18.2408V16.4359H11.203V9.73594C12.393 9.42831 13.3566 8.55841 13.7839 7.40645C14.2113 6.25444 14.0476 4.96636 13.346 3.95829C12.6443 2.94963 11.4935 2.34809 10.2649 2.34809C9.03569 2.34809 7.885 2.94961 7.18324 3.95829C6.48156 4.96629 6.31792 6.25444 6.74534 7.40645C7.17277 8.55846 8.13627 9.42829 9.32618 9.73594V18.3126H18.2405V34.734H8.25661C7.94898 33.544 7.07908 32.5804 5.92712 32.1532C4.77511 31.7257 3.48704 31.8894 2.4783 32.591C1.47029 33.2927 0.868747 34.4435 0.868747 35.6721C0.868747 36.9007 1.47027 38.052 2.4783 38.7538C3.48695 39.4554 4.77511 39.6191 5.92712 39.1917C7.07913 38.7642 7.94896 37.8001 8.25661 36.6108H18.2405V51.625H13.0793V58.6627H7.78726C7.48028 57.4728 6.60973 56.5087 5.45777 56.0819C4.30641 55.6545 3.01819 55.8181 2.00961 56.5198C1.00095 57.2215 0.399414 58.3722 0.399414 59.6008C0.399414 60.8294 1.00094 61.9807 2.00961 62.6825C3.01827 63.3835 4.30643 63.5472 5.45777 63.1204C6.60978 62.693 7.48028 61.7288 7.78726 60.5396H14.9565V53.5018H18.2412L18.2405 66.6386H60.4669V54.909H68.9119V62.0783H68.9125C67.7226 62.3853 66.7585 63.2552 66.3317 64.4071C65.9043 65.5592 66.0679 66.8472 66.7696 67.856C67.4713 68.8646 68.622 69.4662 69.8506 69.4662C71.0792 69.4662 72.2299 68.8646 72.9316 67.856C73.6333 66.8473 73.797 65.5592 73.3702 64.4071C72.9428 63.2551 71.9786 62.3853 70.7894 62.0783V53.0325H60.467V43.6488H65.1588V36.6111H71.8306C72.0662 37.5235 72.6364 38.3136 73.427 38.8248C74.2184 39.336 75.1727 39.5317 76.1016 39.372C77.0297 39.2123 77.8643 38.7089 78.4389 37.9627C79.0136 37.2159 79.2866 36.2812 79.2034 35.3425C79.121 34.4039 78.6883 33.5313 77.9919 32.8971C77.2948 32.2628 76.3856 31.9139 75.443 31.9192L75.4813 31.9188ZM74.5427 15.4974C75.302 15.4974 75.986 15.9549 76.2767 16.656C76.5673 17.357 76.4069 18.1647 75.8702 18.7014C75.3334 19.2382 74.5257 19.3985 73.8247 19.1079C73.123 18.8173 72.6662 18.1333 72.6662 17.3739C72.6662 16.3378 73.5066 15.4974 74.5427 15.4974L74.5427 15.4974ZM8.38795 6.11375C8.38795 5.35448 8.84549 4.67046 9.54651 4.37978C10.2482 4.08916 11.0553 4.25018 11.592 4.78692C12.1287 5.32365 12.2891 6.13071 11.9985 6.83172C11.7085 7.53339 11.0238 7.99028 10.2652 7.99028C9.22836 7.99028 8.38794 7.15049 8.38794 6.11372L8.38795 6.11375ZM4.63483 37.549C3.87555 37.549 3.19154 37.0914 2.90086 36.3904C2.61023 35.6887 2.77061 34.8817 3.30734 34.345C3.84472 33.8082 4.65178 33.6478 5.35281 33.9378C6.05449 34.2284 6.51137 34.9131 6.51137 35.6718C6.51137 36.1699 6.31369 36.6471 5.96156 36.9992C5.61005 37.3514 5.13224 37.549 4.63477 37.549L4.63483 37.549ZM4.16551 61.4773V61.4766C3.40624 61.4766 2.72222 61.0198 2.43154 60.3181C2.14092 59.6171 2.30194 58.81 2.83868 58.2733C3.37541 57.7366 4.18247 57.5755 4.88348 57.8662C5.58516 58.1568 6.04204 58.8414 6.04204 59.6001C6.04204 60.0982 5.84436 60.5754 5.49288 60.9276C5.14072 61.2791 4.66356 61.4767 4.16544 61.4767L4.16551 61.4773ZM71.7278 65.6998C71.7278 66.4584 71.2709 67.1431 70.5692 67.4337C69.8682 67.7237 69.0612 67.5633 68.5244 67.0266C67.9877 66.4899 67.8267 65.6828 68.1173 64.9811C68.4079 64.2801 69.0919 63.8226 69.8513 63.8226C70.3494 63.8226 70.8265 64.0203 71.1787 64.3724C71.5302 64.7245 71.7279 65.2017 71.7279 65.6998L71.7278 65.6998ZM20.1177 2.36012H58.5907V11.2744H20.1177V2.36012ZM58.5907 64.7614H20.1177V13.1513H58.5907V64.7614ZM75.4813 37.5488C74.722 37.5488 74.038 37.0913 73.7473 36.3903C73.4567 35.6886 73.617 34.8815 74.1538 34.3448C74.6905 33.8081 75.4982 33.6477 76.1992 33.9376C76.9003 34.2283 77.3578 34.9129 77.3578 35.6716C77.3578 36.1697 77.1601 36.6469 76.808 36.9991C76.4558 37.3512 75.9787 37.5489 75.4812 37.5489L75.4813 37.5488Z" fill="white"/>
<path d="M26.6855 24.881H52.0214V26.7576H26.6855V24.881Z" fill="white"/>
<path d="M26.6855 31.9188H52.0214V33.7954H26.6855V31.9188Z" fill="white"/>
<path d="M26.6855 38.9564H52.0214V40.833H26.6855V38.9564Z" fill="white"/>
<path d="M26.6855 54.4396H39.3538V56.3161H26.6855V54.4396Z" fill="white"/>
<path d="M50.6133 4.70642H56.2438V7.52168H50.6133V4.70642Z" fill="white"/>
<path d="M47.7988 44.5867C46.4295 44.5867 45.1171 45.1299 44.149 46.098C43.181 47.0661 42.6377 48.3784 42.6377 49.7471C42.6377 51.1164 43.181 52.4288 44.149 53.3968C45.1171 54.3642 46.4294 54.9082 47.7988 54.9082C49.1675 54.9082 50.4798 54.3642 51.4479 53.3968C52.4159 52.4288 52.9592 51.1164 52.9592 49.7471C52.9572 48.3791 52.4127 47.0681 51.4452 46.1005C50.4778 45.1331 49.1667 44.5885 47.7987 44.5865L47.7988 44.5867ZM47.7988 53.0316C46.9276 53.0316 46.0923 52.6854 45.4765 52.0694C44.8606 51.4535 44.5143 50.6183 44.5143 49.7471C44.5143 48.8766 44.8606 48.0407 45.4765 47.4249C46.0924 46.8089 46.9277 46.4633 47.7988 46.4633C48.6693 46.4633 49.5053 46.8089 50.1204 47.4249C50.7363 48.0408 51.0826 48.8767 51.0826 49.7471C51.0826 50.6183 50.7363 51.4536 50.1204 52.0694C49.5051 52.6854 48.6693 53.0316 47.7988 53.0316Z" fill="white"/>
<path d="M48.1836 56.0817L50.0982 59.4127L51.2895 57.6206L53.4293 57.4897L51.5056 54.158L48.1836 56.0817Z" fill="white"/>
<path d="M42.167 57.4893L44.3158 57.6202L45.498 59.4123L47.4216 56.0813L44.0906 54.1577L42.167 57.4893Z" fill="white"/>
<path d="M49.2051 68.5149H57.65V70.3915H49.2051V68.5149Z" fill="white"/>
<path d="M49.2051 72.7377H57.65V74.6142H49.2051V72.7377Z" fill="white"/>
</svg>
